<?xml version="1.0" standalone="no"?>
<!DOCTYPE svg PUBLIC "-//W3C//DTD SVG 1.1//EN" "http://www.w3.org/Graphics/SVG/1.1/DTD/svg11.dtd" >
<svg>
<metadata>
Created by FontForge 20090914 at Fri Dec 23 02:48:42 2022
 By www-data
2019 Iconian Fonts - www.iconian.com
</metadata>
<defs>
<font id="Mandalore" horiz-adv-x="411" >
  <font-face 
    font-family="Mandalore"
    font-weight="400"
    font-stretch="normal"
    units-per-em="1000"
    panose-1="0 0 0 0 0 0 0 0 0 0"
    ascent="800"
    descent="-200"
    x-height="704"
    cap-height="704"
    bbox="-54 -127 1771 870"
    underline-thickness="50"
    underline-position="-75"
    unicode-range="U+0020-U+2122"
  />
<missing-glyph horiz-adv-x="500" 
 />
    <glyph glyph-name=".notdef" horiz-adv-x="500" 
 />
    <glyph glyph-name="space" unicode=" " horiz-adv-x="204" 
 />
    <glyph glyph-name="space" unicode="&#xa0;" horiz-adv-x="204" 
 />
    <glyph glyph-name="FL0021h" unicode="!" horiz-adv-x="180" 
d="M154 704v-512h-128v512h128zM26 130h128v-130h-128v130z" />
    <glyph glyph-name="FL0022h" unicode="&#x22;" horiz-adv-x="337" 
d="M183 486v218h128v-128c0 -30 -8 -52.5 -24 -67.5s-39 -22.5 -69 -22.5h-35zM26 486v218h128v-128c0 -30 -8 -52.5 -24 -67.5s-39 -22.5 -69 -22.5h-35z" />
    <glyph glyph-name="FL0023h" unicode="#" horiz-adv-x="471" 
d="M26 514v-130h59v-54h-59v-130h59v-200h128v200h45v-200h128v200h59v130h-59v54h59v130h-59v190h-128v-190h-45v190h-128v-190h-59zM213 384h45v-54h-45v54z" />
    <glyph glyph-name="FL0024h" unicode="$" horiz-adv-x="359" 
d="M325 174l-165 400h173v130h-90v70h-128v-70c-28 -0.666992 -49.833 -7.33398 -65.5 -20.001s-23.5 -34 -23.5 -64v-47c0 -6 0.833008 -13.167 2.5 -21.5s3.5 -15.166 5.5 -20.499l165 -401h-173v-130h89v-70h128v70c60 0.666992 90 30.667 90 90v41
c0 8 -1 15.833 -3 23.5z" />
    <glyph glyph-name="FL05C7h" unicode="%" horiz-adv-x="639" 
d="M501 90v207h28v-207h-28zM473 0h84c37.333 -0 56 19.333 56 58v272c0 38 -18.667 57 -56 57h-84c-38 0 -57 -19 -57 -57v-272c0 -38.667 19 -58 57 -58zM463 704h-135l-150 -704h135zM111 407v207h28v-207h-28zM83 317h84c37.333 0 56 19.333 56 58v272
c0 38 -18.667 57 -56 57h-84c-38 0 -57 -19 -57 -57v-272c0 -38.667 19 -58 57 -58z" />
    <glyph glyph-name="FL0026h" unicode="&#x26;" horiz-adv-x="441" 
d="M415 422v-130h-41v-292h-255c-30 0 -53 7.5 -69 22.5s-24 37.5 -24 67.5v185c0 42.667 16.667 70 50 82c-15.333 5.33301 -27.5 14.5 -36.5 27.5s-13.5 29.167 -13.5 48.5v181c0 30 8 52.5 24 67.5s39 22.5 69 22.5h255v-130h-220v-444h92v161h-63v131h232z" />
    <glyph glyph-name="FL0027h" unicode="'" horiz-adv-x="180" 
d="M26 486v218h128v-128c0 -30 -8 -52.5 -24 -67.5s-39 -22.5 -69 -22.5h-35z" />
    <glyph glyph-name="FL0028h" unicode="(" horiz-adv-x="254" 
d="M228 130h-73.999v444h74v130h-109c-28.667 0 -51.334 -6.5 -68.001 -19.5s-25 -34.5 -25 -64.5v-530c0 -30 8 -52.5 24 -67.5s39 -22.5 69 -22.5h109v130z" />
    <glyph glyph-name="FL0029h" unicode=")" horiz-adv-x="254" 
d="M26 130h73.999v444h-74v130h109c28.667 0 51.334 -6.5 68.001 -19.5s25 -34.5 25 -64.5v-530c0 -30 -8 -52.5 -24 -67.5s-39 -22.5 -69 -22.5h-109v130z" />
    <glyph glyph-name="asterisk" unicode="*" horiz-adv-x="228" 
d="M143 746l-2 -49l41 18l20 -64l-41 -15l29 -39l-48 -40l-28 41l-28 -41l-46 40l25 39l-39 15l19 63l41 -17l-2 49h59z" />
    <glyph glyph-name="FL002Bh" unicode="+" horiz-adv-x="312" 
d="M26 422h65v65h130v-65h65v-130h-65v-65h-130v65h-65v130z" />
    <glyph glyph-name="FL002Ch" unicode="," horiz-adv-x="180" 
d="M26 -88v218h128v-128c0 -30 -8 -52.5 -24 -67.5s-39 -22.5 -69 -22.5h-35z" />
    <glyph glyph-name="FL002Dh" unicode="-" horiz-adv-x="235" 
d="M26 422v-130h183v130h-183z" />
    <glyph glyph-name="FL002Eh" unicode="." horiz-adv-x="180" 
d="M26 130h128v-130h-128v130z" />
    <glyph glyph-name="FL002Fh" unicode="/" horiz-adv-x="317" 
d="M301 704h-135l-150 -704h135z" />
    <glyph glyph-name="FL00F8h" unicode="0" horiz-adv-x="409" 
d="M290 704h-171c-30 0 -53 -7.5 -69 -22.5s-24 -37.5 -24 -67.5v-524c0 -30 8 -52.5 24 -67.5s39 -22.5 69 -22.5h171c30 0 53 7.5 69 22.5s24 37.5 24 67.5v524c0 30 -8 52.5 -24 67.5s-39 22.5 -69 22.5zM255 130h-69l69 247v-247zM154 574h69l-69 -247v247z" />
    <glyph glyph-name="FL0031h" unicode="1" horiz-adv-x="258" 
d="M26 704v-130h80v-574h126v704h-206z" />
    <glyph glyph-name="FL0032h" unicode="2" horiz-adv-x="359" 
d="M34 174l-4.99902 -20.5c-2 -8.33301 -3 -16.166 -3 -23.499v-130h307v130h-172l164 401c2 5.33301 3.83301 12.166 5.5 20.499s2.5 15.5 2.5 21.5v47c0 30 -8.33301 51.5 -25 64.5s-39.334 19.5 -68.001 19.5h-214v-130h172z" />
    <glyph glyph-name="FL0033h" unicode="3" horiz-adv-x="359" 
d="M56 422v-130h149v-162h-179v-130h214c30 0 53 7.5 69 22.5s24 37.5 24 67.5v185c0 42.667 -16.667 70 -50 82c15.333 5.33301 27.5 14.5 36.5 27.5s13.5 29.167 13.5 48.5v181c0 30 -8 52.5 -24 67.5s-39 22.5 -69 22.5h-214v-130h179v-152h-149z" />
    <glyph glyph-name="FL0034h" unicode="4" horiz-adv-x="409" 
d="M154 704h-128v-413h229v-291h128v704h-128v-281h-101v281z" />
    <glyph glyph-name="FL0035h" unicode="5" horiz-adv-x="359" 
d="M26 130v-130h214c30 0 53 7.5 69 22.5s24 37.5 24 67.5v242c0 30 -8 52.5 -24 67.5s-39 22.5 -69 22.5h-86v152h179v130h-307v-412h179v-162h-179z" />
    <glyph glyph-name="FL0036h" unicode="6" horiz-adv-x="407" 
d="M288 0c30 0 53.001 7.5 69.001 22.5s24 37.5 24 67.5v243c0 30 -8 52.333 -24 67s-39 22 -69 22h-135v152h228v130h-262c-28.667 0 -51.334 -6.5 -68.001 -19.5s-25 -34.5 -25 -64.5v-530c0 -30 8 -52.5 24 -67.5s39 -22.5 69 -22.5h169zM254.001 292v-162h-101v162h101z
" />
    <glyph glyph-name="FL0037h" unicode="7" horiz-adv-x="359" 
d="M62 0l133 0.000976562l130 531c2 5.33301 3.83301 12.166 5.5 20.499s2.5 15.5 2.5 21.5v131h-307v-130h174z" />
    <glyph glyph-name="FL0039h" unicode="8" horiz-adv-x="412" 
d="M26 614v-181c0 -19.333 4.5 -35.5 13.5 -48.5s21.167 -22.167 36.5 -27.5c-33.333 -12 -50 -39.333 -50 -82v-185c0 -30 8 -52.5 24 -67.5s39 -22.5 69 -22.5h174c30 0 53 7.5 69 22.5s24 37.5 24 67.5v185c0 42.667 -16.667 70 -50 82
c15.333 5.33301 27.5 14.5 36.5 27.5s13.5 29.167 13.5 48.5v181c0 30 -8 52.5 -24 67.5s-39 22.5 -69 22.5h-174c-30 0 -53 -7.5 -69 -22.5s-24 -37.5 -24 -67.5zM154 130v444h104v-152h-75v-131h75v-161h-104z" />
    <glyph glyph-name="FL0038h" unicode="9" horiz-adv-x="407" 
d="M119 704c-30 0 -53.001 -7.5 -69.001 -22.5s-24 -37.5 -24 -67.5v-241c0 -30 8 -52.5 24 -67.5s39 -22.5 69 -22.5h134v-153h-227v-130h262c28.667 0 51.334 6.5 68.001 19.5s25 34.5 25 64.5v530c0 30 -8 52.5 -24 67.5s-39 22.5 -69 22.5h-169zM153.999 413v161h99
v-161h-99z" />
    <glyph glyph-name="FL003Ah" unicode=":" horiz-adv-x="180" 
d="M26 130h128v-130h-128v130zM26 422h128v-130h-128v130z" />
    <glyph glyph-name="FL003Bh" unicode=";" horiz-adv-x="180" 
d="M26 422h128v-130h-128v130zM26 -87v217h128v-127c0 -30 -8 -52.5 -24 -67.5s-39 -22.5 -69 -22.5h-35z" />
    <glyph glyph-name="FL003Ch" unicode="&#x3c;" horiz-adv-x="294" 
d="M16 352l130 -352h132l-124 352l124 352h-132z" />
    <glyph glyph-name="FL0FA0h" unicode="=" horiz-adv-x="262" 
d="M26 340h210v-130h-210v130zM26 504h210v-130h-210v130z" />
    <glyph glyph-name="FL003Eh" unicode="&#x3e;" horiz-adv-x="294" 
d="M278 352l-130 -352h-132l124 352l-124 352h132z" />
    <glyph glyph-name="FL003Fh" unicode="?" horiz-adv-x="359" 
d="M240 704c30 0 53 -7.5 69 -22.5s24 -37.5 24 -67.5v-232c0 -30 -8 -52.5 -24 -67.5s-39 -22.5 -69 -22.5h-50v-100h-128v140c0 30 8 52.5 24 67.5s39 22.5 69 22.5h50v152h-179v130h214zM62 130h128v-130h-128v130z" />
    <glyph glyph-name="FL00A9h" unicode="@" horiz-adv-x="660" 
d="M281 122h260.002c30 0 53 7.5 69 22.5s24 37.5 24 67.5v450c0 30 -8.33301 51.5 -25 64.5s-39.334 19.5 -68.001 19.5h-422c-28.667 0 -51.334 -6.5 -68.001 -19.5s-25 -34.5 -25 -64.5v-614c0 -30 8 -52.5 24 -67.5s39 -22.5 69 -22.5h494v130h-459v528h352v-366h-34
v242c0 30 -8 52.5 -24 67.5s-39 22.5 -69 22.5h-98c-30 0 -53 -7.5 -69 -22.5s-24 -37.5 -24 -67.5v-280c0 -30 8 -52.5 24 -67.5s39 -22.5 69 -22.5zM314.002 454h32v-204h-32v204z" />
    <glyph glyph-name="FL0041h" unicode="A" horiz-adv-x="461" 
d="M173 68l3.99902 7.00586c2.66699 4.66699 4.33398 7.66699 5.00098 9l-1 15l7 7l0.5 1c0.333008 0.666992 0.5 1.33398 0.5 2.00098s-0.166992 1.33398 -0.5 2.00098l-0.5 1v12c0 7.33301 -0.333008 11.333 -1 12l-3 -6v-3c0 -1.33301 -0.333008 -4 -1 -8
s-1.5 -8.16699 -2.5 -12.5s-2.16699 -8.33301 -3.5 -12s-2.33301 -5.5 -3 -5.5l2 28c0.666992 0.666992 1.16699 2.5 1.5 5.5s0.5 4.83301 0.5 5.5v2h-1v45l4 19c4 0.666992 6 4.33398 6 11.001v4l-1 3l-17 -33c-1.33301 -1.33301 -2 -2.66602 -2 -3.99902l2 -15
c0 -4.66699 -1 -7 -3 -7l-2 1l-2 6h-2l6 -16c0 -3.33301 -1 -5 -3 -5h-1c-2 0 -4.66699 3.33301 -8 10s-5 11.667 -5 15c0 1.33301 0.333008 3.16602 1 5.49902s1 4.83301 1 7.5l-4 7c0.666992 4.66699 2 9.16699 4 13.5s3 9.16602 3 14.499
c0 0.666992 -0.166992 1.16699 -0.5 1.5l-0.5 0.5c-0.666992 -1.33301 -1.16699 -3 -1.5 -5s-1.16602 -3.33301 -2.49902 -4l-6 -1.5l-2 -0.5h1c-2 0 -3.33301 -1.33301 -4 -4l-28 -21h-3c-2 0 -3.66699 0.666992 -5 2s-2.66602 2 -3.99902 2
c-2 0 -3.83301 -1.16699 -5.5 -3.5s-2.83398 -4.83301 -3.50098 -7.5l-4 -22h-1l2 25h-13c2 1.33301 4.33301 2.16602 7 2.49902s4.66699 0.833008 6 1.5v1l-7 5h3c4.66699 0 8.33398 1.16699 11.001 3.5s4.83398 4.83301 6.50098 7.5l4.5 7.5c1.33301 2.33301 3 3.5 5 3.5
l7 -1c3.33301 0 6.5 0.666992 9.5 2s5.83301 2.66602 8.5 3.99902l15 14l7 9c2 2 4.83301 4.16699 8.5 6.5s5.5 4.5 5.5 6.5l-1 1l-4 -1l-25 -27c-5.33301 -4 -9.33301 -6 -12 -6l24 24c3.33301 3.33301 6.16602 7 8.49902 11s5.5 7.66699 9.5 11v5l7 20
c-0.666992 0 -2 0.166992 -4 0.5l-3 0.5c-0.666992 0 -1 0.666992 -1 2v2c0 9.33301 2.5 17.666 7.5 24.999s11.167 13.333 18.5 18c1.33301 1.33301 2.66602 3.66602 3.99902 6.99902c2 2 4.66699 3 8 3c4 0 6 0.666992 6 2l-7 31c0 9.33301 2.83301 17.5 8.5 24.5
s13.5 10.5 23.5 10.5c7.33301 0 13 -2.33301 17 -7s6.66699 -10.334 8 -17.001l5 -31c0 -0.666992 -0.333008 -1.5 -1 -2.5l-1 -1.5v-1c0 -2.66699 1.83301 -4.83398 5.5 -6.50098s6.83398 -2.5 9.50098 -2.5s5.66699 2.66699 9 8c1.33301 3.33301 3 9 5 17
s3.66699 12.667 5 14c2.66699 7.33301 4.33398 14.666 5.00098 21.999s1 15 1 23h1c1.33301 0 2.16602 -1.66699 2.49902 -5s1 -6.83301 2 -10.5s2.5 -7.16699 4.5 -10.5s5 -5 9 -5c2 0 4.16699 0.5 6.5 1.5s4.83301 1.5 7.5 1.5c0 -2 -1.5 -4.5 -4.5 -7.5
s-6.16699 -6 -9.5 -9l-10 -9c-3.33301 -3 -5.33301 -5.5 -6 -7.5c-0.666992 0 -1 -1.66699 -1 -5s-0.666992 -5.66602 -2 -6.99902l-6 -16c4.66699 -5.33301 8.83398 -9.16602 12.501 -11.499s6.5 -7.16602 8.5 -14.499l-1 -28l0.5 -1
c0.333008 -0.666992 0.5 -1.33398 0.5 -2.00098h-5v-3c0.666992 -0.666992 1 -1.66699 1 -3v-3l1.5 -2c1 -1.33301 1.5 -2.33301 1.5 -3l1.5 -7.5l0.5 -2.5l2 -9v-11c2 -2 3.16699 -3.5 3.5 -4.5s0.5 -2.5 0.5 -4.5v-3c0 -1.33301 -0.333008 -2.33301 -1 -3l-6 -27
c-2 -1.33301 -3 -3.33301 -3 -6c0 -2 -1.33301 -3.33301 -4 -4v-13c-2.66699 -2.66699 -4.33398 -5.83398 -5.00098 -9.50098s-2.66699 -6.83398 -6 -9.50098h-5l-3 -3l-6 -1c-0.666992 -2 -1.5 -6.5 -2.5 -13.5s-1.5 -11.5 -1.5 -13.5v-18l-4 -20l-4 -51
c-3.33301 -5.33301 -5.83301 -10.333 -7.5 -15s-2.5 -10.334 -2.5 -17.001h178l-148 704h-133l-148 -704h190l-8 24c-0.666992 3.33301 -2.16699 4.66602 -4.5 3.99902s-4.16602 2.33301 -5.49902 9l-5 35c2.66699 0.666992 4.5 2.83398 5.5 6.50098s1.5 7.16699 1.5 10.5
c0 4 -0.666992 6 -2 6c-0.666992 0 -1.33398 -1 -2.00098 -3l1 -6l-7 -13c-0.666992 -0.666992 -1.83398 -1.66699 -3.50098 -3s-2.83398 -2 -3.50098 -2zM237.999 98.0059c-0.666992 -2 -1.66699 -4.83301 -3 -8.5s-2 -6.5 -2 -8.5
c0.666992 -3.33301 1.16699 -6.33301 1.5 -9s0.5 -5 0.5 -7l-1 -9c0.666992 -0.666992 1 -2 1 -4v-37c0 -9.33301 0.333008 -14.333 1 -15h3c-0.666992 0.666992 -1 5 -1 13v20c1.33301 1.33301 2 3.33301 2 6l-2 7c0 2.66699 0.333008 5.16699 1 7.5s1 4.5 1 6.5v35z
M288.999 245.006v-14c0 -7.33301 2.33301 -11 7 -11c0 4.66699 -0.166992 9.5 -0.5 14.5s-1.5 9.5 -3.5 13.5zM132.999 203.006c-3.33301 -2.66699 -8.99902 -5.33105 -16.999 -7.99805s-12 -6.33398 -12 -11.001c3.33301 0 5.5 1.16699 6.5 3.5
s2.83301 4.16602 5.5 5.49902l2 1c3.33301 1.33301 6.16602 2.33301 8.49902 3s4.5 2.66699 6.5 6zM289 203.009l1 -3c1.33301 -1.33301 2 -3.33301 2 -6h2l1 12l-2 2zM160 229.009c-2.66699 -2 -5.49902 -4.5 -8.49902 -7.5s-5.5 -6.5 -7.5 -10.5
c2 2.66699 4.66699 5.5 8 8.5s6.66602 4.83301 9.99902 5.5v2c0 1.33301 -0.666992 2 -2 2z" />
    <glyph glyph-name="FL0042h" unicode="B" 
d="M292 0c30 0 53 7.5 69 22.5s24 37.5 24 67.5v185c0 42.667 -16.667 70 -50 82c15.333 5.33301 27.5 14.5 36.5 27.5s13.5 29.167 13.5 48.5v181c0 30 -8 52.5 -24 67.5s-39 22.5 -69 22.5h-266v-704h266zM183 292h74v-162h-103v444h103v-152h-74v-130z" />
    <glyph glyph-name="FL007Bh" unicode="C" 
d="M154 574v-444h103v125h128v-165c0 -30 -8 -52.5 -24 -67.5s-39 -22.5 -69 -22.5h-173c-30 0 -53 7.5 -69 22.5s-24 37.5 -24 67.5v524c0 30 8 52.5 24 67.5s39 22.5 69 22.5h173c30 0 53 -7.5 69 -22.5s24 -37.5 24 -67.5v-165h-128v125h-103z" />
    <glyph glyph-name="FL0044h" unicode="D" 
d="M292 0c30 0 53 7.5 69 22.5s24 37.5 24 67.5v524c0 30 -8 52.5 -24 67.5s-39 22.5 -69 22.5h-266v-704h266zM154 574h103v-444h-103v444z" />
    <glyph glyph-name="FL0045h" unicode="E" horiz-adv-x="357" 
d="M26 704v-704h305v130h-177v162h147v130h-147v152h177v130h-305z" />
    <glyph glyph-name="FL0046h" unicode="F" horiz-adv-x="357" 
d="M26 704v-704h128v292h147v130h-147v152h177v130h-305z" />
    <glyph glyph-name="FL0047h" unicode="G" horiz-adv-x="407" 
d="M381 0l0.000976562 422h-188v-131h62v-161h-101v444h227v130h-262c-28.667 0 -51.334 -6.5 -68.001 -19.5s-25 -34.5 -25 -64.5v-530c0 -30 8 -52.5 24 -67.5s39 -22.5 69 -22.5h262z" />
    <glyph glyph-name="FL0048h" unicode="H" horiz-adv-x="409" 
d="M154 704h-128v-704h128v291h101v-291h128v704h-128v-281h-101v281z" />
    <glyph glyph-name="FL0049h" unicode="I" horiz-adv-x="180" 
d="M26 704h128v-704h-128v704z" />
    <glyph glyph-name="FL004Ah" unicode="J" horiz-adv-x="347" 
d="M321 90c0 -30 -8 -52.5 -24 -67.5s-39 -22.5 -69 -22.5h-202v130h167v574h128v-614z" />
    <glyph glyph-name="FL004Bh" unicode="K" horiz-adv-x="418" 
d="M154 0h-128v704h128v-704zM182 220v271l84 213h136l-146 -352l146 -352h-136z" />
    <glyph glyph-name="FL004Ch" unicode="L" horiz-adv-x="347" 
d="M26 704h128v-574h167v-130h-295v704z" />
    <glyph glyph-name="FL004Dh" unicode="M" horiz-adv-x="485" 
d="M26 704h118l98 -259l103 259h114v-704h-128v365l-89 -218l-89 218v-365h-127v704z" />
    <glyph glyph-name="FL004Eh" unicode="N" horiz-adv-x="408" 
d="M278 0h104v704h-127v-340l-125 340h-104v-704h127v307z" />
    <glyph glyph-name="FL004Fh" unicode="O" 
d="M292 0h-173c-30 0 -53 7.5 -69 22.5s-24 37.5 -24 67.5v524c0 30 8 52.5 24 67.5s39 22.5 69 22.5h173c30 0 53 -7.5 69 -22.5s24 -37.5 24 -67.5v-524c0 -30 -8 -52.5 -24 -67.5s-39 -22.5 -69 -22.5zM162 165c0 -1.33301 0.492188 -4.50293 1.49219 -9.50293
s1.83301 -8.83301 2.5 -11.5c2.66699 -4 4.33398 -9.33301 5.00098 -16v-4c0 -2.66699 0.333008 -4.33398 1 -5.00098l3 -8h39v3c0.666992 7.33301 1.33398 13 2.00098 17s1.66699 9 3 15c0 2.66699 0.333008 4 1 4c0.666992 2 1.5 3.83301 2.5 5.5
s1.83301 3.83398 2.5 6.50098l1 2.5c0.666992 1.66699 1.33398 2.5 2.00098 2.5h2c3.33301 2 5 4.33301 5 7l2 10v1c1.33301 0 2.5 -0.5 3.5 -1.5l1.5 -1.5c0 -2.66699 -0.666992 -4.66699 -2 -6s-2 -2.66602 -2 -3.99902l3 3l4 -3c1.33301 0 3.33301 2.33301 6 7
c0 -2.66699 1 -4 3 -4c1.33301 0 2 0.333008 2 1v-1h5l5 -7c2 -2 3 -5.66699 3 -11c1.33301 0 2 -1 2 -3h2h1v1c-1.33301 0 -2 0.666992 -2 2v5l4 7c0.666992 0 1 -0.666992 1 -2c0 -0.666992 0.666992 -1 2 -1l5 3c0.666992 0 1 -0.666992 1 -2h4c1.33301 0 2 0.333008 2 1
v1v3v1c0.666992 0 1 0.666992 1 2c-1.33301 1.33301 -2.33301 1.83301 -3 1.5s-2 0.5 -4 2.5l1 2c0.666992 0 0.833984 0.166992 0.500977 0.5l-0.5 0.5c2.66699 0 3.83398 0.5 3.50098 1.5s0.5 1.83301 2.5 2.5c0 0.666992 0.333008 0.666992 1 0l1 -1v-1
c0.666992 0.666992 1.16699 1.5 1.5 2.5s1.16602 1.5 2.49902 1.5s2.16602 -0.5 2.49902 -1.5l0.5 -1.5l1 0.5c0.666992 0.333008 1 0.833008 1 1.5s-0.333008 1.16699 -1 1.5s-1 1.16602 -1 2.49902c-0.666992 0.666992 -1.33398 2.33398 -2.00098 5.00098
s-1 4.33398 -1 5.00098c1.33301 1.33301 2 3.66602 2 6.99902s-1 6.5 -3 9.5s-3.33301 5.83301 -4 8.5v1l4 -3l-1 11c0 1.33301 0.166992 2.33301 0.5 3s0.5 1.33398 0.5 2.00098v2l-3 6c-1.33301 4.66699 -3 8.66699 -5 12s-3 5.66602 -3 6.99902
c0 4.66699 -2 7.66699 -6 9l-8.5 14c-2.33301 4 -4.83301 8.66699 -7.5 14c-1.33301 8.66699 -2.5 14.5 -3.5 17.5s-1.5 3.5 -1.5 1.5c-5.33301 11.333 -9.33301 22.333 -12 33s-6 22.334 -10 35.001v4c0 1.33301 1.33301 2 4 2h1c0 -1.33301 1.33301 -3.33301 4 -6
c0.666992 -0.666992 1 -2.66699 1 -6c0 -4.66699 2 -9 6 -13l16 -32l0.5 -0.5c0.333008 -0.333008 0.5 -0.833008 0.5 -1.5l-1 -1v-6c0 -1.33301 -0.166992 -4.66602 -0.5 -9.99902s-1.16602 -9 -2.49902 -11v-1c0 -2.66699 1.33301 -4 4 -4c-0.666992 0 0 1 2 3l2 2l-3 -12
l1 -7c1.33301 2 2.33301 3.83301 3 5.5s1.66699 3.16699 3 4.5c2 3.33301 3.83301 6.16602 5.5 8.49902s4.16699 4.83301 7.5 7.5v4c0 2.66699 -0.5 5.16699 -1.5 7.5s-1.5 5.16602 -1.5 8.49902c0 1.33301 0.166992 2.16602 0.5 2.49902s0.5 0.833008 0.5 1.5l-1 6
c0 8 -1 16.167 -3 24.5s-3.66699 16.5 -5 24.5c0 0.666992 -0.333008 1 -1 1c0 0.666992 -0.333008 1 -1 1s-1.16699 -0.333008 -1.5 -1s-1.16602 -1 -2.49902 -1s-2 0.666992 -2 2v4l16 2c0.666992 0.666992 3 1 7 1h3c2.66699 -1.33301 4.33398 -2.83301 5.00098 -4.5
s2 -2.83398 4 -3.50098l5 -2c3.33301 -1.33301 5.33301 -3.5 6 -6.5s1 -6.16699 1 -9.5c0 -5.33301 -1.5 -9 -4.5 -11s-4.5 -3.66699 -4.5 -5v-1h1c2 0.666992 3.83301 1.5 5.5 2.5s3.16699 1.83301 4.5 2.5c2.66699 2.66699 4 6.33398 4 11.001l1 10
c0.666992 0.666992 1 3.33398 1 8.00098c0 1.33301 -0.333008 2.33301 -1 3s-1 1.66699 -1 3v9l-4 2l-2 2l-2 2c-5.33301 2.66699 -9.33301 6.66699 -12 12c-2 2 -4.66699 4.5 -8 7.5s-7 5.83301 -11 8.5c-1.33301 0.666992 -4.33301 2.33398 -9 5.00098
s-7.66699 4.66699 -9 6l-2 1c0 7.33301 -1.33301 16.166 -4 26.499s-7.66699 17.5 -15 21.5l-1 0.5c-0.666992 0.333008 -1.33398 0.833008 -2.00098 1.5c1.33301 8 3.33301 15.5 6 22.5s7 12.5 13 16.5c1.33301 1.33301 4.5 3.5 9.5 6.5s8.16699 5.16699 9.5 6.5l4 4
c1.33301 1.33301 2 3 2 5c0 0.666992 -1 1 -3 1s-4 -0.166992 -6 -0.5s-3.66699 -0.5 -5 -0.5c-9.33301 0 -14.333 5 -15 15v15c0 4 -1 6 -3 6c-1.33301 0 -2.16602 -1.5 -2.49902 -4.5l-0.5 -4.5v-5c0 -1.33301 -0.333008 -2.33301 -1 -3
c-0.666992 -1.33301 -1.33398 -4 -2.00098 -8s-1 -6.66699 -1 -8c-1.33301 -9.33301 -3.5 -19.333 -6.5 -30s-7.16699 -20.667 -12.5 -30h-1c-1.33301 0 -2 0.666992 -2 2c0 2 -0.666992 3.66699 -2 5c-0.666992 0.666992 -2 1.16699 -4 1.5s-3 1.16602 -3 2.49902v27
c0.666992 0.666992 1 1.66699 1 3l-1 12c-0.666992 1.33301 -1.16699 1.83301 -1.5 1.5s-0.833008 -0.166016 -1.5 0.500977c-1.33301 5.33301 -3.5 10.333 -6.5 15s-7.16699 8 -12.5 10h-5c-1.33301 1.33301 -2.66602 2 -3.99902 2l-5 -1l-3 -2
c-4 -1.33301 -7 -2.66602 -9 -3.99902s-4 -5.33301 -6 -12c-0.666992 -0.666992 -1 -2 -1 -4c0 -0.666992 -0.333008 -1.33398 -1 -2.00098c0 -0.666992 -0.333008 -1 -1 -1c-2.66699 -0.666992 -4 -2.33398 -4 -5.00098v-10v-13c0 -8 0.333008 -12.333 1 -13l1 -3
c-0.666992 -0.666992 -1.66699 -1 -3 -1s-2.66602 -0.666992 -3.99902 -2c-0.666992 -0.666992 -1.33398 -1.5 -2.00098 -2.5s-1.33398 -1.5 -2.00098 -1.5h-4h-1v-1l-3 -2c-2.66699 -1.33301 -4.83398 -2.33301 -6.50098 -3s-3.16699 -1.66699 -4.5 -3l-12 -13l-6 -4.5
c-1.33301 -1 -2 -3.5 -2 -7.5c-0.666992 -0.666992 -1 -4.66699 -1 -12v-14c0 -2 0.333008 -3.66699 1 -5s1 -3.33301 1 -6v-2c-0.666992 -4 -1.16699 -7.83301 -1.5 -11.5s-0.5 -7.16699 -0.5 -10.5s-0.666992 -4.5 -2 -3.5s-2 -3.16699 -2 -12.5
c-1.33301 -4 -3.33301 -6.16699 -6 -6.5s-4 -3.5 -4 -9.5v-9c0.666992 -1.33301 1.33398 -2.16602 2.00098 -2.49902s1 -1.16602 1 -2.49902l3 -18c0.666992 -1.33301 1.66699 -2.5 3 -3.5s2.33301 -2.5 3 -4.5c1.33301 -5.33301 2 -7.66602 2 -6.99902v-5v-2l1 1
c1.33301 -1.33301 2 -2.66602 2 -3.99902c0 -2 0.333008 -3.33301 1 -4c1.33301 -0.666992 2.83301 -1.83398 4.5 -3.50098s3.16699 -2.5 4.5 -2.5c2 0 3 0.333008 3 1c2 -1.33301 4 -3.16602 6 -5.49902s3 -5.16602 3 -8.49902l2 -23v-17l-1 -5
c-0.666992 0 -1.66699 -2.16699 -3 -6.5s-2.33301 -7.5 -3 -9.5c-2 -3.33301 -4.16699 -6.16602 -6.5 -8.49902s-4.16602 -5.5 -5.49902 -9.5l-0.5 -0.5c-0.333008 -0.333008 -0.5 -0.833008 -0.5 -1.5l-12 -38c0 -0.666992 -0.166992 -1.16699 -0.5 -1.5
s-0.5 -0.833008 -0.5 -1.5l-4 -12c-0.666992 -0.666992 -1 -1.33398 -1 -2.00098v-1v-1c0 -1.33301 1 -2 3 -2l2 2l19 56c0 2.66699 1 4 3 4c3.33301 0 5 -1.33301 5 -4c-1.33301 -3.33301 -2.66602 -7 -3.99902 -11s-2.66602 -7.66699 -3.99902 -11
c-0.666992 -1.33301 -1.5 -2.83301 -2.5 -4.5s-1.5 -3.83398 -1.5 -6.50098l-9 -27l1 -2c0.666992 0 1 0.333008 1 1c0 1.33301 0.333008 2.33301 1 3l23 53c0.666992 0.666992 1 3 1 7v17l1 11l3 1c0 1.33301 0.666992 2.33301 2 3l2 1v4c0.666992 0 1 -0.666992 1 -2v-7
c0.666992 -8 4 -14.333 10 -19l2 -13l-12 -8v-14v-5c0 -2 0.333008 -3.33301 1 -4l2 -3v-4l0.5 -1c0.333008 -0.666992 0.5 -1.33398 0.5 -2.00098l1 -3c0 -1.33301 0.333008 -3.5 1 -6.5s1.33398 -3.83301 2.00098 -2.5l2 -3l3 -2c2 0 3.66699 -0.666992 5 -2z
M127.992 362.997l1.00195 28.9961c0.666992 2 1.16699 3.83301 1.5 5.5s1.16602 3.5 2.49902 5.5c1.33301 -1.33301 2 -2.33301 2 -3v-2c0.666992 -3.33301 1.16699 -7.16602 1.5 -11.499s2.16602 -8.16602 5.49902 -11.499c0 -4.66699 -1.16699 -8 -3.5 -10
s-3.5 -4 -3.5 -6v-3h-1c-0.666992 0 -1 -0.666992 -1 -2s0.333008 -3 1 -5s0.666992 -2.66699 0 -2v-7h-1v-4c-2.66699 2.66699 -4 6.33398 -4 11.001v1c0 1.33301 0.333008 2 1 2v9c0 0.666992 -0.333008 1 -1 1c0 0.666992 -0.166992 1.33398 -0.5 2.00098z
M270.994 240.993c0 0.666992 0.166016 1.16699 0.499023 1.5l0.5 0.5c0 1.33301 0.333008 3.16602 1 5.49902s1.33398 4.16602 2.00098 5.49902h1c2 -3.33301 3.33301 -7.16602 4 -11.499s1 -8.16602 1 -11.499v-7h-1c-2.66699 0 -4 1.33301 -4 4h-2
c-1.33301 1.33301 -2 4 -2 8zM265.993 257.993v3l5 1v-2c0 -2.66699 -0.666992 -4.66699 -2 -6c-2 0.666992 -3 2 -3 4z" />
    <glyph glyph-name="FL0050h" unicode="P" 
d="M26 704v-704h128v574h104v-152h-75v-130h109c30 0 53 7.5 69 22.5s24 37.5 24 67.5v232c0 30 -8 52.5 -24 67.5s-39 22.5 -69 22.5h-266z" />
    <glyph glyph-name="FL0051h" unicode="Q" 
d="M154 130v444h103v-386zM119 0h22l31 -88h133l-31 88h18c30 0 53 7.5 69 22.5s24 37.5 24 67.5v524c0 30 -8 52.5 -24 67.5s-39 22.5 -69 22.5h-173c-30 0 -53 -7.5 -69 -22.5s-24 -37.5 -24 -67.5v-524c0 -30 8 -52.5 24 -67.5s39 -22.5 69 -22.5z" />
    <glyph glyph-name="FL0052h" unicode="R" 
d="M292 704l-266 0.000976562v-704h128v574h103v-152h-74v-145l91 -277h132l-99 294c22 1.33301 40.5 7.16602 55.5 17.499s22.5 27.5 22.5 51.5v251c0 30 -8 52.5 -24 67.5s-39 22.5 -69 22.5z" />
    <glyph glyph-name="FL0053h" unicode="S" horiz-adv-x="359" 
d="M26 130v-130h214c30 0 53 7.5 69 22.5s24 37.5 24 67.5v242c0 30 -8 52.5 -24 67.5s-39 22.5 -69 22.5h-86v152h179v130h-214c-30 0 -53 -7.5 -69 -22.5s-24 -37.5 -24 -67.5v-232c0 -30 8 -52.5 24 -67.5s39 -22.5 69 -22.5h86v-162h-179z" />
    <glyph glyph-name="FL0056h" unicode="T" horiz-adv-x="384" 
d="M358 704h-332v-130h102v-574h128v574h102v130z" />
    <glyph glyph-name="FL0057h" unicode="U" 
d="M119 0h173c30 0 53 7.5 69 22.5s24 37.5 24 67.5v614h-128v-574h-103v574h-128v-614c0 -30 8 -52.5 24 -67.5s39 -22.5 69 -22.5z" />
    <glyph glyph-name="FL0058h" unicode="V" horiz-adv-x="461" 
d="M445 704h-136l-79 -387l-78 387h-136l148 -704h133z" />
    <glyph glyph-name="FL007Dh" unicode="W" horiz-adv-x="485" 
d="M26 0h118l98 259l103 -259h114v704h-128v-365l-89 218l-89 -218v365h-127v-704z" />
    <glyph glyph-name="FL005Ah" unicode="X" horiz-adv-x="418" 
d="M16 704l124 -352l-124 -352h132l61 180l61 -180h132l-124 352l124 352h-132l-61 -180l-61 180h-132z" />
    <glyph glyph-name="FL005Bh" unicode="Y" horiz-adv-x="418" 
d="M148 704h-132l128 -351v-353h128v352l130 352h-132l-61 -180z" />
    <glyph glyph-name="FL005Fh" unicode="Z" horiz-adv-x="359" 
d="M34 174l-5 -20.999c-2 -8.66699 -3 -16 -3 -22v-131h307v130h-172l164 401c2 5.33301 3.83301 12.166 5.5 20.499s2.5 15.5 2.5 21.5v131h-307v-130h172z" />
    <glyph glyph-name="FL005Eh" unicode="[" horiz-adv-x="254" 
d="M228 130h-74v444h74v130h-202v-704h202v130z" />
    <glyph glyph-name="FL005Ch" unicode="\" horiz-adv-x="317" 
d="M16 704h135l150 -704h-135z" />
    <glyph glyph-name="FL005Dh" unicode="]" horiz-adv-x="254" 
d="M26 130h74v444h-74v130h202v-704h-202v130z" />
    <glyph glyph-name="FL0060h" unicode="^" horiz-adv-x="461" 
d="M445 0h-428l148 704h132zM282 130l-52 258l-51 -258h103z" />
    <glyph glyph-name="FL0069h" unicode="_" horiz-adv-x="327" 
d="M26 97h275v-130h-275v130z" />
    <glyph glyph-name="FL0061h" unicode="`" horiz-adv-x="172" 
d="M91 870h-128l63 -130h120z" />
    <glyph glyph-name="a" unicode="a" horiz-adv-x="461" 
d="M445 0h-136l-79 387l-77 -387h-137l149 704h132z" />
    <glyph glyph-name="FL0062h" unicode="b" 
d="M292 0c30 0 53 7.5 69 22.5s24 37.5 24 67.5v185c0 42.667 -16.667 70 -50 82c15.333 5.33301 27.5 14.5 36.5 27.5s13.5 29.167 13.5 48.5v181c0 30 -8 52.5 -24 67.5s-39 22.5 -69 22.5h-266v-704h266zM183 292h74v-162h-103v444h103v-152h-74v-130z" />
    <glyph glyph-name="FL0063h" unicode="c" horiz-adv-x="357" 
d="M331 130h-176.999v444h177v130h-212c-28.667 0 -51.334 -6.5 -68.001 -19.5s-25 -34.5 -25 -64.5v-530c0 -30 8 -52.5 24 -67.5s39 -22.5 69 -22.5h212v130z" />
    <glyph glyph-name="FL0064h" unicode="d" 
d="M292 0c30 0 53 7.5 69 22.5s24 37.5 24 67.5v524c0 30 -8 52.5 -24 67.5s-39 22.5 -69 22.5h-266v-704h266zM154 574h103v-444h-103v444z" />
    <glyph glyph-name="FL0065h" unicode="e" horiz-adv-x="357" 
d="M26 704v-704h305v130h-177v162h147v130h-147v152h177v130h-305z" />
    <glyph glyph-name="FL0066h" unicode="f" horiz-adv-x="357" 
d="M26 704v-704h128v292h147v130h-147v152h177v130h-305z" />
    <glyph glyph-name="FL0067h" unicode="g" horiz-adv-x="407" 
d="M381 0l0.000976562 422h-188v-131h62v-161h-101v444h227v130h-262c-28.667 0 -51.334 -6.5 -68.001 -19.5s-25 -34.5 -25 -64.5v-530c0 -30 8 -52.5 24 -67.5s39 -22.5 69 -22.5h262z" />
    <glyph glyph-name="FL0068h" unicode="h" horiz-adv-x="409" 
d="M154 704h-128v-704h128v291h101v-291h128v704h-128v-281h-101v281z" />
    <glyph glyph-name="i" unicode="i" horiz-adv-x="180" 
d="M26 704h128v-704h-128v704z" />
    <glyph glyph-name="FL006Ah" unicode="j" horiz-adv-x="347" 
d="M321 90c0 -30 -8 -52.5 -24 -67.5s-39 -22.5 -69 -22.5h-202v130h167v574h128v-614z" />
    <glyph glyph-name="FL006Ch" unicode="k" horiz-adv-x="418" 
d="M154 0v289l112 -289h136l-146 352l146 352h-136l-112 -280v280h-128v-704h128z" />
    <glyph glyph-name="l" unicode="l" horiz-adv-x="347" 
d="M26 704h128v-574h167v-130h-295v704z" />
    <glyph glyph-name="m" unicode="m" horiz-adv-x="485" 
d="M26 704h118l98 -259l103 259h114v-704h-128v365l-89 -218l-89 218v-365h-127v704z" />
    <glyph glyph-name="FL006Eh" unicode="n" horiz-adv-x="408" 
d="M278 0h104v704h-127v-340l-125 340h-104v-704h127v307z" />
    <glyph glyph-name="FL006Fh" unicode="o" 
d="M119 0h173c30 0 53 7.5 69 22.5s24 37.5 24 67.5v524c0 30 -8 52.5 -24 67.5s-39 22.5 -69 22.5h-173c-30 0 -53 -7.5 -69 -22.5s-24 -37.5 -24 -67.5v-524c0 -30 8 -52.5 24 -67.5s39 -22.5 69 -22.5zM154 574h103v-444h-103v444z" />
    <glyph glyph-name="FL0070h" unicode="p" 
d="M26 704v-704h128v574h104v-152h-75v-130h109c30 0 53 7.5 69 22.5s24 37.5 24 67.5v232c0 30 -8 52.5 -24 67.5s-39 22.5 -69 22.5h-266z" />
    <glyph glyph-name="FL0071h" unicode="q" 
d="M154 130v444h103v-444h-103zM119 0h22l31 -88h133l-31 88h18c30 0 53 7.5 69 22.5s24 37.5 24 67.5v524c0 30 -8 52.5 -24 67.5s-39 22.5 -69 22.5h-173c-30 0 -53 -7.5 -69 -22.5s-24 -37.5 -24 -67.5v-524c0 -30 8 -52.5 24 -67.5s39 -22.5 69 -22.5z" />
    <glyph glyph-name="FL0072h" unicode="r" 
d="M292 704l-266 0.000976562v-704h128v574h103v-152h-74v-145l91 -277h132l-99 294c22 1.33301 40.5 7.16602 55.5 17.499s22.5 27.5 22.5 51.5v251c0 30 -8 52.5 -24 67.5s-39 22.5 -69 22.5z" />
    <glyph glyph-name="FL0073h" unicode="s" horiz-adv-x="359" 
d="M325 174l4.99902 -19.499c2 -7.66699 3 -15.5 3 -23.5v-41c0 -30 -8 -52.5 -24 -67.5s-39 -22.5 -69 -22.5h-214v130h173l-165 401c-2 5.33301 -3.83301 12.166 -5.5 20.499s-2.5 15.5 -2.5 21.5v47c0 30 8.33301 51.5 25 64.5s39.334 19.5 68.001 19.5h214v-130h-173z
" />
    <glyph glyph-name="FL0074h" unicode="t" horiz-adv-x="382" 
d="M356 704h-330v-130h101v-574h128v574h101v130z" />
    <glyph glyph-name="FL0075h" unicode="u" 
d="M119 0h173c30 0 53 7.5 69 22.5s24 37.5 24 67.5v614h-128v-574h-103v574h-128v-614c0 -30 8 -52.5 24 -67.5s39 -22.5 69 -22.5z" />
    <glyph glyph-name="FL0076h" unicode="v" horiz-adv-x="461" 
d="M445 704h-136l-79 -387l-78 387h-136l148 -704h133z" />
    <glyph glyph-name="FL0059h" unicode="w" horiz-adv-x="630" 
d="M614 704h-136l-67 -311l-48 311h-95l-51 -311l-65 311h-136l148 -704h102l44 278l55 -278h101z" />
    <glyph glyph-name="FL0079h" unicode="x" horiz-adv-x="418" 
d="M16 704l124 -352l-124 -352h132l61 180l61 -180h132l-124 352l124 352h-132l-61 -180l-61 180h-132z" />
    <glyph glyph-name="FL0078h" unicode="y" horiz-adv-x="418" 
d="M148 704h-132l128 -351v-353h128v352l130 352h-132l-61 -180z" />
    <glyph glyph-name="FL007Ah" unicode="z" horiz-adv-x="359" 
d="M34 174l-5 -20.999c-2 -8.66699 -3 -16 -3 -22v-131h307v130h-172l164 401c2 5.33301 3.83301 12.166 5.5 20.499s2.5 15.5 2.5 21.5v131h-307v-130h172z" />
    <glyph glyph-name="FL0036" unicode="{" horiz-adv-x="1166" 
d="M747 84c1.33301 -1.33301 3.82715 -3.49805 7.49414 -6.49805l12 -10l12.5 -10.5c4 -3.33301 6.66699 -5.66602 8 -6.99902l10 -4c12.667 -10.667 25.834 -20.334 39.501 -29.001s28.167 -14.334 43.5 -17.001h6c6.66699 0 16.5 1.16699 29.5 3.5s25.833 6 38.5 11
s23.834 11.167 33.501 18.5s14.5 16 14.5 26l-5 69c0 -1.33301 0.5 0 1.5 4s2.16699 10.667 3.5 20l8 88c0 1.33301 0.666992 2 2 2l1 -0.5c0.666992 -0.333008 1.33398 -0.833008 2.00098 -1.5l18.5 -11.5c5.66699 -3.66699 12.167 -5.5 19.5 -5.5l17 5
c1.33301 0 2.5 -0.333008 3.5 -1s2.16699 -1 3.5 -1l20 2l9 -5c1.33301 -1.33301 2.16602 -2.5 2.49902 -3.5s1.16602 -2.16699 2.49902 -3.5l9 -4.5l9 -4.5h3c5.33301 0 8 3 8 9c0 7.33301 -3.66699 11.5 -11 12.5s-13.333 2.16699 -18 3.5
c-5.33301 1.33301 -9 3.16602 -11 5.49902s-4.66699 4.83301 -8 7.5c-0.666992 0.666992 -1.66699 1.16699 -3 1.5s-2.66602 1.16602 -3.99902 2.49902l-4 3l-1 2.5c-0.666992 1.66699 -1 2.83398 -1 3.50098l-2 4c-0.666992 1.33301 -1 2.33301 -1 3
c-4.66699 5.33301 -9.33398 9.16602 -14.001 11.499s-10 5.83301 -16 10.5c-3.33301 3.33301 -5 9.33301 -5 18v12c0 4 -0.666992 6.66699 -2 8c-2 0.666992 -5.83301 2.16699 -11.5 4.5l-18 7.5c-6.33301 2.66699 -12.166 5 -17.499 7s-9 3.33301 -11 4
c-0.666992 0.666992 -3.66699 2.33398 -9 5.00098s-9 4.66699 -11 6c0 0.666992 -0.666992 1.33398 -2 2.00098l-2 1c-1.33301 2 -4 5.16699 -8 9.5s-8.33301 8.66602 -13 12.999l-13 12.5l-9 9c-0.666992 0 -2.16699 0.833008 -4.5 2.5s-4.83301 3.66699 -7.5 6
s-5.16699 4.33301 -7.5 6s-3.83301 2.5 -4.5 2.5c-1.33301 0 -2 0.666992 -2 2v7c0 4 1 7.66699 3 11s4.33301 7 7 11l17 29c0.666992 2 2.33398 3 5.00098 3l69 -11h6c22.667 0 42 6.33301 58 19s30 27.667 42 45c1.33301 7.33301 2.5 13 3.5 17s1.5 6.66699 1.5 8v34
c-4 24.667 -15 44 -33 58s-39 24.333 -63 31s-48.667 10.834 -74 12.501s-47.333 2.5 -66 2.5h-30c-24 -5.33301 -44.5 -15.5 -61.5 -30.5s-25.5 -34.833 -25.5 -59.5l5 -36c0 -2 -0.333008 -3 -1 -3c-2 0 -3.33301 -0.333008 -4 -1c-4 0 -10 -1 -18 -3s-12.667 -3 -14 -3
l-50 -6c-2.66699 0 -4.66699 -0.666992 -6 -2h-8c-5.33301 0 -11.333 -0.333008 -18 -1s-11.334 -1 -14.001 -1c-1.33301 0 -4.66602 -0.5 -9.99902 -1.5s-8.33301 -1.5 -9 -1.5h-4c-5.33301 0 -10.166 1.16699 -14.499 3.5s-8.83301 3.5 -13.5 3.5
c-5.33301 0 -10.833 -0.833008 -16.5 -2.5s-11.5 -3.16699 -17.5 -4.5c-3.33301 -0.666992 -9.16602 -1.66699 -17.499 -3s-17.166 -2.83301 -26.499 -4.5s-18.166 -3 -26.499 -4s-14.166 -1.5 -17.499 -1.5c-4.66699 -1.33301 -10.167 -1.83301 -16.5 -1.5
s-11.166 -1.16699 -14.499 -4.5l-14 -13c-3.33301 -3.33301 -7.33301 -5.5 -12 -6.5s-8.66699 -2.16699 -12 -3.5l-76 -14c-0.666992 0.666992 -1.83398 1.5 -3.50098 2.5s-3.16699 1.83301 -4.5 2.5l-29 25c-9.33301 6 -19.166 11.333 -29.499 16s-20.5 9.66699 -30.5 15
c-11.333 6.66699 -22.5 12.834 -33.5 18.501s-23.167 8.5 -36.5 8.5c-15.333 0 -29.5 -3.16699 -42.5 -9.5s-24.333 -14.666 -34 -24.999s-17.334 -22.5 -23.001 -36.5s-8.5 -28.667 -8.5 -44c0 -24 6.33301 -45.333 19 -64c4 -7.33301 9.83301 -14.833 17.5 -22.5
s16 -15.167 25 -22.5s18.167 -14.166 27.5 -20.499s18 -11.5 26 -15.5c4 -2 8.33301 -3.33301 13 -4s9 -2.33398 13 -5.00098c3.33301 -5.33301 9 -12 17 -20s15.667 -14.333 23 -19h9c2 0 5.33301 0.166992 10 0.5s9.5 1 14.5 2s9.5 2.16699 13.5 3.5s6 2.66602 6 3.99902
v2l-7 12v2c5.33301 2 8.66602 3.83301 9.99902 5.5s2 3.16699 2 4.5v2c0 0.666992 1 2.66699 3 6c2 1.33301 5 3.16602 9 5.49902s7.33301 4.5 10 6.5l27 26h6c8.66699 0 16.834 -0.5 24.501 -1.5s15.167 -2.16699 22.5 -3.5c9.33301 -1.33301 16.166 -6.5 20.499 -15.5
s8.83301 -17.167 13.5 -24.5l32 -48c4.66699 -6 8.33398 -12.833 11.001 -20.5s5.5 -15.334 8.5 -23.001s6.66699 -14.834 11 -21.501s10.166 -12.334 17.499 -17.001c17.333 -10 34.166 -19.167 50.499 -27.5s33.166 -15.5 50.499 -21.5l14.5 -6.5
c5 -2.33301 10.167 -3.5 15.5 -3.5c3.33301 0 6.33301 0.833008 9 2.5s5.33398 2.5 8.00098 2.5s4.66699 -0.5 6 -1.5s3.33301 -2.16699 6 -3.5c4 -1.33301 11 -5.66602 21 -12.999s19 -13 27 -17c1.33301 -1.33301 2.33301 -2.16602 3 -2.49902
s1.33398 -0.833008 2.00098 -1.5c1.33301 0 2.66602 -0.666992 3.99902 -2l3 -1.5l1 -0.5l4 -2c1.33301 -0.666992 2.33301 -1 3 -1h38z" />
    <glyph glyph-name="FL007Ch" unicode="|" horiz-adv-x="180" 
d="M26 792h128v-880h-128v880z" />
    <glyph glyph-name="FL0037" unicode="}" horiz-adv-x="374" 
d="M109 86l4.00293 -15.501c2 -7.66699 3.33301 -13.167 4 -16.5c1.33301 -4 2.66602 -8.66699 3.99902 -14l4 -16v-7c0 -3.33301 0.333008 -5.33301 1 -6c0 -2 0.833008 -3.83301 2.5 -5.5s2.5 -3.5 2.5 -5.5h61v4c0.666992 9.33301 1.83398 18 3.50098 26l5.5 26
c0.666992 0.666992 1.16699 2 1.5 4s0.833008 3.33301 1.5 4c1.33301 2.66699 2.66602 5 3.99902 7s2.66602 4.66699 3.99902 8c0 0.666992 0.166992 2.66699 0.5 6s1.16602 5 2.49902 5h1l0.5 -0.5c0.333008 -0.333008 0.833008 -0.5 1.5 -0.5l1 1
c3.33301 2.66699 5.66602 6 6.99902 10l4 12v1c1.33301 0 3 -0.5 5 -1.5s3 -1.83301 3 -2.5c0 -3.33301 -1.16699 -5.66602 -3.5 -6.99902s-3.5 -3 -3.5 -5c0.666992 0 1.33398 0.5 2.00098 1.5s1.66699 1.5 3 1.5s2.16602 -0.5 2.49902 -1.5s1.16602 -1.5 2.49902 -1.5
c5.33301 0 9 3.33301 11 10c0 -4 1.66699 -6 5 -6c1.33301 0 2 0.333008 2 1l0.5 -1c0.333008 -0.666992 0.833008 -1 1.5 -1s1.33398 0.166992 2.00098 0.5l1 0.5c2 0 3 -0.333008 3 -1l8 -9c2 -2.66699 3.16699 -5.33398 3.5 -8.00098s0.833008 -6 1.5 -10
c2 0 3 -1.33301 3 -4h1h1v1c0.666992 0 1.16699 -0.166992 1.5 -0.5s0.833008 -0.5 1.5 -0.5h1v1c-1.33301 0.666992 -2.33301 2 -3 4s-1 3.66699 -1 5v1l2 1c0.666992 0.666992 1.5 2.66699 2.5 6s1.83301 5 2.5 5c1.33301 0 2.16602 -0.666992 2.49902 -2
s1.16602 -2 2.49902 -2c0.666992 0 1.16699 0.166992 1.5 0.5l0.5 0.5c2 2 4 3.33301 6 4c1.33301 0 2 -1 2 -3h6c1.33301 0 2 1 2 3c0 0.666992 -0.166992 1.16699 -0.5 1.5s-0.5 0.833008 -0.5 1.5c0 1.33301 0.333008 2 1 2c1.33301 0 2 0.666992 2 2l-3 1.5l-1 0.5
c-1.33301 0 -3.33301 1.33301 -6 4v1l2 1c0.666992 0 0.833984 0.333008 0.500977 1l-0.5 1c3.33301 0 4.83301 0.666992 4.5 2s0.5 2.66602 2.5 3.99902c0.666992 0.666992 1.33398 0.666992 2.00098 0l1 -1v-4c0.666992 0 1 0.333008 1 1
c0.666992 1.33301 1.16699 2.83301 1.5 4.5s1.83301 2.5 4.5 2.5s4 -2 4 -6c2 0 3 1.33301 3 4c0 1.33301 -0.333008 2.16602 -1 2.49902s-1.33398 1.16602 -2.00098 2.49902c-1.33301 1.33301 -2.33301 3.66602 -3 6.99902s-1 5.66602 -1 6.99902l1.5 7.5
c0.333008 1.66699 0.5 2.83398 0.5 3.50098c0 4.66699 -1.33301 9.16699 -4 13.5s-4.66699 8.16602 -6 11.499v1v1l4 -5h2c0 2.66699 -0.166992 5.16699 -0.5 7.5s-0.5 4.83301 -0.5 7.5s0.166992 4.5 0.5 5.5s0.5 2.16699 0.5 3.5v1v2l-4 7c-2.66699 6 -5.5 12 -8.5 18
s-6.83301 12 -11.5 18v1c1.33301 -1.33301 2.66602 -2.5 3.99902 -3.5s2.66602 -2.16699 3.99902 -3.5v1c0 3.33301 -1.16699 6 -3.5 8s-4.16602 3.66699 -5.49902 5l-15 20c-4.66699 6 -8.66699 11.667 -12 17c-5.33301 9.33301 -8 18.666 -8 27.999
c-7.33301 15.333 -13.5 31 -18.5 47l-15.5 50v4v1v1c0 2.66699 2 4 6 4h1c0.666992 -3.33301 1.33398 -5.16602 2.00098 -5.49902s2 -1.5 4 -3.5c1.33301 -2.66699 2.33301 -5.33398 3 -8.00098s2 -4.66699 4 -6c1.33301 -1.33301 2.16602 -3.16602 2.49902 -5.49902
s1.16602 -4.5 2.49902 -6.5l25 -47l0.5 -1c0.333008 -0.666992 0.5 -1.33398 0.5 -2.00098l-1 -2c-0.666992 -0.666992 -1 -2 -1 -4c0 -2.66699 -0.333008 -4.33398 -1 -5.00098c0 -2 -0.166992 -6.66699 -0.5 -14s-0.833008 -12.333 -1.5 -15v-3
c0 -3.33301 1.66699 -5 5 -5c1.33301 0 2.33301 1.33301 3 4l1 9c0.666992 1.33301 1.16699 2.5 1.5 3.5l0.5 1.5h1c0.666992 0 1.16699 -0.5 1.5 -1.5s0.833008 -1.83301 1.5 -2.5v-2v-2l-0.5 -0.5c-0.333008 -0.333008 -0.833008 -1.16602 -1.5 -2.49902l-6 -16v-2
c0 -2.66699 1.33301 -5 4 -7c2 2 3.5 4 4.5 6s2.5 4 4.5 6c3.33301 4 6.33301 8 9 12s5.66699 7.66699 9 11v1c0.666992 0 1 0.333008 1 1v3c0 4 -0.5 8 -1.5 12s-1.5 8.33301 -1.5 13c0 1.33301 0.166992 2.16602 0.5 2.49902s0.5 1.16602 0.5 2.49902l-0.5 2.5
c-0.333008 1.66699 -0.5 2.83398 -0.5 3.50098v3c0 11.333 -1.83301 22.833 -5.5 34.5s-6.16699 23.167 -7.5 34.5c0 2 -0.333008 3 -1 3c0 1.33301 -0.666992 2 -2 2s-2.5 -0.5 -3.5 -1.5s-2.16699 -1.5 -3.5 -1.5s-2.33301 1.16699 -3 3.5
s-1.33398 4.16602 -2.00098 5.49902l28 2c0.666992 0.666992 3.66699 1 9 1h1h4c3.33301 -1.33301 5.83301 -3.16602 7.5 -5.49902s4.16699 -4.16602 7.5 -5.49902c0.666992 0 2.16699 -0.666992 4.5 -2l3.5 -2c4 -1.33301 6.66699 -4.16602 8 -8.49902s2 -8.83301 2 -13.5
c0 -6.66699 -2 -11.5 -6 -14.5s-6 -6.16699 -6 -9.5c0 -1.33301 0.333008 -2 1 -2c2.66699 0.666992 5.33398 2.16699 8.00098 4.5s5 4.16602 7 5.49902c3.33301 3.33301 5 8 5 14c0.666992 0.666992 1.16699 3 1.5 7s0.5 6.66699 0.5 8c0.666992 2 1.16699 3.83301 1.5 5.5
s0.5 3.83398 0.5 6.50098c0 1.33301 -0.666992 2.66602 -2 3.99902s-2 3 -2 5v12l-1.5 1c-1 0.666992 -2.16699 1.33398 -3.5 2.00098l-7 7l-9 7c-2.66699 2 -5.33398 4.66699 -8.00098 8c-4.66699 3.33301 -9.5 7 -14.5 11s-10.167 7.66699 -15.5 11l-16 8l-16 8l-2 2
c0.666992 11.333 -1 24.5 -5 39.5s-11.667 25.5 -23 31.5l-3.5 1c-2.33301 0.666992 -3.83301 1.33398 -4.5 2.00098c3.33301 11.333 7.16602 21.833 11.499 31.5s11.166 17.5 20.499 23.5c2.66699 2 8 5 16 9s13 7 15 9c1.33301 1.33301 3.33301 3 6 5s4 4.33301 4 7
c0 1.33301 -1.66699 2 -5 2s-6.33301 -0.333008 -9 -1s-5.66699 -1 -9 -1c-14 0 -22.333 8 -25 24v4v3v16c0 4.66699 -1.33301 7 -4 7c-2 0 -3.33301 -1.83301 -4 -5.5s-1.33398 -5.83398 -2.00098 -6.50098v-7c0 -2.66699 -0.333008 -4.33398 -1 -5.00098
c-0.666992 -2 -1.33398 -6.16699 -2.00098 -12.5s-1 -10.166 -1 -11.499c-2 -14.667 -6 -29.167 -12 -43.5s-12.667 -28.5 -20 -42.5h-1c-1.33301 0 -2.16602 1.16699 -2.49902 3.5s-1.16602 4.16602 -2.49902 5.49902c-1.33301 0.666992 -4 1.33398 -8 2.00098s-6 2 -6 4
c0 1.33301 0.333008 3.83301 1 7.5s1 5.83398 1 6.50098v8v5v5v7c1.33301 1.33301 2 2.66602 2 3.99902l-1 8.5c-0.666992 5.66699 -1.66699 8.5 -3 8.5c-1.33301 1.33301 -2.16602 1.83301 -2.49902 1.5s-1.16602 -0.166016 -2.49902 0.500977
c-1.33301 8.66699 -4.5 16.5 -9.5 23.5s-11.5 12.167 -19.5 15.5c0 0.666992 -1 1 -3 1c-1.33301 0 -2 0.333008 -2 1c-2 0.666992 -3.33301 1.16699 -4 1.5s-2.66699 0.5 -6 0.5c-1.33301 0 -2 -0.333008 -2 -1h-4c-9.33301 -3.33301 -15.666 -6.16602 -18.999 -8.49902
s-7 -9.16602 -11 -20.499l-1.5 -4.5l-0.5 -1.5c0 -2 -0.666992 -3.66699 -2 -5c0 -0.666992 -0.333008 -1 -1 -1c-4.66699 -0.666992 -7 -2.33398 -7 -5.00098v-10v-3v-1l1 -2v-17v-9c0 -5.33301 0.333008 -8.33301 1 -9c0 -2 0.666992 -3.66699 2 -5
c-2 -1.33301 -4 -1.83301 -6 -1.5s-4 -0.833984 -6 -3.50098c-0.666992 -0.666992 -1.5 -1.66699 -2.5 -3s-1.83301 -2 -2.5 -2c-0.666992 -0.666992 -2 -1 -4 -1h-2h-1v-1l-5 -2c-3.33301 -2 -6.66602 -3.33301 -9.99902 -4s-6.33301 -2 -9 -4
c-3.33301 -3.33301 -6.33301 -6.83301 -9 -10.5s-5.66699 -6.83398 -9 -9.50098c-8 -3.33301 -11.833 -7.16602 -11.5 -11.499s-1.5 -11.166 -5.5 -20.499v-24c0 -3.33301 1.16699 -6 3.5 -8s3.5 -4.66699 3.5 -8v-2c-0.666992 -5.33301 -1.66699 -10.5 -3 -15.5l-4 -14.5
c0 -2 -1.33301 -4.33301 -4 -7c-0.666992 -0.666992 -1 -3.66699 -1 -9c0 -4.66699 -0.333008 -7.33398 -1 -8.00098c-0.666992 -2.66699 -1.83398 -4.5 -3.50098 -5.5s-3.16699 -2 -4.5 -3s-2.66602 -2.5 -3.99902 -4.5s-2 -5.33301 -2 -10v-12
c1.33301 -2 2.33301 -3.33301 3 -4s1.33398 -2 2.00098 -4l3 -23v-4c1.33301 -2 3 -3.5 5 -4.5s3.66699 -3.16699 5 -6.5l1.5 -7.5c0.333008 -1.66699 0.5 -2.16699 0.5 -1.5v-8c1.33301 -1.33301 2.33301 -2 3 -2l3 1c1.33301 -1.33301 2 -3 2 -5
c0 1.33301 0.166992 1.33301 0.5 0s0.833008 -3.66602 1.5 -6.99902c1.33301 -1.33301 3.5 -3 6.5 -5s5.83301 -3 8.5 -3c1.33301 0 2.33301 0.333008 3 1c2.66699 -3.33301 5.66699 -6.5 9 -9.5s5 -6.83301 5 -11.5l2 -32v-3
c0.666992 -3.33301 1.33398 -6.33301 2.00098 -9s1 -5.66699 1 -9v-2c-0.666992 -0.666992 -1.5 -2 -2.5 -4s-1.5 -3.33301 -1.5 -4c-0.666992 -1.33301 -2.16699 -5 -4.5 -11s-4.16602 -10.333 -5.49902 -13l-10.5 -12c-3.66699 -4 -6.5 -9 -8.5 -15l-0.5 -0.5
c-0.333008 -0.333008 -0.5 -0.833008 -0.5 -1.5l-20 -54c0 -0.666992 -0.333008 -1.16699 -1 -1.5s-1 -1.16602 -1 -2.49902c-1.33301 -3.33301 -2.66602 -7.66602 -3.99902 -12.999l-2 -8v-1c0 -1.33301 1 -2 3 -2c0.666992 0 1.66699 0.666992 3 2l34 79
c0 3.33301 1 5 3 5c4.66699 0 7 -1.66699 7 -5c-2.66699 -4.66699 -4.66699 -9.66699 -6 -15s-2.66602 -10.333 -3.99902 -15c-1.33301 -3.33301 -3 -6.16602 -5 -8.49902s-3 -5.16602 -3 -8.49902l-17 -38v-1l3 -3c1.33301 0 2.33301 1 3 3s1.33398 3.66699 2.00098 5
l35 74c0.666992 0.666992 1 2 1 4v5v8v10v7c0.666992 1.33301 1.83398 3.83301 3.50098 7.5s2.5 6.16699 2.5 7.5l2 2c0 1.33301 1.16699 2.5 3.5 3.5l3.5 1.5v8c0.666992 0 1 -1.66699 1 -5l1 -11c1.33301 -10 5.66602 -18.667 12.999 -26l2 -18
c0 -1.33301 -2.5 -3.5 -7.5 -6.5s-7.83301 -4.83301 -8.5 -5.5v-18c0 -1.33301 0.166992 -3.33301 0.5 -6s0.833008 -5.66699 1.5 -9l2 -3v-6l0.5 -1.5c0.333008 -1 0.5 -2.16699 0.5 -3.5l2 -4c0 -2 0.333008 -3.33301 1 -4c0.666992 -4 1.66699 -6.66699 3 -8l3 -3
c1.33301 0 2.16602 -0.5 2.49902 -1.5s1.16602 -1.5 2.49902 -1.5c0.666992 -0.666992 2 -1 4 -1c1.33301 0 2.66602 -1 3.99902 -3zM283.003 192.999l0.00292969 1c0 0.666992 0.166992 1.33398 0.5 2.00098l0.5 1c0.666992 1.33301 1.66699 3.66602 3 6.99902
s2.66602 5.66602 3.99902 6.99902h1h1c3.33301 -4.66699 5.5 -9.83398 6.5 -15.501s1.5 -11.167 1.5 -16.5v-1v-3c0 -1.33301 -0.166992 -2.66602 -0.5 -3.99902l-0.5 -2h-1c-0.666992 0.666992 -1.83398 1.66699 -3.50098 3s-2.83398 2.33301 -3.50098 3h-3
c-2.66699 0.666992 -4 4.33398 -4 11.001l-2 6v1zM275.006 217.999c0 2 0.332031 3.33398 0.999023 4.00098l2.5 0.5c1.66699 0.333008 2.83398 0.5 3.50098 0.5h1v-3c0 -5.33301 -1 -8.33301 -3 -9c-3.33301 3.33301 -5 5.66602 -5 6.99902zM58.0049 343
c0 0.666992 -0.166992 1.66602 -0.5 2.99902s0.166992 2 1.5 2c4 -1.33301 6 -2.66602 6 -3.99902v-7h-2v-6c-3.33301 5.33301 -5 9.33301 -5 12zM55.0049 367.999l0.00292969 0.99707v4v1c0 7.33301 0.333008 14 1 20s1 11.667 1 17
c1.33301 3.33301 2.16602 6.33301 2.49902 9s1.83301 5.33398 4.5 8.00098c1.33301 -0.666992 2.16602 -2 2.49902 -4l0.5 -3c2 -6 3.66699 -11.667 5 -17s4 -10.666 8 -15.999v-1c0 -5.33301 -2 -10 -6 -14s-6 -7.33301 -6 -10c0 -1.33301 0.333008 -2.16602 1 -2.49902
s1 -0.833008 1 -1.5h-4l-3 1.5c-2 1 -3.66699 2.16699 -5 3.5c-0.666992 0.666992 -1.33398 1.5 -2.00098 2.5z" />
    <glyph glyph-name="FL007Eh" unicode="~" horiz-adv-x="329" 
d="M254 292h-119l-24 51l-23 -51h-72l59 130h120l23 -51l23 51h72z" />
    <glyph glyph-name="FL007Fh" horiz-adv-x="121" 
 />
    <glyph glyph-name="FL00A1h" unicode="&#xa1;" horiz-adv-x="180" 
d="M154 0v512h-128v-512h128zM26 574h128v130h-128v-130z" />
    <glyph glyph-name="FL00A2h" unicode="&#xa2;" horiz-adv-x="357" 
d="M154 210h176.999v-130h-73v-80h-128v80h-11c-30 0 -53 7.5 -69 22.5s-24 37.5 -24 67.5v370c0 30 8.33301 51.5 25 64.5s39.334 19.5 68.001 19.5h11v80h128v-80h73v-130h-177v-284z" />
    <glyph glyph-name="FL0030h" unicode="&#xa3;" 
d="M26 422v-130h63v-162h-63v-130h359v130h-168v162h117v130h-117v152h67v130h-102c-30 0 -53 -7.5 -69 -22.5s-24 -37.5 -24 -67.5v-192h-63z" />
    <glyph glyph-name="FL0282h" unicode="&#xa4;" horiz-adv-x="418" 
d="M16 704l52 -148v-409l-52 -147h132l15 46h91l16 -46h132l-52 147v409l52 148h-132l-16 -45h-91l-15 45h-132zM172 546h73v-387h-73v387z" />
    <glyph glyph-name="FL002Ah" unicode="&#xa5;" horiz-adv-x="418" 
d="M209 524l-61 180h-132l128 -351h-84v-130h84v-34h-84v-130h84v-59h128v59h85v130h-85v34h85v130h-85l130 351h-132z" />
    <glyph glyph-name="FL00A6h" unicode="&#xa6;" horiz-adv-x="180" 
d="M154 335h-128v-423h128v423zM26 792v-423h128v423h-128z" />
    <glyph glyph-name="FL00A7h" unicode="&#xa7;" horiz-adv-x="418" 
d="M277 46c48.667 0 73 26 73 78v432l52 148h-132l-16 -45h-113c-48.667 0 -73 -26 -73 -78v-434l-52 -147h132l15 46h114zM172 546h73v-387h-73v387z" />
    <glyph glyph-name="FL00A8h" unicode="&#xa8;" horiz-adv-x="337" 
d="M26 870h128v-130h-128v130zM183 870h128v-130h-128v130z" />
    <glyph glyph-name="copyright" unicode="&#xa9;" horiz-adv-x="243" 
d="M119 746c-15.333 0 -29.834 -3.66602 -43.501 -10.999s-25.5 -18.666 -35.5 -33.999c-9.33301 -17.333 -14 -34 -14 -50c0 -26 9.33301 -48.333 28 -67c18 -18.667 40.667 -28 68 -28c12.667 0 24.834 2.5 36.501 7.5s21.834 11.833 30.501 20.5s15.5 18.667 20.5 30
s7.5 23.666 7.5 36.999c0 23.333 -9 45.666 -27 66.999c-18.667 18.667 -42.334 28 -71.001 28zM122.999 728.001c17.333 0 34.332 -7.33398 50.999 -22.001c16 -15.333 24 -33.666 24 -54.999s-7.66699 -39 -23 -53c-15.333 -15.333 -33 -23 -53 -23
c-21.333 0 -39.666 7.66699 -54.999 23c-14.667 14 -22 31.667 -22 53c0 20.667 7 38.667 21 54c17.333 15.333 36.333 23 57 23zM144.998 638c-6 -14.667 -14.001 -22 -24.001 -22c-16.667 0 -25 12 -25 36c0 10 2.16699 18.333 6.5 25s10.833 10 19.5 10
c9.33301 0 17 -6 23 -18l19 5c-7.33301 20 -21.333 30 -42 30c-14 0 -25.5 -4.66699 -34.5 -14s-13.5 -22.333 -13.5 -39s4.33301 -29.667 13 -39s20.334 -14 35.001 -14c20.667 0 34.667 11 42 33z" />
    <glyph glyph-name="FL00AFh" unicode="&#xaa;" horiz-adv-x="407" 
d="M119 0c-30 0 -53.001 7.5 -69.001 22.5s-24 37.5 -24 67.5v243c0 30 8 52.333 24 67s39 22 69 22h107v-130h-73v-162h101v444h-228v130h262c28.667 0 51.334 -6.5 68.001 -19.5s25 -34.5 25 -64.5v-620h-262z" />
    <glyph glyph-name="FL00B0h" unicode="&#xab;" horiz-adv-x="340" 
d="M184 271v171l130 59v-120l-51 -25l51 -24v-120zM26 271v171l130 59v-120l-51 -25l51 -24v-120z" />
    <glyph glyph-name="FL00B1h" unicode="&#xac;" horiz-adv-x="312" 
d="M26 422h260v-195h-130v65h-130v130z" />
    <glyph glyph-name="FL00AEh" unicode="&#xad;" horiz-adv-x="177" 
d="M26 422v-130h125v130h-125z" />
    <glyph glyph-name="FL00B6h" unicode="&#xae;" horiz-adv-x="243" 
d="M119 746c-13.333 0 -27.1689 -3.33398 -41.502 -10.001s-26.833 -18 -37.5 -34c-9.33301 -17.333 -14 -34.333 -14 -51c0 -26 9.33301 -48.333 28 -67c18 -18.667 40.667 -28 68 -28c12.667 0 24.834 2.5 36.501 7.5s21.834 11.833 30.501 20.5s15.5 18.667 20.5 30
s7.5 23.666 7.5 36.999c0 12.667 -2.5 24.834 -7.5 36.501s-12 21.834 -21 30.501s-19.5 15.5 -31.5 20.5s-24.667 7.5 -38 7.5zM122.997 727.999c11.333 0 22.667 -3.00098 34 -9.00098c12.667 -6 22.334 -15.333 29.001 -28c8 -13.333 12 -26.666 12 -39.999
c0 -20.667 -7.66699 -38.667 -23 -54c-14.667 -14.667 -32.334 -22 -53.001 -22c-22 0 -40.333 7.33301 -55 22s-22 32.667 -22 54c0 20.667 7 38.667 21 54c15.333 15.333 34.333 23 57 23zM78.998 599.998h20.001v42h6c4.66699 0 9.66699 -1.66699 15 -5
c3.33301 -3.33301 7.66602 -10.333 12.999 -21l9 -16h25l-11 21c-4 5.33301 -7 9.5 -9 12.5l-3 4.5c-3.33301 3.33301 -7 5.33301 -11 6c18.667 4 28 13.667 28 29c0 8 -2.83301 14.667 -8.5 20s-14.167 8 -25.5 8h-48v-101zM98.999 657.998v27h19c14 0 21 -4.33301 21 -13
c0 -9.33301 -7.66699 -14 -23 -14h-17z" />
    <glyph glyph-name="FL00BAh" unicode="&#xaf;" horiz-adv-x="327" 
d="M26 736h275v-130h-275v130z" />
    <glyph glyph-name="FL00B2h" unicode="&#xb0;" horiz-adv-x="180" 
d="M26 740h128v130h-128v-130zM73 826h35v-42h-35v42z" />
    <glyph glyph-name="FL0196h" unicode="&#xb1;" horiz-adv-x="312" 
d="M26 488h65v65h130v-65h65v-130h-65v-65h-130v65h-65v130zM26 261h260v-130h-260v130z" />
    <glyph glyph-name="B" unicode="&#xb2;" horiz-adv-x="631" 
d="M336 0l-1.98926 49.0078l-1 1.5l-3 4.5c-1.33301 4 -3.5 8.16699 -6.5 12.5s-4.5 7.16602 -4.5 8.49902c-3.33301 1.33301 -5 4.33301 -5 9l-0.5 2.5c-0.333008 1.66699 -0.833008 3.16699 -1.5 4.5l-3 48l-0.5 0.5c-0.333008 0.333008 -0.5 0.833008 -0.5 1.5
s1.33301 2 4 4c5.33301 -8 8.16602 -16.667 8.49902 -26s1.16602 -18.666 2.49902 -27.999s6.5 -18.5 15.5 -27.5s17.167 -16.833 24.5 -23.5c0 -0.666992 1 -1.33398 3 -2.00098l9.5 -7.5c3.66699 -3 6.16699 -4.5 7.5 -4.5c0.666992 0 1.83398 0.666992 3.50098 2
s2.5 2.66602 2.5 3.99902c0.666992 0.666992 1 2.33398 1 5.00098c0 1.33301 -0.333008 2.33301 -1 3l2 2h9l-13 33c-2 3.33301 -3.16699 6.5 -3.5 9.5s-0.5 6.5 -0.5 10.5v8l12 -3l8 3l12 -1l12 2c3.33301 0 5.33301 -1 6 -3s2.66699 -3 6 -3l10 4l3 -3l16 -31
c8.66699 -2.66699 13 -8.66699 13 -18l-1 -3c0 -3.33301 1.16699 -7.16602 3.5 -11.499s5 -8.66602 8 -12.999s5.66699 -8.66602 8 -12.999s3.5 -7.83301 3.5 -10.5h50l-9 19l-1 0.5c-0.666992 0.333008 -1 0.833008 -1 1.5c-1.33301 1.33301 -3 4.66602 -5 9.99902
s-3 8.66602 -3 9.99902c0 4 2 6 6 6c1.33301 0 3 -0.166992 5 -0.5s3 -1.16602 3 -2.49902c0 -0.666992 -0.333008 -1.33398 -1 -2.00098l-1 -1v-1c2.66699 -2.66699 4 -5 4 -7l16 -28h4c3.33301 0 7.33301 1.5 12 4.5s7 6.5 7 10.5c0 -0.666992 -0.333008 -0.166992 -1 1.5
s-1.66699 3.83398 -3 6.50098s-2.83301 5.33398 -4.5 8.00098s-3.16699 4.66699 -4.5 6c-0.666992 2.66699 -1.66699 4 -3 4h-1v-1l-0.5 1.5c-0.333008 1 -0.833008 2.16699 -1.5 3.5c-3.33301 10 -8 18 -14 24l-21 31c0 1.33301 -0.166992 2.16602 -0.5 2.49902l-0.5 0.5v5
v3c-0.666992 0.666992 -2.33398 2.83398 -5.00098 6.50098s-4 6.16699 -4 7.5c-1.33301 1.33301 -2.66602 2 -3.99902 2l-1 0.5c-0.666992 0.333008 -1.33398 0.833008 -2.00098 1.5v1c-0.666992 1.33301 -1.33398 2.5 -2.00098 3.5s-1.33398 2.16699 -2.00098 3.5
c0 2 -0.166992 3.5 -0.5 4.5l-0.5 1.5c0 3.33301 -0.333008 5.33301 -1 6c-1.33301 1.33301 -3 3.33301 -5 6s-3 4.66699 -3 6l-2 2h-4c-3.33301 0 -7 -0.833008 -11 -2.5s-6 -4.5 -6 -8.5l3 -8h-11c-3.33301 0 -5.5 0.5 -6.5 1.5s-3.16699 4.16699 -6.5 9.5h-2
c-2.66699 0 -4.33398 -1.16699 -5.00098 -3.5s-2 -3.5 -4 -3.5h-12c-0.666992 0 -2.16699 1.83301 -4.5 5.5s-3.5 6.16699 -3.5 7.5c4.66699 3.33301 9.83398 6.66602 15.501 9.99902s8.5 8.33301 8.5 15v1l40 27l13 14c4 3.33301 8.66699 5.16602 14 5.49902
s8 3.16602 8 8.49902c0 2.66699 -0.666992 4 -2 4c1.33301 0 1.66602 0.166992 0.999023 0.5s-2.66699 0.833008 -6 1.5v1l13 11l11 33l8 -3c2.66699 0 6.16699 1.16699 10.5 3.5s6.5 5.16602 6.5 8.49902l-1 1l-6.5 23c-1.66699 6 -3.83398 13 -6.50098 21
c-1.33301 2.66699 -3 6.33398 -5 11.001s-4.5 9.33398 -7.5 14.001s-6.16699 8.66699 -9.5 12s-6.66602 5 -9.99902 5l-14 -1c-3.33301 0 -6.5 1 -9.5 3s-6.83301 3 -11.5 3h-1c-2 0 -3.33301 -0.333008 -4 -1c-8.66699 -3.33301 -16.334 -7 -23.001 -11
s-13.667 -7.66699 -21 -11c-6 -2.66699 -12.333 -5.16699 -19 -7.5s-13.667 -3.5 -21 -3.5l-19 1l-60 -29v-8l-12 -18c-2 -0.666992 -3.83301 -2.83398 -5.5 -6.50098s-3.16699 -5.5 -4.5 -5.5l3 19c0 1.33301 -0.833008 2.33301 -2.5 3s-2.5 2.33398 -2.5 5.00098v1l1 1
c1.33301 1.33301 2.83301 3.33301 4.5 6s2.5 5.33398 2.5 8.00098v22c0 2 1.33301 3 4 3l58 17c7.33301 2.66699 14.833 5.66699 22.5 9s14.834 7.66602 21.501 12.999c2.66699 2.66699 4 4.66699 4 6l-15 -2c0 3.33301 1.16699 5.33301 3.5 6s4.16602 1.66699 5.49902 3
l25 26c7.33301 7.33301 14.833 17.666 22.5 30.999s11.5 25.666 11.5 36.999c0 1.33301 -0.166992 2.16602 -0.5 2.49902l-0.5 0.5h-1l-14 -21c-1.33301 -1.33301 -2.83301 -2.33301 -4.5 -3s-2.5 -1.66699 -2.5 -3v1c0 3.33301 0.166992 6.16602 0.5 8.49902
s0.5 4.83301 0.5 7.5l-7 -1c4.66699 9.33301 8.66699 18.666 12 27.999s5 19 5 29v7l-2 1l-2.5 -4c-1.66699 -2.66699 -3.5 -5.83398 -5.5 -9.50098s-4.33301 -6.83398 -7 -9.50098s-5.33398 -4 -8.00098 -4h-2l-2 16c0 1.33301 -0.166992 3.66602 -0.5 6.99902
s-1.16602 5 -2.49902 5c-2 0 -3 -0.333008 -3 -1c-2 -5.33301 -4.33301 -11.166 -7 -17.499s-6 -12.333 -10 -18s-8.66699 -10.5 -14 -14.5s-11.333 -6 -18 -6h-5c0 1.33301 -0.333008 3.66602 -1 6.99902s-1.66699 5 -3 5l-3 -2
c-1.33301 -1.33301 -2.83301 -4.33301 -4.5 -9s-3.83398 -8 -6.50098 -10l-1 -3l-2 -3l-1 -2c-3.33301 -3.33301 -5.33301 -5.66602 -6 -6.99902s-2.33398 -2.66602 -5.00098 -3.99902h-7c-4 0 -8.33301 0.333008 -13 1s-7 3 -7 7c0 2.66699 0.5 4.33398 1.5 5.00098
s2.16699 2.66699 3.5 6c1.33301 1.33301 3.66602 4.33301 6.99902 9s5 7.66699 5 9l9 17c2 0 3 1.33301 3 4l16 15c2 0.666992 3 3 3 7c0 2.66699 1.33301 5.33398 4 8.00098c19.333 7.33301 35.666 19 48.999 35c0.666992 1.33301 1.66699 2.66602 3 3.99902
s2 2.66602 2 3.99902c0 3.33301 -1.33301 5.66602 -4 6.99902s-4.66699 2.66602 -6 3.99902l14 -3v1c0 0.666992 -0.333008 1.33398 -1 2.00098l-7 10v2l11 -8c1.33301 -1.33301 2.66602 -2 3.99902 -2c2 0 3 -0.666992 3 -2c1.33301 -1.33301 2 -2.66602 2 -3.99902
c0 -0.666992 0.666992 -1.66699 2 -3l55 -40c1.33301 0 2.16602 -0.166992 2.49902 -0.5s1.16602 -0.5 2.49902 -0.5l7 1c3.33301 0 7.66602 -3 12.999 -9s10 -9 14 -9h1c0 -9.33301 -2.16699 -15 -6.5 -17s-6.5 -4.66699 -6.5 -8c0 -4.66699 2.16699 -7.66699 6.5 -9
s8.5 -2 12.5 -2c3.33301 0 6 1 8 3s3.83301 4 5.5 6s3.5 4 5.5 6s4.66699 3 8 3c2.66699 0 6.16699 -3.33301 10.5 -10s6.5 -11.667 6.5 -15l-3 -10c0 -1.33301 1.66699 -2 5 -2c4 0 6.66699 1.66699 8 5s2.33301 6.66602 3 9.99902
c3.33301 0 5.16602 -2.16699 5.49902 -6.5s0.5 -7.16602 0.5 -8.49902c0 -4.66699 -1.16699 -7.5 -3.5 -8.5s-3.5 -3.16699 -3.5 -6.5s1.66699 -5 5 -5c2.66699 0 5.33398 0.666992 8.00098 2s4 3.66602 4 6.99902v56c0 0.666992 -0.166992 2 -0.5 4
s-0.833008 4.66699 -1.5 8l-18 13c-0.666992 3.33301 -1.16699 5.33301 -1.5 6s-0.5 0 -0.5 -2c0 2 -1.33301 4 -4 6c-2.66699 0.666992 -7.16699 2.5 -13.5 5.5s-10.5 4.5 -12.5 4.5c0 4 -0.5 6.33301 -1.5 7s-2.16699 2.33398 -3.5 5.00098l-4 10l-18 22
c-0.666992 4 -1.83398 5.83301 -3.50098 5.5s-3.83398 1.16699 -6.50098 4.5c0 0.666992 -0.333008 1 -1 1v1v1h1c0 2 -1.16699 3.16699 -3.5 3.5s-4.16602 1.16602 -5.49902 2.49902v1v2l-3 2c-0.666992 0.666992 -1.66699 1 -3 1h-1l-3.5 3.5c-1 1 -3.5 3.83301 -7.5 8.5
c-7.33301 6.66699 -15.666 12.167 -24.999 16.5s-19 6.5 -29 6.5c-5.33301 0 -10.333 -1 -15 -3s-9.33398 -3 -14.001 -3l-8 2h-23c-0.666992 -0.666992 -1.66699 -1 -3 -1c-1.33301 -2 -3.66602 -4.66699 -6.99902 -8l-7 -7
c-1.33301 -1.33301 -3.16602 -1.83301 -5.49902 -1.5s-4.16602 -0.166992 -5.49902 -1.5c-2.66699 -2 -4.5 -4.5 -5.5 -7.5s-3.16699 -5.5 -6.5 -7.5h-4h-1c-1.33301 0 -2.66602 -1.5 -3.99902 -4.5s-4 -4.83301 -8 -5.5c-1.33301 0 -2.33301 1.16699 -3 3.5
s-2.66699 3.5 -6 3.5h-2l-13 -12l-35 -39v-8c0 -1.33301 0.333008 -2.33301 1 -3c-2 -2 -3.66699 -3 -5 -3c-2 0 -5.33301 0.333008 -10 1s-7.66699 1.33398 -9 2.00098l-8 -1v34c0 9.33301 -3 18 -9 26c-6.66699 12.667 -15.334 21 -26.001 25s-22.334 6 -35.001 6
c-9.33301 0 -17.833 -0.666992 -25.5 -2s-15.834 -4.66602 -24.501 -9.99902l-1 2v11c0 1.33301 1.33301 3 4 5c3.33301 3.33301 7.33301 5.5 12 6.5s7 4.16699 7 9.5c0 4.66699 -2 7 -6 7h-17c-4 0 -8 -0.5 -12 -1.5s-6 -3.83301 -6 -8.5c0 -1.33301 0.166992 -3 0.5 -5
s0.833008 -3 1.5 -3l2 -2c0 0.666992 0.333008 -2.16602 1 -8.49902s1 -11.166 1 -14.499v-17l-4 -4c-1.33301 -1.33301 -2 -3.33301 -2 -6v-13c0 -3.33301 -0.666992 -5.66602 -2 -6.99902s-2 -3.66602 -2 -6.99902c0 -4.66699 0.833008 -8.5 2.5 -11.5l6.5 -11.5
c2 -5.33301 3.16699 -11 3.5 -17s0.5 -11.667 0.5 -17v-3h-2c-0.666992 0 -1 0.666992 -1 2l0.5 0.5c0.333008 0.333008 0.5 0.833008 0.5 1.5v4c0 0.666992 -0.666992 1.66699 -2 3s-2.33301 2 -3 2c-1.33301 1.33301 -2.16602 3.66602 -2.49902 6.99902
s-0.833008 6.83301 -1.5 10.5s-1.33398 7 -2.00098 10s-1.66699 4.83301 -3 5.5c0 5.33301 -0.333008 8.33301 -1 9c0 3.33301 -1 8.16602 -3 14.499s-3 10.833 -3 13.5v1c0 1.33301 -1 2 -3 2l-1 -1c-2.66699 0 -4.66699 2 -6 6s-3 7 -5 9c-0.666992 2 -2 5.16699 -4 9.5
s-4.5 9 -7.5 14s-6 9.33301 -9 13s-5.83301 5.5 -8.5 5.5c-1.33301 0 -2.16602 -2.33301 -2.49902 -7s-1.16602 -7.66699 -2.49902 -9v-19l3 -28l1 -2v-6h-1c-0.666992 0 -1 -0.666992 -1 -2v-1v-1l21 -57c0.666992 -1.33301 1.5 -2.83301 2.5 -4.5
s1.5 -3.83398 1.5 -6.50098c-0.666992 0 -1.33398 -0.833008 -2.00098 -2.5s-1 -2.83398 -1 -3.50098v-2c3.33301 -3.33301 5.33301 -5.5 6 -6.5s1 -2.16699 1 -3.5v-4c0 -1.33301 1 -3 3 -5c1.33301 -1.33301 3.33301 -4.33301 6 -9s4.66699 -7.33398 6 -8.00098v-2
c0 -3.33301 -1.16699 -6.33301 -3.5 -9s-4.16602 -5.33398 -5.49902 -8.00098c-3.33301 -4 -5.5 -6.33301 -6.5 -7s-2.16699 -3.33398 -3.5 -8.00098l-5 1c-3.33301 0 -5.5 -0.833008 -6.5 -2.5s-3.16699 -4.16699 -6.5 -7.5c0 -0.666992 -1.5 -2.16699 -4.5 -4.5l-4.5 -3.5
c0 -6 1.5 -11.833 4.5 -17.5s4.5 -11.5 4.5 -17.5l-4 -3l-1.5 -7.5c-0.333008 -1.66699 -0.5 -2.16699 -0.5 -1.5v-8v-6l11 -17c3.33301 -7.33301 5.5 -14 6.5 -20s4.83301 -11.333 11.5 -16v-1c0 -2.66699 -2 -4 -6 -4c-3.33301 0 -5.66602 -1.66699 -6.99902 -5
c-4 -5.33301 -6 -12 -6 -20c0 -6.66699 1 -13.334 3 -20.001c3.33301 -2 5.5 -4 6.5 -6s3.83301 -3.66699 8.5 -5v-5c0 -3.33301 -0.333008 -6.16602 -1 -8.49902s-1 -4.83301 -1 -7.5v-4c2.66699 -4 6.16699 -6.66699 10.5 -8s8.5 -2 12.5 -2c13.333 0 24 4.66699 32 14
l-5 6l2 2l-8 16h1l15 -18l8 -12c3.33301 -5.33301 5.5 -9.5 6.5 -12.5s2.16699 -7.16699 3.5 -12.5l14 -11v-4l-9 -21v-2c0 -1.33301 1.16699 -4.83301 3.5 -10.5s4.16602 -9.5 5.49902 -11.5c0.666992 -0.666992 1.16699 -1.33398 1.5 -2.00098l0.5 -1l-8.5 -10.5
c-3 -3.66699 -4.5 -7.5 -4.5 -11.5c0 -3.33301 0.833008 -6.33301 2.5 -9s3.16699 -5.33398 4.5 -8.00098c2 -7.33301 4 -14.166 6 -20.499s3.66699 -13.166 5 -20.499l3 -32l33 -23c3.33301 0 5.83301 1.16699 7.5 3.5s2.83398 4.16602 3.50098 5.49902h1
c1.33301 0 2.33301 -1.33301 3 -4l1 -4l5 -32l-0.5 -1c-0.333008 -0.666992 -0.5 -1.66699 -0.5 -3s0.166992 -2.16602 0.5 -2.49902l0.5 -0.5v-2v-1v1h125zM507.011 92.0078c-2.66699 0 -3.99902 0.999023 -3.99902 2.99902c0 1.33301 1.16699 3 3.5 5s4.16602 3 5.49902 3
h1l3 -4c0.666992 -1.33301 2.33398 -4.16602 5.00098 -8.49902l7 -11.5c3.33301 -4 5.16602 -6.33301 5.49902 -7s0.5 -1.66699 0.5 -3c0 -4.66699 -2.66699 -7 -8 -7h-1c-1.33301 0 -2.33301 0.333008 -3 1zM489.012 124.007v1.99707c0 0.666992 0.5 1.66699 1.5 3
s1.5 2.33301 1.5 3s-0.5 1.83398 -1.5 3.50098s-1.5 2.83398 -1.5 3.50098v1v2c2 -4 4.16699 -6.5 6.5 -7.5s3.5 -2.5 3.5 -4.5c0 -1.33301 -0.666992 -3.66602 -2 -6.99902s-3.33301 -5 -6 -5c-1.33301 0 -2 0.666992 -2 2v4zM328.012 202.004l4 4h1l8 -8v-1
c0 -2.66699 -1.33301 -4 -4 -4zM314.012 235.004c0 2.66699 1.33301 4.00098 4 4.00098h1l28 -30c0 -2 -1.33301 -3.33301 -4 -4h-1c-2.66699 3.33301 -6.66699 7.66602 -12 12.999l-11 11c-0.666992 0 -1.5 1 -2.5 3s-1.83301 3 -2.5 3zM316.012 215.005l0.000976562 1
c1.33301 1.33301 2.16602 2.33301 2.49902 3l0.5 1c0.666992 0 1 -0.333008 1 -1l8 -8l-4 -4l-8 7v1zM304.013 229.005l5 4l7 -7l-4 -4l-1 -1v1zM157.013 324.005l-0.000976562 1.99805c0 2 1.66699 3 5 3h1c8 -11.333 17.333 -22.5 28 -33.5s23 -18.833 37 -23.5l45 -17
l11 -6h1h1c0 0.666992 0.333008 1.16699 1 1.5l1 0.5c0 1.33301 -0.666992 2.5 -2 3.5s-2.33301 2.16699 -3 3.5c-8.66699 12 -19.667 20.333 -33 25s-26.333 10 -39 16c-2 1.33301 -5.16699 3.33301 -9.5 6s-8.66602 5.83398 -12.999 9.50098
s-8.16602 7.33398 -11.499 11.001s-5 7.16699 -5 10.5c0 1.33301 0.333008 2 1 2h1c0.666992 0 1 0.333008 1 1c3.33301 0 5.5 -1.5 6.5 -4.5s1.83301 -5.16699 2.5 -6.5c8 -9.33301 17 -16.333 27 -21c13.333 -4.66699 26.833 -10.167 40.5 -16.5s25.5 -14.5 35.5 -24.5
l2.5 -3.5c1.66699 -2.33301 2.5 -3.83301 2.5 -4.5c1.33301 -1.33301 3.66602 -3.83301 6.99902 -7.5s5.66602 -6.16699 6.99902 -7.5l-14 -12h-1c-2.66699 1.33301 -5.5 3.66602 -8.5 6.99902s-4.16699 5.66602 -3.5 6.99902c-1.33301 0.666992 -3 1.33398 -5 2.00098
s-3 1.33398 -3 2.00098l-45 16c-15.333 4.66699 -28.666 12.5 -39.999 23.5s-21 22.833 -29 35.5zM471.012 346.003c1.33301 0 3.00098 -0.5 5.00098 -1.5s3.66699 -1.5 5 -1.5v-1l-4 -8l-7 -13.5c-2.66699 -5 -5.33398 -9.66699 -8.00098 -14s-4.66699 -7.5 -6 -9.5
c-0.666992 0 -1 -0.666992 -1 -2l3 2l31 27v-2l-22 -29c0 -0.666992 -0.166992 -1.16699 -0.5 -1.5l-0.5 -0.5v-1h1c2 0 4.66699 -0.333008 8 -1s5 -2.66699 5 -6h-38h-2c6.66699 10 12.5 19.833 17.5 29.5s9.16699 20.167 12.5 31.5zM399.013 412.003v-2h-1
c0 0.666992 0.166992 1.16699 0.5 1.5zM357.013 422.003c0 2.66699 1.66797 5.16797 5.00098 7.50098s6.66602 4.16602 9.99902 5.49902v-1v-1l-3 -4.5l-1 -1.5c-1.33301 0 -2 -1.66699 -2 -5c0 -1.33301 -0.333008 -2 -1 -2c-1.33301 0 -2.5 0.333008 -3.5 1s-2.5 1 -4.5 1
zM298.014 424.004l1 -1c0 -0.666992 -0.333008 -1 -1 -1h-1v1zM308.014 463.004c1.33301 0 3.00293 0.333008 5.00293 1s3.66699 -0.333008 5 -3l-1.5 -4.5l-0.5 -1.5v-3c0 -4.66699 0.666992 -7 2 -7c2 0 3.33301 0.333008 4 1v-1l-3 -2
c-0.666992 -1.33301 -3.5 -4.16602 -8.5 -8.49902s-8.5 -6.83301 -10.5 -7.5c0 -1.33301 -1 -2 -3 -2c0 2.66699 0.166992 4.16699 0.5 4.5s1.16602 2.16602 2.49902 5.49902s2.16602 8.83301 2.49902 16.5s2.16602 11.5 5.49902 11.5zM387.017 477.004
c0 -4 -1.99902 -6.00098 -5.99902 -6.00098c0 2.66699 0.166992 4.33398 0.5 5.00098s2.16602 1 5.49902 1zM367.018 480.003c4.66699 6.66699 12.668 9.99902 24.001 9.99902v-1l-3 -3.5c-2 -2.33301 -3.66699 -4.16602 -5 -5.49902
c-0.666992 -0.666992 -1.33398 -1 -2.00098 -1h-12zM602.019 483.002c0 -2 1 -3 3 -3v6c-2 0 -3 -1 -3 -3zM392.019 492.002c0.666992 0 1 -0.333008 1 -1v-1h-1h-1v1c0 0.666992 0.333008 1 1 1zM169.019 583.002l-6.00293 6.00195
c-3.33301 1.33301 -8.5 3.16602 -15.5 5.49902s-11.833 4.16602 -14.5 5.49902c-1.33301 0 -3.83301 1.16699 -7.5 3.5s-6.16699 3.83301 -7.5 4.5c-4.66699 2 -7 4.66699 -7 8h3c9.33301 -5.33301 19 -9 29 -11s20.667 -3 32 -3c12.667 0 24.334 3.33301 35.001 10
c0.666992 0.666992 2.66699 3.66699 6 9v-5c0 -6 -3.5 -11.333 -10.5 -16s-12.167 -10 -15.5 -16c0 -2 -0.166992 -5.33301 -0.5 -10s-0.833008 -9.5 -1.5 -14.5s-1.16699 -9.83301 -1.5 -14.5s-0.5 -8 -0.5 -10c-1.33301 -6 -3.16602 -9.5 -5.49902 -10.5
s-6.16602 -1.5 -11.499 -1.5v60zM589.016 526.004v-1v-1c-0.666992 0 -1 0.333008 -1 1s0.333008 1 1 1zM101.016 553.004v1l4 -3v-1v-1c-1.33301 0 -2 -0.333008 -2 -1c-1.33301 1.33301 -2 3 -2 5zM501.016 652.004c0 0.666992 0.666992 1.00098 2 1.00098h1
c2.66699 -2 5 -4.33301 7 -7s3 -4.33398 3 -5.00098v-1h-1l-12 10v2z" />
    <glyph glyph-name="eight" unicode="&#xb3;" horiz-adv-x="1797" 
d="M1285 52l-70.0059 -10.9961c-1.33301 -3.33301 -4.33301 -6.33301 -9 -9s-9.33398 -4 -14.001 -4c-5.33301 0 -9.83301 1.83301 -13.5 5.5s-7.83398 7.16699 -12.501 10.5c-1.33301 1.33301 -4.66602 3.83301 -9.99902 7.5l-11 7.5h-1h-1l-7 -5
c-3.33301 0 -5.83301 0.833008 -7.5 2.5s-4.16699 2.5 -7.5 2.5s-5.16602 -0.833008 -5.49902 -2.5s-0.833008 -3.83398 -1.5 -6.50098v9c0 5.33301 -0.166992 12 -0.5 20s-0.666016 14.667 -0.999023 20s-0.5 8.33301 -0.5 9l1 -59c-1.33301 0 -2.33301 -0.333008 -3 -1
c-2.66699 -0.666992 -7 -1.33398 -13 -2.00098s-10.333 -1 -13 -1l-1 -1c0 -2.66699 0.333008 -4.33398 1 -5.00098s1 -1.66699 1 -3v-3c0 -0.666992 -0.333008 3.83301 -1 13.5s-1.33398 18.834 -2.00098 27.501s-1 13.667 -1 15l-0.5 -9
c-0.333008 -6 -0.666016 -12.667 -0.999023 -20s-0.666016 -14 -0.999023 -20s-0.833008 -9 -1.5 -9c3.33301 -7.33301 8.16602 -10.666 14.499 -9.99902s10.166 -0.666016 11.499 -3.99902c-3.33301 -1.33301 -5.5 -3.16602 -6.5 -5.49902s-2.5 -5.16602 -4.5 -8.49902
h-126l-13 14v3h18c0.666992 4 3.33398 6.66699 8.00098 8l-8 5v1c0 3.33301 1 5 3 5h-5l4 2l-2 4h-60c-1.33301 0 -2 -1.33301 -2 -4c0 -3.33301 -0.5 -7.33301 -1.5 -12s-2.83301 -7 -5.5 -7h-21c-1.33301 0 -2.16602 1.16699 -2.49902 3.5s-0.666016 5 -0.999023 8l-1 9
c-0.333008 3 -1.16602 4.83301 -2.49902 5.5h-89l-36 -3h-329h-176c-2 0.666992 -4.16699 4.33398 -6.5 11.001s-4.33301 14.167 -6 22.5s-3.16699 16.333 -4.5 24s-2 12.834 -2 15.501v2c0 3.33301 2 5.66602 6 6.99902l59 -23c5.33301 4.66699 11.333 8.5 18 11.5
s13 6.5 19 10.5l160 140l64 -31l190 63c-1.33301 5.33301 -2.83301 9.66602 -4.5 12.999s-3.83398 7 -6.50098 11l-20 40c-0.666992 1.33301 -2.83398 2.66602 -6.50098 3.99902l-5.5 2l-342 75l-7 59l-10 -62h-1v1l-8 6c-1.33301 0 -2.66602 -0.333008 -3.99902 -1
s-3 -1 -5 -1c-4 0 -6 2 -6 6c-19.333 5.33301 -38.166 10.166 -56.499 14.499s-37.166 7.83301 -56.499 10.5l-4 2l-100 18c-3.33301 2.66699 -7.5 3.83398 -12.5 3.50098s-8.83301 1.83398 -11.5 6.50098c-3.33301 7.33301 -5.33301 13.333 -6 18s-2 10.667 -4 18
c-3.33301 13.333 -7.33301 25.666 -12 36.999s-9 23.666 -13 36.999c-2.66699 2 -5.16699 7.66699 -7.5 17s-4.16602 15 -5.49902 17v39l12 5l132 -4v27c-1.33301 1.33301 -2.83301 3.33301 -4.5 6s-2.5 4.66699 -2.5 6c1.33301 3.33301 2.33301 5 3 5h38
c0 -6.66699 -2 -12.334 -6 -17.001v-31l5 -1l126 -6c6 -1.33301 16.5 -2.5 31.5 -3.5s31.167 -1.83301 48.5 -2.5s33.666 -1.33398 48.999 -2.00098s26 -1.33398 32 -2.00098l338 -18l3 -1h57l226 -14c7.33301 -1.33301 17.666 -2.33301 30.999 -3s24.333 -1 33 -1h11
c28.667 -2.66699 57.834 -8.33398 87.501 -17.001s58.334 -20 86.001 -34s53.834 -30.667 78.501 -50s46.334 -41 65.001 -65c9.33301 -10.667 16.833 -21 22.5 -31s12.167 -20.667 19.5 -32l2 -2l18 20h3c4 0 7.16699 -3.66699 9.5 -11s4.33301 -15.666 6 -24.999
s3.16699 -18.5 4.5 -27.5s3 -15.167 5 -18.5c9.33301 -16.667 16.666 -31.834 21.999 -45.501s9.66602 -29.167 12.999 -46.5c0 -3.33301 0.166992 -6 0.5 -8s0.5 -3.66699 0.5 -5v-11c0 -10.667 1 -19 3 -25c0 -0.666992 1.33301 1 4 5s6 8.16699 10 12.5
s8 8.16602 12 11.499s7.66699 4 11 2l12 -68c4 -2.66699 7.5 -5.33398 10.5 -8.00098s4.83301 -4 5.5 -4l25 -25l16 -22c0.666992 -1.33301 2.5 -3.83301 5.5 -7.5l10 -12c3.66699 -4.33301 7 -8.5 10 -12.5s4.5 -7 4.5 -9c0 -4 -1.83301 -6.5 -5.5 -7.5
s-7.66699 -1.66699 -12 -2s-8.33301 -0.666016 -12 -0.999023s-5.5 -1.5 -5.5 -3.5l10 -14h-174c-0.666992 6 -1.33398 10 -2.00098 12s-3 3 -7 3c-8.66699 0 -13 -5.66699 -13 -17l-169 59l8 -45h-25v-1c0 -1.33301 -0.333008 -2.33301 -1 -3v-2
c-1.33301 -2 -3 -5.16699 -5 -9.5s-3.33301 -6.16602 -4 -5.49902h-54c-1.33301 0 -2.66602 3.5 -3.99902 10.5s-2.5 14.833 -3.5 23.5s-2 16.834 -3 24.501s-1.83301 12.5 -2.5 14.5v-58c0 0.666992 -0.166992 3.16699 -0.5 7.5s-0.5 9.16602 -0.5 14.499
c0 6 -0.166992 12.167 -0.5 18.5s-0.5 11.833 -0.5 16.5v11v-8v-20v-19v-8z" />
    <glyph glyph-name="FL00B4h" unicode="&#xb4;" horiz-adv-x="172" 
d="M81 870h128l-63 -130h-120z" />
    <glyph glyph-name="FL00B5h" unicode="&#xb5;" 
d="M292 0h-138v-88h-128v792h128v-574h103v574h128v-614c0 -30 -8 -52.5 -24 -67.5s-39 -22.5 -69 -22.5z" />
    <glyph glyph-name="FL0DF0h" unicode="&#xb6;" 
d="M385 704v-785.001h-128v655h-28v-655h-128v374c-50 4.66699 -75 34.334 -75 89.001v232c0 30 8 52.5 24 67.5s39 22.5 69 22.5h266z" />
    <glyph glyph-name="FL00B7h" unicode="&#xb7;" horiz-adv-x="180" 
d="M26 422h128v-130h-128v130z" />
    <glyph glyph-name="FL00B9h" unicode="&#xb8;" horiz-adv-x="139" 
d="M-12 -43h38v43h87v-127h-125v84z" />
    <glyph glyph-name="FL0035" unicode="&#xb9;" horiz-adv-x="748" 
d="M116 103c34.667 -34 72.666 -59.833 113.999 -77.5s87 -26.5 137 -26.5c48 0 93.167 9.16699 135.5 27.5s79.166 43.333 110.499 75s56.166 68.5 74.499 110.5s27.5 87 27.5 135c0 40 -5.66699 78.333 -17 115s-28.666 69 -51.999 97c0 2 0.666992 3 2 3
c5.33301 4 10 8.16699 14 12.5s7.66699 6.83301 11 7.5l16.5 9.5c6.33301 3.66699 10.5 6.16699 12.5 7.5l1 0.5c0.666992 0.333008 1 0.833008 1 1.5c2 2 4.16699 4.5 6.5 7.5l7.5 10l7 10c2 3 3.33301 5.16699 4 6.5c0.666992 0 1.33398 0.333008 2.00098 1l1 1h-5
l-41 -11v-1h-1l-24.5 -27.5c-8.33301 -9 -17.166 -17.167 -26.499 -24.5c-39.333 40.667 -80.333 71.834 -123 93.501s-93 32.5 -151 32.5c-48 0 -92.833 -8.83301 -134.5 -26.5s-78 -42.334 -109 -74.001s-55.5 -69 -73.5 -112s-27 -89.5 -27 -139.5
c0 -38 6 -75.167 18 -111.5s30 -69.5 54 -99.5l-68 -71v-2c0 -5.33301 2.83301 -11 8.5 -17s10.5 -10.667 14.5 -14l70 71h3zM235.999 92l0.000976562 0.998047l407 352l0.5 0.5c0.333008 0.333008 0.833008 0.5 1.5 0.5c2 0 2.83301 -0.5 2.5 -1.5s0.166992 -2.5 1.5 -4.5
c6.66699 -16 10 -46 10 -90c0 -39.333 -7.5 -76.666 -22.5 -111.999s-35.333 -66.5 -61 -93.5s-56 -48.5 -91 -64.5s-72.5 -24 -112.5 -24c-21.333 0 -41.833 2.5 -61.5 7.5s-38.834 11.167 -57.501 18.5c-1.33301 0 -3.83301 0.833008 -7.5 2.5
s-6.16699 2.83398 -7.5 3.50098l-2 2v2zM484 120.998l0.000976562 -3.00195c0.666992 0 1.66699 0.166992 3 0.5s2.66602 0.5 3.99902 0.5c6 1.33301 13.833 2.83301 23.5 4.5s14.5 2.83398 14.5 3.50098l24 81h37c0.666992 0 1.66699 1.33301 3 4
s2.33301 4.33398 3 5.00098h-41l13 61v6c0 2.66699 -0.5 5.16699 -1.5 7.5s-3.16699 4.16602 -6.5 5.49902h-11c-6 0 -11.167 -0.333008 -15.5 -1s-9.5 -3 -15.5 -7c-3.33301 -2 -7.66602 -5 -12.999 -9l-16.5 -12l-14.5 -10.5c-4 -3 -6.33301 -4.83301 -7 -5.5l-4 -4
c1.33301 -1.33301 4.16602 -2.5 8.49902 -3.5s8.16602 -1.5 11.499 -1.5c4 0 8.5 2.33301 13.5 7s10.333 10 16 16s11.334 11.333 17.001 16s11.167 7 16.5 7c4.66699 0 7 -3.66699 7 -11v-6l-17 -46c-2 -5.33301 -5.33301 -8.33301 -10 -9
c-2.66699 -0.666992 -8.16699 -2.16699 -16.5 -4.5s-13.833 -4.16602 -16.5 -5.49902c-3.33301 -2.66699 -5.33301 -6.5 -6 -11.5s-1 -9.16699 -1 -12.5l39 12zM104.001 146.996l13.002 12.001v3c0 3.33301 -0.666992 6.5 -2 9.5s-2.33301 6.16699 -3 9.5l-3 9v20
c0 16.667 3.5 32.667 10.5 48s18.833 26.333 35.5 33c-2.66699 -8.66699 -5 -16.834 -7 -24.501s-3 -15.5 -3 -23.5c0 -5.33301 0.666992 -13.5 2 -24.5s4.66602 -18.5 9.99902 -22.5l83 76v1c0 6.66699 -1.5 13.667 -4.5 21s-4.5 14.666 -4.5 21.999
c0 12.667 2.66699 24.667 8 36s13 20.333 23 27c1.33301 1.33301 4.33301 3 9 5s7.66699 3.33301 9 4h1c-6 -8.66699 -10.167 -17.334 -12.5 -26.001s-3.5 -17.334 -3.5 -26.001v-12c0 -4.66699 0.333008 -9 1 -13s2.66699 -6 6 -6l80 61
c-2.66699 4.66699 -4 13.334 -4 26.001v8c0 12.667 2.16699 24.834 6.5 36.501s12.5 20.167 24.5 25.5v-1c0 -6.66699 -1.16699 -12.834 -3.5 -18.501s-3.5 -11.5 -3.5 -17.5v-16c0 -0.666992 0.833008 -4 2.5 -10s3.5 -9 5.5 -9l8 5l64 49c1.33301 0 2 1 2 3l-3 30
c0 6 0.5 12.5 1.5 19.5s3.16699 13.167 6.5 18.5c1.33301 2 3.83301 4.5 7.5 7.5l5.5 4.5h1c-0.666992 -0.666992 -1 -5 -1 -13v-31c0 -1.33301 0.5 -4.5 1.5 -9.5s2.83301 -7.5 5.5 -7.5l72 51v2c0 4 -0.5 7.83301 -1.5 11.5s-1.5 7.83398 -1.5 12.501
c0 2 0.5 5.16699 1.5 9.5s2.16699 8.66602 3.5 12.999s3.16602 8.16602 5.49902 11.499s4.83301 5 7.5 5v-32l1 -3c0.666992 -2 1 -3.33301 1 -4c1.33301 -1.33301 2.5 -3.5 3.5 -6.5l1.5 -4.5h2l49 30l1.5 -0.5c1 -0.333008 2.16699 -1.16602 3.5 -2.49902v-2
c0 -2 -1 -3 -3 -3c-2 -1.33301 -5 -3.16602 -9 -5.49902l-13 -7.5c-4.66699 -2.66699 -8.83398 -5.16699 -12.501 -7.5s-6.5 -4.5 -8.5 -6.5l-4 -4c5.33301 -7.33301 11.833 -12.5 19.5 -15.5s15.5 -5.5 23.5 -7.5h2c-5.33301 -3.33301 -10.166 -5.66602 -14.499 -6.99902
s-9.5 -2 -15.5 -2c-9.33301 0 -17 2.66699 -23 8s-10.667 8 -14 8c-0.666992 -0.666992 -1.66699 -1.33398 -3 -2.00098s-2.33301 -1.66699 -3 -3c-2 -2 -5.5 -5.16699 -10.5 -9.5l-17 -14.5l-18 -15c-5.66699 -4.66699 -9.83398 -8 -12.501 -10l-5 -4
c7.33301 -5.33301 15.5 -9 24.5 -11s18.167 -3 27.5 -3c0 -2.66699 -1.66699 -5 -5 -7s-7 -3.66699 -11 -5s-8 -2.33301 -12 -3s-6.33301 -1 -7 -1c-7.33301 0 -13.666 1.5 -18.999 4.5s-11.666 6.16699 -18.999 9.5l-72 -62v-1c0 -5.33301 4.5 -9.66602 13.5 -12.999
s15.5 -5 19.5 -5c2 -0.666992 6.5 -1.16699 13.5 -1.5s11.5 -0.5 13.5 -0.5c-5.33301 -5.33301 -11.833 -9.83301 -19.5 -13.5s-16.167 -5.5 -25.5 -5.5s-18.5 2.5 -27.5 7.5s-14.833 7.5 -17.5 7.5l-77 -63v-2c0 -0.666992 1.5 -2 4.5 -4s5.16699 -3.66699 6.5 -5
c18.667 -10.667 37.334 -16 56.001 -16c0 -2.66699 -2.16699 -5.16699 -6.5 -7.5s-9.33301 -4.5 -15 -6.5s-11.5 -3.5 -17.5 -4.5s-10.333 -1.5 -13 -1.5c-10 0 -18.667 1.5 -26 4.5s-14 6.83301 -20 11.5l-74 -66c-1.33301 -0.666992 -3 -2.5 -5 -5.5
s-3.66699 -5.16699 -5 -6.5v-1c19.333 -13.333 39 -20 59 -20h4c3.33301 0 6.16602 0.166992 8.49902 0.5s4.16602 0.5 5.49902 0.5c0.666992 0.666992 2 1 4 1h3h2c-10 -10 -20 -18 -30 -24s-23.667 -9 -41 -9c-9.33301 0 -17 1.33301 -23 4s-12.667 6.66699 -20 12l-4 1
l-15 -17l-3 2zM69.0029 351.997c0 42.667 8 81.835 24 117.502s37.667 66.5 65 92.5s59.333 46.167 96 60.5s75.667 21.5 117 21.5c26 0 50.5 -3.16699 73.5 -9.5s46.167 -15.5 69.5 -27.5v-2l-435 -319c-2.66699 5.33301 -5 11.666 -7 18.999s-3 14.666 -3 21.999v25z
M183.003 503.998c0 -13.333 4.49902 -23.335 13.499 -30.002s19.167 -10 30.5 -10c12.667 0 22.167 4.16699 28.5 12.5s9.5 18.5 9.5 30.5c0 4 -0.166992 6.83301 -0.5 8.5s-1.16602 4.16699 -2.49902 7.5l-35 79l-1 -1l-1.5 -1c-1 -0.666992 -1.5 -1.66699 -1.5 -3l-17 -40
c-0.666992 -1.33301 -2 -3.66602 -4 -6.99902l-6.5 -11c-2.33301 -4 -4.33301 -7.66699 -6 -11s-2.5 -5.33301 -2.5 -6c-1.33301 -4 -2.33301 -7.16699 -3 -9.5s-1 -5.16602 -1 -8.49902z" />
    <glyph glyph-name="FL00BCh" unicode="&#xba;" horiz-adv-x="497" 
d="M192 117c1.33301 0 3.32715 1.16309 5.99414 3.49609s4.66699 4.16602 6 5.49902l12 22l-2 10c1.33301 3.33301 2.66602 5 3.99902 5c2 0 3 -3.33301 3 -10c0 -6 -0.833008 -12 -2.5 -18s-4.83398 -9.66699 -9.50098 -11l9 -60c1.33301 -6 2.83301 -10 4.5 -12
s3.33398 -3.33301 5.00098 -4s3.16699 -1.33398 4.5 -2.00098s2.33301 -2.33398 3 -5.00098l14 -41h105c0 11.333 1.33301 21 4 29s7 16.667 13 26l7 88l6 34v31c0 2 0.333008 5.16699 1 9.5s1.5 9 2.5 14s1.83301 9.66699 2.5 14s1 7.5 1 9.5l11 1l5 5h8
c6 4.66699 9.66699 10.334 11 17.001s4 12 8 16v22c4.66699 0.666992 7 3 7 7c0 5.33301 1.66699 9 5 11l11 46c0.666992 0.666992 1 2.33398 1 5.00098v5c0 3.33301 -0.166992 6 -0.5 8s-2.16602 4.66699 -5.49902 8v19l-4 15l-1 4
c-0.666992 2.66699 -1.33398 7.33398 -2.00098 14.001c0 0.666992 -0.833008 2.16699 -2.5 4.5l-2.5 3.5v5c0 2 -0.666992 3.66699 -2 5v6h8c0 0.666992 -0.166992 1.66699 -0.5 3l-0.5 2l1 48c-4 12 -9 20.167 -15 24.5s-13 11.166 -21 20.499l11 27
c2.66699 2.66699 4.33398 6.83398 5.00098 12.501s1.66699 8.5 3 8.5c1.33301 3.33301 4.83301 7.5 10.5 12.5l17.5 16l16.5 16c5 5 7.5 9.16699 7.5 12.5c-4.66699 0 -9 -1 -13 -3s-7.66699 -3 -11 -3c-7.33301 0 -12.833 2.83301 -16.5 8.5s-6.16699 11.834 -7.5 18.501
s-2.33301 12.834 -3 18.501s-2 8.5 -4 8.5h-2c0 -14 -0.666992 -27.167 -2 -39.5s-4 -25.166 -8 -38.499c-1.33301 -1.33301 -2.66602 -4.33301 -3.99902 -9s-2.66602 -9.66699 -3.99902 -15s-2.83301 -10.833 -4.5 -16.5s-3.16699 -9.83398 -4.5 -12.501
c-6 -9.33301 -11.333 -14 -16 -14s-10.667 1.5 -18 4.5s-11 6.83301 -11 11.5v1l1.5 3c1 2 1.5 3.33301 1.5 4l-8 54c-3.33301 11.333 -8.16602 21 -14.499 29s-15.833 12 -28.5 12c-17.333 0 -30.833 -6 -40.5 -18s-14.5 -26 -14.5 -42l12 -54c0 -2 -3.66699 -3 -11 -3
c-5.33301 0 -9.66602 -1.66699 -12.999 -5c-1.33301 -2.66699 -2.66602 -5.16699 -3.99902 -7.5s-2.33301 -3.83301 -3 -4.5c-13.333 -8 -24.166 -18.333 -32.499 -31s-12.5 -27 -12.5 -43v-4c0 -2 0.666992 -3 2 -3l5 -1c3.33301 -0.666992 5.66602 -1 6.99902 -1l-12 -34
v-9c-7.33301 -6 -12.833 -12.333 -16.5 -19s-8.5 -13 -14.5 -19l-42 -41c5.33301 0 12.333 3.33301 21 10l43 47l7 2l2 -2c0 -3.33301 -3.16699 -7.16602 -9.5 -11.499s-11.166 -8.16602 -14.499 -11.499l-12 -15l-26 -24c-4.66699 -2.66699 -9.5 -5 -14.5 -7
s-10.5 -3 -16.5 -3l-16 1c-3.33301 0 -6 -2 -8 -6s-4.5 -8.33301 -7.5 -13s-6.83301 -9 -11.5 -13s-11 -6 -19 -6h-5l12 -8v-2c-2.66699 -1.33301 -6.33398 -2.16602 -11.001 -2.49902s-8.66699 -1.83301 -12 -4.5h23l-4 -43h2l7 38c1.33301 4.66699 3.33301 9 6 13
s5.66699 6 9 6s6 -1.16699 8 -3.5s4.66699 -3.5 8 -3.5h5l52 36c1.33301 4 3 6.33301 5 7l3.5 1l10.5 3c2.66699 0.666992 4.16699 2.66699 4.5 6s0.833008 6.33301 1.5 9l1 -1c0.666992 -0.666992 1 -1.33398 1 -2.00098c0 -9.33301 -1.66699 -17.833 -5 -25.5
s-5.66602 -15.5 -6.99902 -23.5l7 -12c0 -4 -0.5 -8 -1.5 -12s-1.5 -7.33301 -1.5 -10c0 -3.33301 0.833008 -7.33301 2.5 -12s3.66699 -9.33398 6 -14.001s4.66602 -8.66699 6.99902 -12s4.5 -5 6.5 -5h2c3.33301 0 5 3 5 9l-11 27h4l3 -10l4 -2c3.33301 0 5 4 5 12l-3 26
c0 2.66699 1 5 3 7l29 57l2 -6v-6c0 -12 -3.33301 -18.333 -10 -19l-7 -33v-77h1v-4c0 -1.33301 -0.166992 -4.5 -0.5 -9.5s-1.16602 -8.16699 -2.49902 -9.5l-3 -48c1.33301 0 3 3.16699 5 9.5s3.83301 13.333 5.5 21s3.16699 15 4.5 22s2 11.167 2 12.5v6l5 10
c1.33301 -1.33301 2 -8.33301 2 -21v-20l0.5 -2c0.333008 -1.33301 0.5 -2.66602 0.5 -3.99902c0 -0.666992 -0.166992 -1.66699 -0.5 -3l-0.5 -2l-12 -12l1 -26c0 -1.33301 -1.33301 -4.33301 -4 -9l-7 -12c-2 -3.33301 -3.33301 -5.33301 -4 -6zM303.994 168.996
l3.00098 -6v-60c0 -3.33301 -0.5 -7 -1.5 -11s-1.5 -8.33301 -1.5 -13l3 -12c0 -4.66699 -1 -8 -3 -10v-35c0 -14 0.333008 -21.333 1 -22h-5c-1.33301 1.33301 -2 10 -2 26v63c0 4 -0.333008 6.33301 -1 7l1 16c0 6 -1 15 -3 27c0 3.33301 1.16699 8.33301 3.5 15
s4.16602 11.667 5.49902 15zM390.995 420.996l6.00098 6c3.33301 -7.33301 5.16602 -15.333 5.49902 -24s0.5 -17 0.5 -25c-8 0 -12 6.33301 -12 19v24zM122.996 348.996c-3.33301 -6 -6.99902 -9.33105 -10.999 -9.99805s-9 -2.33398 -15 -5.00098l-3 -2
c-4.66699 -2.66699 -8.33398 -6 -11.001 -10s-7 -6 -13 -6c0 4 2.16699 7.66699 6.5 11s9.33301 6.16602 15 8.49902l17.5 7c6 2.33301 10.667 4.5 14 6.5zM390.997 348.998l7 9l4 -4l-2 -20h-3c0 4 -1.33301 7.33301 -4 10zM168.997 393.998
c2.66699 0 4.00098 -1.33301 4.00098 -4v-3c-6 -1.33301 -11.833 -4.5 -17.5 -9.5s-10.167 -9.83301 -13.5 -14.5c3.33301 7.33301 7.66602 13.5 12.999 18.5s10 9.16699 14 12.5z" />
    <glyph glyph-name="FL00BBh" unicode="&#xbb;" horiz-adv-x="340" 
d="M156 271v171l-130 59v-120l51 -25l-51 -24v-120zM314 271v171l-130 59v-120l51 -25l-51 -24v-120z" />
    <glyph glyph-name="F" unicode="&#xbc;" horiz-adv-x="1115" 
d="M557 16c-6.66699 0 -13.1582 -1.00586 -19.4912 -3.00586s-13.166 -3 -20.499 -3c-14.667 0 -26.167 2 -34.5 6s-18.833 8.33301 -31.5 13l-87 85c-4 2.66699 -6.33301 4.66699 -7 6s-1 2.66602 -1 3.99902v5l-0.5 1.5c-0.333008 1 -0.833008 3.16699 -1.5 6.5
c-4.66699 6.66699 -10.334 13.167 -17.001 19.5s-10 13.5 -10 21.5c0 3.33301 1.33301 5.5 4 6.5s4 3.16699 4 6.5c0 2 -1.33301 3.5 -4 4.5s-5.66699 2 -9 3s-6.66602 2.83301 -9.99902 5.5s-5.66602 6.66699 -6.99902 12c-1.33301 0.666992 -2.16602 2.66699 -2.49902 6
s-0.5 5.66602 -0.5 6.99902c-2 10.667 -5.33301 19.667 -10 27s-8.33398 16.666 -11.001 27.999c-1.33301 5.33301 -2.33301 7.66602 -3 6.99902s-2 -1 -4 -1c-0.666992 0 -2.33398 1.33301 -5.00098 4l-4 6c-2.66699 4 -5 7.66699 -7 11c-2 0 -3 1.66699 -3 5
c-36 3.33301 -70.667 5.83301 -104 7.5s-67 2.83398 -101 3.50098c-8 6 -14 11.167 -18 15.5s-6 11.166 -6 20.499c0 4 1.33301 9.83301 4 17.5s7 11.5 13 11.5h124v2c1.33301 0 1.33301 0.666992 0 2s-2 2.33301 -2 3c0 1.33301 -0.333008 2 -1 2h-39v28h39l2.5 -5.5
c1.66699 -3.66699 3.16699 -5.5 4.5 -5.5h38l4 7h26c1.33301 0 2.33301 -1.33301 3 -4c0.666992 -1.33301 1.33398 -3.16602 2.00098 -5.49902s1.33398 -4.16602 2.00098 -5.49902h91v-26h-35v-9l5.5 -2c3.66699 -1.33301 6.83398 -2.33301 9.50098 -3
c10 -3.33301 17.167 -7.16602 21.5 -11.499s5.83301 -12.5 4.5 -24.5c2.66699 2 5.5 5.66699 8.5 11s5.83301 9 8.5 11c0 2 1.33301 3 4 3h3c1.33301 0 2.5 0.166992 3.5 0.5s2.16699 0.5 3.5 0.5h4h4c1.33301 0 2.66602 -0.166992 3.99902 -0.5s2.66602 -0.5 3.99902 -0.5
h3c2 0 6.33301 -0.333008 13 -1l21 -2l21 -2c6.66699 -0.666992 11 -1 13 -1h2c6.66699 0 13 1.66699 19 5s12.667 5 20 5c10.667 0 21.167 -0.666992 31.5 -2s21.166 -2 32.499 -2h4h14h5c2.66699 2.66699 3.83398 4.83398 3.50098 6.50098s-0.5 3.16699 -0.5 4.5h-33
c-0.666992 0 -1.83398 3.33301 -3.50098 10l-6 23.5l-7 27c-2.33301 9 -4.5 15.5 -6.5 19.5c-3.33301 8 -8.33301 18.833 -15 32.5s-10.667 26.167 -12 37.5c-0.666992 0.666992 -1 4 -1 10v10v22c0 21.333 -2.33301 42.5 -7 63.5s-15.667 39.167 -33 54.5l-1 1
c0 6 4.66699 10.5 14 13.5s16.333 4.5 21 4.5h16c5.33301 0 10.333 -1.33301 15 -4c-2 -3.33301 -4.83301 -5.83301 -8.5 -7.5s-7.33398 -3.16699 -11.001 -4.5s-6.83398 -3.16602 -9.50098 -5.49902s-4 -6.16602 -4 -11.499v-5l17 -53l4 -4
c13.333 20.667 29.666 34.834 48.999 42.501s40.666 11.5 63.999 11.5c22.667 0 43 -5.5 61 -16.5s29.333 -28.833 34 -53.5l6 -3l3.5 -11l8.5 -26c3.33301 -10 6.5 -20.333 9.5 -31l7.5 -26c0.666992 -1.33301 1.5 -3.66602 2.5 -6.99902s1.5 -5.66602 1.5 -6.99902v-4
c0 -3.33301 -1.66699 -6 -5 -8s-5 -4.66699 -5 -8v-3c1.33301 -3.33301 3.16602 -8.33301 5.49902 -15s5.16602 -10 8.49902 -10h29c1.33301 0 4.16602 1.83301 8.49902 5.5s7.16602 7.16699 8.49902 10.5c0.666992 0 1 1 1 3v8c0 5.33301 -1.16699 9.5 -3.5 12.5
s-4.83301 5.33301 -7.5 7s-5.16699 3.33398 -7.5 5.00098s-3.5 3.83398 -3.5 6.50098v84c2 2.66699 3.16699 4.83398 3.5 6.50098s0.5 3.16699 0.5 4.5c0 3.33301 -0.833008 5.5 -2.5 6.5s-4.16699 3.16699 -7.5 6.5l-29 63v94c1.33301 0 2 -1 2 -3l36 -42
c12.667 -14.667 19.667 -31 21 -49v-10c0 -7.33301 0.166992 -16.5 0.5 -27.5s1.16602 -19.5 2.49902 -25.5v-4c0 -3.33301 -1 -5.33301 -3 -6c2 -3.33301 4.66699 -5 8 -5s6 -1.66699 8 -5l9.5 -19c5 -10 8.5 -18.667 10.5 -26c1.33301 -2.66699 2.5 -4.83398 3.5 -6.50098
s1.83301 -2.83398 2.5 -3.50098c1.33301 -2.66699 2.83301 -5.83398 4.5 -9.50098s2.5 -6.16699 2.5 -7.5l1 -2c0 -4.66699 -1.5 -8.66699 -4.5 -12s-4.5 -7.33301 -4.5 -12c0 -6 2 -10.167 6 -12.5s8.66699 -4.16602 14 -5.49902l15.5 -4
c5 -1.33301 8.83301 -3.66602 11.5 -6.99902c0 -0.666992 0.333008 -2.33398 1 -5.00098s1.33398 -4.66699 2.00098 -6h3c5.33301 0 9.66602 2.33301 12.999 7s8.66602 7 15.999 7c5.33301 0 11.333 -0.833008 18 -2.5s12 -4.16699 16 -7.5
c5.33301 -4.66699 8.5 -10.834 9.5 -18.501s2.16699 -14.167 3.5 -19.5c0 -0.666992 0.333008 -1.33398 1 -2.00098s1 -1.33398 1 -2.00098c15.333 -24 27.166 -51.667 35.499 -83s15.166 -60.333 20.499 -87c1.33301 -1.33301 2.33301 -2.16602 3 -2.49902
s2 -1.16602 4 -2.49902c2.66699 0 5.83398 -0.333008 9.50098 -1s5.83398 -1 6.50098 -1l6 -1.5l2 -0.5c3.33301 0 5 -0.333008 5 -1l4 -33c-1.33301 -1.33301 -3 -3.83301 -5 -7.5s-3.66699 -6.5 -5 -8.5v-3v-4l10 -62v-2c0 -5.33301 -4.33301 -9.66602 -13 -12.999
s-15 -5 -19 -5c-11.333 0 -21.666 3.16699 -30.999 9.5s-14.666 15.5 -15.999 27.5h-2c-2 0 -4.83301 -1 -8.5 -3s-7.33398 -4.16699 -11.001 -6.5s-7 -4.83301 -10 -7.5s-4.5 -4.66699 -4.5 -6c0 -5.33301 1.16699 -9.16602 3.5 -11.499s3.5 -5.5 3.5 -9.5
c0 -3.33301 -1.16699 -6.5 -3.5 -9.5s-3.5 -6.83301 -3.5 -11.5c0 -8.66699 1.66699 -17.334 5 -26.001s5 -17.667 5 -27h-416c-0.666992 4.66699 -1.33398 8.5 -2.00098 11.5s-3.66699 4.5 -9 4.5zM550.009 81.9941l-5.99805 -3.5l-13.5 -7.5
c-5 -2.66699 -9.66699 -5.33398 -14 -8.00098s-6.83301 -4 -7.5 -4l-15 -10v-3h39c1.33301 2 4.16602 3.83301 8.49902 5.5s7.16602 2.83398 8.49902 3.50098l3 24zM450.011 59.9941c0 -4.66699 3.33398 -7 10.001 -7h1l-4.5 4.5
c-1.66699 1.66699 -3.83398 2.5 -6.50098 2.5zM445.012 61.9941c0 1.33301 -0.666016 2 -1.99902 2s-1.83301 -0.666992 -1.5 -2s1.16602 -2 2.49902 -2c0.666992 0 1 0.666992 1 2zM418.013 221.994l50 -48h6l6.5 9.5c4.33301 6.33301 7.83301 11.833 10.5 16.5
c0 1.33301 1 3.33301 3 6s3.33301 4.66699 4 6v2v2c-2.66699 -2.66699 -5 -4 -7 -4c-4 0 -9.16699 0.166992 -15.5 0.5l-9.5 0.5v9h-48zM294.013 374.994c-1.33301 0 -2 -1 -2 -3c0 -1.33301 0.666992 -2 2 -2c2.66699 0 4 0.666992 4 2c0 2 -1.33301 3 -4 3z
M203.013 385.994c7.33301 -1.33301 15.833 -3 25.5 -5s18.5 -3 26.5 -3c5.33301 0 8 3 8 9c0 3.33301 -2.66699 5 -8 5h-52v-6zM566.013 385.994l1.99805 -7.00195h24l-26 115c-0.666992 0 -1 1.33301 -1 4v4c0 5.33301 4 10.5 12 15.5s17.333 9.33301 28 13
s21.167 6.83398 31.5 9.50098s17.5 4.33398 21.5 5.00098v2v2c0 2.66699 -1 4 -3 4c-7.33301 0 -14.5 -1.83301 -21.5 -5.5s-14.167 -6.5 -21.5 -8.5c-14.667 -3.33301 -29.167 -6 -43.5 -8s-28.166 -5.66699 -41.499 -11c-1.33301 0 -2.66602 -1 -3.99902 -3
s-2 -3.66699 -2 -5h-1v-1l1 -2c5.33301 -8.66699 10 -16.667 14 -24s7.66699 -16.333 11 -27z" />
    <glyph glyph-name="s" unicode="&#xbd;" horiz-adv-x="1688" 
d="M26 341l127 0.000976562l12 -6c0.666992 -3.33301 2 -8.16602 4 -14.499l6 -20c2 -7 4.16699 -13.5 6.5 -19.5s4.16602 -10 5.49902 -12c0 -2 0.5 -4.16699 1.5 -6.5s2.16699 -3.83301 3.5 -4.5c2.66699 4.66699 5.16699 11.5 7.5 20.5s5 18.167 8 27.5
s6.33301 17.5 10 24.5s7.83398 10.5 12.501 10.5h115c2.66699 0 6.66699 -2 12 -6c0.666992 -2.66699 1.66699 -4.33398 3 -5.00098s2 -1.33398 2 -2.00098l22 -65l5 -5c0.666992 2 2 6.33301 4 13s4.16699 13.5 6.5 20.5l6.5 19.5c2 6 3.66699 10 5 12l4 9
c2.66699 6 5 9 7 9h122l-103 -341h-113c-2 0 -4.83301 5.5 -8.5 16.5l-12 37.5l-12.5 41c-4 13.333 -7.33301 22 -10 26l-38 -121h-116zM499 0.000976562l99 322.999c2.66699 12 9.66699 18 21 18h158c4.66699 0 8.5 -2.16699 11.5 -6.5s5.16699 -8.16602 6.5 -11.499
l92 -295c2 -2 3.66699 -5.66699 5 -11s2 -9.33301 2 -12l0.5 -1.5c0.333008 -1 0.5 -2.16699 0.5 -3.5h-122c-0.666992 0 -1.5 1.33301 -2.5 4s-1.83301 4.66699 -2.5 6c-1.33301 2.66699 -3.5 8.5 -6.5 17.5l-5.5 16.5h-115l-17 -44h-125zM926 335l263.003 0.000976562
c12.667 0 24.167 -3.83301 34.5 -11.5s19.166 -17 26.499 -28s13 -22.667 17 -35s6 -23.166 6 -32.499c0 -15.333 -3 -29 -9 -41s-12.5 -22.167 -19.5 -30.5s-13.333 -14.833 -19 -19.5s-8.5 -7.33398 -8.5 -8.00098v-3c1.33301 -1.33301 3.16602 -2.5 5.49902 -3.5
s3.83301 -1.5 4.5 -1.5h171v5c-16 18.667 -29.167 36.167 -39.5 52.5s-15.5 36.166 -15.5 59.499c0 32 11.333 57.167 34 75.5s50 27.5 82 27.5h191l12 -13v-100h-165v-9c17.333 -14.667 32.666 -32 45.999 -52s20 -42 20 -66c0 -11.333 -2.33301 -22.833 -7 -34.5
s-11 -22.5 -19 -32.5s-17.333 -18.167 -28 -24.5s-22 -9.5 -34 -9.5h-296l-33 10l-85 78v-88h-135v335zM697.003 219.001l-22 -75.999h50c0 1.33301 -0.166992 3.16602 -0.5 5.49902s-0.833008 3.83301 -1.5 4.5l-21 71zM1099 242.002l-9.99902 0.00292969
c-6 0 -11.667 -0.333008 -17 -1s-8 -2.33398 -8 -5.00098v-33h76c5.33301 0 8.66602 1.66699 9.99902 5s2 6.66602 2 9.99902c0 11.333 -3.83301 18.166 -11.5 20.499s-16.167 3.5 -25.5 3.5h-16zM28.0039 486.005l274.001 0.00195312l-50 63
c-6 7.33301 -9.5 15.333 -10.5 24s-1.5 18 -1.5 28v4c0 10.667 2 21.667 6 33s9.66699 21.833 17 31.5s16 17.5 26 23.5s21.333 9 34 9h493v-107h-137l-8 -9v-219h-126v226h-151v-7c8 -8 15.833 -16.333 23.5 -25s14.834 -17.834 21.501 -27.501s12 -19.834 16 -30.501
s6 -22 6 -34c0 -10 -1.83301 -20.833 -5.5 -32.5s-8.83398 -22.667 -15.501 -33s-14.834 -19 -24.501 -26s-20.167 -10.5 -31.5 -10.5h-356v119zM768.005 367.007l102.002 335h191l102 -335h-121l-2 4c-1.33301 2.66699 -3 5.33398 -5 8.00098
c-0.666992 0 -1.83398 2.66699 -3.50098 8l-4.5 14c-2.66699 6.66699 -5 10 -7 10h-105c-2.66699 0 -4.83398 -1.66699 -6.50098 -5s-3 -7 -4 -11s-2 -7.66699 -3 -11s-1.83301 -5 -2.5 -5c-0.666992 -2.66699 -1.5 -5.33398 -2.5 -8.00098s-1.83301 -4 -2.5 -4h-126z
M1189.01 702.007l252.001 0.00195312c14 0 26.833 -3.33301 38.5 -10s21.667 -15.167 30 -25.5s14.833 -21.833 19.5 -34.5s7 -25 7 -37c0 -13.333 -1 -24.333 -3 -33s-5.33301 -16.667 -10 -24s-10.5 -14.333 -17.5 -21s-15.5 -14.334 -25.5 -23.001l5 -8h177v-119h-231
c-0.666992 0 -2.66699 0.666992 -6 2s-6.83301 2.83301 -10.5 4.5s-7.16699 3.5 -10.5 5.5s-5.33301 3.66699 -6 5c-3.33301 2 -8.5 6 -15.5 12s-14.167 12.5 -21.5 19.5l-21 20c-6.66699 6.33301 -11.334 11.166 -14.001 14.499h-4v-83h-133v335zM965.008 586.009
l-22.999 -76.0029h50l-1 6c-1.33301 4.66699 -3 10.834 -5 18.501s-4.33301 15.334 -7 23.001s-4.83398 14.334 -6.50098 20.001l-2.5 8.5h-5zM1326.01 603.006l-0.000976562 -32c0 -2 1.5 -3.5 4.5 -4.5s5.16699 -1.83301 6.5 -2.5c2 0 5.83301 -0.166992 11.5 -0.5
s10.5 -0.5 14.5 -0.5h14c8.66699 0 17.334 1.33301 26.001 4s13 9 13 19c0 4.66699 -1 8.66699 -3 12s-5 5 -9 5h-78z" />
    <glyph glyph-name="FL0F6Bh" unicode="&#xbe;" horiz-adv-x="635" 
d="M342 68l-0.000976562 -3.00293c0 -2 0.666992 -4 2 -6s2 -4.66699 2 -8c0.666992 -3.33301 1.16699 -6 1.5 -8s0.5 -3.66699 0.5 -5s0.166992 -2.83301 0.5 -4.5s0.833008 -3.83398 1.5 -6.50098c0.666992 -4 1.66699 -8 3 -12l4 -12c0 -2.66699 1.33301 -4 4 -4v22
c0 0.666992 -0.5 1.33398 -1.5 2.00098s-1.5 1.66699 -1.5 3s-0.166992 3.16602 -0.5 5.49902s-0.5 3.83301 -0.5 4.5v40l1 17v1c0 4 -0.666992 6 -2 6h-6c-2 0 -3 -0.666992 -3 -2c-1.33301 -1.33301 -2.16602 -2.66602 -2.49902 -3.99902
s-0.833008 -2.66602 -1.5 -3.99902c0 -1.33301 -0.166992 -3.66602 -0.5 -6.99902s-0.5 -6.66602 -0.5 -9.99902v-5zM274.999 93.9971c1.33301 -1.33301 2.00195 -3.33984 2.00195 -6.00684s0.333008 -4.33398 1 -5.00098c0 -1.33301 0.166992 -3 0.5 -5
s0.5 -4.33301 0.5 -7s0.166992 -5.16699 0.5 -7.5l0.5 -3.5c0 -1.33301 0.166992 -3.16602 0.5 -5.49902l0.5 -3.5c0.666992 -3.33301 1.16699 -6.83301 1.5 -10.5s0.5 -7.16699 0.5 -10.5c0 -7.33301 2.33301 -13.333 7 -18l1 6v9c0 5.33301 0.166992 11.833 0.5 19.5
s0.5 13.5 0.5 17.5v4v10c0 0.666992 -0.166992 1.83398 -0.5 3.50098l-1.5 7.5c-0.666992 0 -1.16699 0.833008 -1.5 2.5l-0.5 2.5c0 0.666992 -0.166992 1.83398 -0.5 3.50098s-0.5 3.16699 -0.5 4.5v9c-0.666992 0.666992 -1.16699 2.33398 -1.5 5.00098
s-0.833008 4.66699 -1.5 6l-1.5 3.5c-1 2.33301 -1.5 3.83301 -1.5 4.5v6v1v8c0 2 0.666992 3.66699 2 5c1.33301 10 3.16602 19.333 5.49902 28s3.16602 18.667 2.49902 30c0.666992 0 1 0.333008 1 1c0 1.33301 -0.833008 3.33301 -2.5 6s-3.5 4.33398 -5.5 5.00098
c-2 2 -3.66699 5.33301 -5 10c-1.33301 1.33301 -2 3 -2 5v5l-1 3c-0.666992 2 -1.33398 3.33301 -2.00098 4l-3 4c-0.666992 0.666992 -1 2.66699 -1 6c0 4.66699 -1.66699 7 -5 7h-16c-3.33301 0 -5.83301 -2 -7.5 -6s-4.16699 -6.66699 -7.5 -8
c0 -12.667 -0.5 -23.667 -1.5 -33s-1.5 -19.666 -1.5 -30.999c0 -1.33301 0.5 -4.16602 1.5 -8.49902s2.16699 -8.16602 3.5 -11.499l2 -5c1.33301 -0.666992 2.83301 -2.16699 4.5 -4.5s2.83398 -4.16602 3.50098 -5.49902c2.66699 -4 7.5 -9.5 14.5 -16.5
s11.5 -13.167 13.5 -18.5v-11c0 -2.66699 0.166992 -4.83398 0.5 -6.50098s0.5 -3.16699 0.5 -4.5zM318.001 21.9902l1.48926 -3.00293l0.5 -1c2 0 3 1 3 3c0.666992 0.666992 1.33398 2.5 2.00098 5.5s1 5.16699 1 6.5v46c1.33301 1.33301 2 4 2 8s0.333008 6.33301 1 7
c0.666992 3.33301 1.83398 6.33301 3.50098 9s2.5 6 2.5 10c0.666992 0.666992 1.5 1.33398 2.5 2.00098s2.16699 1.66699 3.5 3c2.66699 3.33301 4.33398 5.16602 5.00098 5.49902s1 2.16602 1 5.49902v4c0 2 0.166992 3.33301 0.5 4s0.5 1.66699 0.5 3
c0 5.33301 -0.666992 10.333 -2 15s-2 9.33398 -2 14.001c0 1.33301 0.333008 2.16602 1 2.49902s1 1.5 1 3.5c0 1.33301 -0.5 2.16602 -1.5 2.49902s-1.5 1.5 -1.5 3.5s0.5 3.83301 1.5 5.5s1.5 3.5 1.5 5.5c0 1.33301 -0.333008 2.33301 -1 3s-1 1.66699 -1 3
c0 2 0.333008 3.33301 1 4s1 1.66699 1 3s-0.333008 2.16602 -1 2.49902s-1 1.16602 -1 2.49902s0.666992 2.66602 2 3.99902h4c1.33301 0 2.33301 0.333008 3 1v1v1l-3 3l-1 2c0 0.666992 1 2.33398 3 5.00098s3.66699 4.66699 5 6v9l1 1v9
c0 2.66699 0.333008 4.33398 1 5.00098c1.33301 4 3.33301 7.16699 6 9.5s4.66699 4.83301 6 7.5c1.33301 2 2.33301 3.83301 3 5.5s1.66699 3.16699 3 4.5v25c-2 0.666992 -3 1.66699 -3 3s0.5 2.33301 1.5 3s1.5 1.66699 1.5 3c0 2.66699 -2 5.66699 -6 9s-6 5.33301 -6 6
c0 6 0.166992 11 0.5 15s1.16602 7.66699 2.49902 11c5.33301 1.33301 11.5 4.33301 18.5 9s11.167 9.66699 12.5 15c0.666992 0.666992 1.16699 1.83398 1.5 3.50098s0.5 2.83398 0.5 3.50098c1.33301 1.33301 2.66602 2.16602 3.99902 2.49902s2 1.83301 2 4.5
s-0.333008 4.66699 -1 6s-1 2.66602 -1 3.99902c0 14 3.83301 27 11.5 39l21.5 35h1l3 1l12.5 10c4.33301 3.33301 6.5 7.66602 6.5 12.999v29c-3.33301 1.33301 -6 6.16602 -8 14.499s-3.66699 13.166 -5 14.499s-2.66602 2.33301 -3.99902 3s-2 2 -2 4
c0 2.66699 0.833008 4.5 2.5 5.5s3.16699 3.16699 4.5 6.5c1.33301 0.666992 2.33301 1.33398 3 2.00098l1 1v1l-1 1h-6c-0.666992 0 -1 -0.333008 -1 -1c-1.33301 -2 -2.83301 -5.5 -4.5 -10.5s-3.16699 -8.16699 -4.5 -9.5h-3c-1.33301 0 -2.33301 -0.5 -3 -1.5
s-1.33398 -1.5 -2.00098 -1.5v-3c0 -4 -1.66699 -6.66699 -5 -8v-30c0 -2 -1.16699 -5 -3.5 -9s-5.16602 -8.16699 -8.49902 -12.5s-6.66602 -8.16602 -9.99902 -11.499s-6 -5 -8 -5c-1.33301 0 -3.33301 -0.333008 -6 -1s-4.33398 -1.33398 -5.00098 -2.00098
c-4.66699 -2 -10.667 -6.66699 -18 -14s-13 -12.333 -17 -15c0 -1.33301 -1.16699 -4.16602 -3.5 -8.49902l-3.5 -6.5c0 -2.66699 -0.833008 -6 -2.5 -10s-2.5 -6.66699 -2.5 -8v-3c0 -1.33301 0.333008 -1.83301 1 -1.5s1 -0.166992 1 -1.5s-0.166992 -3 -0.5 -5
s-0.833008 -3 -1.5 -3h-9c-1.33301 0 -2 0.666992 -2 2l-1 2c-4 6 -6.83301 10.833 -8.5 14.5s-2.83398 9.16699 -3.50098 16.5c-2 0 -3 0.666992 -3 2v6c0 2.66699 0.5 5.16699 1.5 7.5s1.5 5.16602 1.5 8.49902c0 2.66699 -0.166992 6.5 -0.5 11.5
s-1.83301 8.83301 -4.5 11.5c-2 1.33301 -3.66699 4 -5 8v1c0 6.66699 3.66699 13.167 11 19.5s13 11.833 17 16.5l1 2c4.66699 2 8.33398 4.33301 11.001 7v5c1.33301 1.33301 2.83301 1.66602 4.5 0.999023s2.16699 0.333008 1.5 3
c5.33301 6.66699 11.833 12.167 19.5 16.5s15.834 8.5 24.501 12.5c2 1.33301 3.83301 2.33301 5.5 3s3.16699 1.66699 4.5 3l1 1c2.66699 1.33301 7.5 2.5 14.5 3.5s11.5 2.5 13.5 4.5c2 2.66699 3.33301 5.66699 4 9s1 6.33301 1 9h1v43l-7.5 15.5
c-2.33301 5 -7.16602 8.83301 -14.499 11.5h-2h-7h-2c-5.33301 0 -10.166 -0.333008 -14.499 -1s-9.16602 -1 -14.499 -1h-3c-1.33301 0 -4 0.5 -8 1.5s-6.66699 1.5 -8 1.5c0 1.33301 -1.33301 2 -4 2c-2 0 -3.33301 0.333008 -4 1l-3 2l-3 1
c-1.33301 0 -2.33301 0.333008 -3 1h-12c-1.33301 -1.33301 -2.83301 -2.16602 -4.5 -2.49902s-3.5 -1.16602 -5.5 -2.49902c-1.33301 -0.666992 -2.33301 -1.83398 -3 -3.50098s-1.66699 -3.16699 -3 -4.5h-2c-1.33301 0 -2 -0.333008 -2 -1l-2.5 -2.5
c-0.333008 -0.333008 -1.5 -0.5 -3.5 -0.5c-1.33301 0 -2.66602 1.33301 -3.99902 4s-2.66602 4.66699 -3.99902 6h-4h-1c-7.33301 0 -12.833 -2.5 -16.5 -7.5s-5.5 -10.833 -5.5 -17.5l1 -1c0.666992 -0.666992 1 -1.66699 1 -3v-1l4 -12
c0.666992 -2 2.66699 -4.66699 6 -8v-2c0 -2 -1.83301 -3.33301 -5.5 -4s-6.16699 -1 -7.5 -1c-2 0 -5.33301 2.83301 -10 8.5s-7 9.5 -7 11.5c0 5.33301 2.33301 10.333 7 15s8 9 10 13c0.666992 1.33301 1.66699 3.5 3 6.5s2.66602 4.83301 3.99902 5.5v3
c0 11.333 -5.33301 17 -16 17c-13.333 0 -23.5 -3.33301 -30.5 -10s-15.5 -14.334 -25.5 -23.001c-6 -5.33301 -9.83301 -10.5 -11.5 -15.5s-2.5 -11.5 -2.5 -19.5c0 -9.33301 1.16699 -16 3.5 -20s6.83301 -9.33301 13.5 -16c2.66699 -3.33301 4.5 -6.66602 5.5 -9.99902
s3.83301 -6.66602 8.5 -9.99902c3.33301 -3.33301 7.33301 -6.16602 12 -8.49902s8.66699 -5.83301 12 -10.5c5.33301 -7.33301 9.83301 -13.833 13.5 -19.5s7.16699 -12.167 10.5 -19.5c0.666992 -3.33301 2 -6 4 -8l7 -7l1 -4
c0.666992 -1.33301 1.33398 -2.33301 2.00098 -3s1.33398 -1.66699 2.00098 -3c0 -1.33301 1 -5.66602 3 -12.999s3 -12.666 3 -15.999c0 -1.33301 -1 -2.5 -3 -3.5l-5 -2.5c-0.666992 0 -1 -0.333008 -1 -1c0 -2.66699 -0.166992 -4.66699 -0.5 -6l-0.5 -2v-7v-2v-6
c0.666992 -0.666992 1 -2 1 -4c0 -1.33301 0.333008 -2.33301 1 -3c1.33301 0 2.33301 -0.166992 3 -0.5s1.66699 -0.5 3 -0.5s2.16602 -0.166992 2.49902 -0.5l0.5 -0.5v-11c0 -2 -1.33301 -3 -4 -3c-2 0 -2.83301 1.33301 -2.5 4s-0.5 4 -2.5 4
c-1.33301 0 -2.33301 -1 -3 -3l-11 -1v1c0 2 0.333008 3 1 3v15c-0.666992 0 -1.16699 1 -1.5 3s-1.16602 3 -2.49902 3c-2 2 -4.33301 3.66699 -7 5s-4.66699 2.66602 -6 3.99902c0 3.33301 -2 6.66602 -6 9.99902s-8.5 6.5 -13.5 9.5l-14.5 9
c-4.66699 3 -7.66699 5.83301 -9 8.5c-1.33301 1.33301 -2.66602 4.33301 -3.99902 9s-2.5 9.5 -3.5 14.5s-2 9.33301 -3 13s-2.16699 5.5 -3.5 5.5h-12l-7 -7c-2.66699 -2 -3.66699 -3.83301 -3 -5.5s0.333984 -3.16699 -0.999023 -4.5l-2 -2
c-1.33301 0 -2 -0.333008 -2 -1s0.666992 -1.16699 2 -1.5l2 -0.5v-23c1.33301 -2.66699 2.16602 -6.66699 2.49902 -12s1.83301 -8.33301 4.5 -9l6 -18c5.33301 -5.33301 11 -9 17 -11s9.66699 -6.66699 11 -14l0.5 -3.5c0.333008 -2.33301 0.833008 -4.16602 1.5 -5.49902
c1.33301 -5.33301 3.33301 -11.166 6 -17.499s5.66699 -12.166 9 -17.499l2 -48l6 -13v-1l1 -1c2 -1.33301 4.66699 -3 8 -5s5.66602 -3 6.99902 -3c4 0 6.5 1.5 7.5 4.5s2.5 5.5 4.5 7.5h1c1.33301 0 2.5 -0.666992 3.5 -2s2.16699 -2.66602 3.5 -3.99902
c0 -0.666992 0.333008 -1 1 -1h3l0.5 -1.5c0.333008 -1 0.5 -2.16699 0.5 -3.5c0 -3.33301 1.66699 -7.66602 5 -12.999c0 -0.666992 0.166992 -1.5 0.5 -2.5s0.5 -2.16699 0.5 -3.5v-23c1.33301 0 2 -1.66699 2 -5s1 -5.33301 3 -6
c-3.33301 -5.33301 -5 -11.666 -5 -18.999c0 -2.66699 1.33301 -4.5 4 -5.5s5 -1.5 7 -1.5h3l6 7c1.33301 0.666992 2.33301 1.66699 3 3s1.66699 2 3 2h11c3.33301 0 5 3 5 9c0 3.33301 -1.5 6 -4.5 8s-4.5 5 -4.5 9c0 4.66699 2.33301 8 7 10
c2.66699 1.33301 3.66699 2.66602 3 3.99902s1.33301 2 6 2c1.33301 0 2.5 -0.166992 3.5 -0.5l1.5 -0.5v-10c0 -2 -0.666992 -3 -2 -3c-2.66699 0 -4 -0.666992 -4 -2s2 -2 6 -2v-2v-2c0 -4 -0.666992 -6.5 -2 -7.5s-2.66602 -2.16699 -3.99902 -3.5
c-0.666992 -0.666992 -1 -2 -1 -4v-1c0 -0.666992 -0.333008 -1.66699 -1 -3l-1 -2c-0.666992 -3.33301 -1.16699 -5.33301 -1.5 -6s-0.5 -0.333984 -0.5 0.999023v-7c0 -3.33301 -0.666992 -5.83301 -2 -7.5s-2.66602 -4.16699 -3.99902 -7.5
c0 -1.33301 -0.333008 -2.5 -1 -3.5l-1 -1.5c-1.33301 -3.33301 -2.33301 -5 -3 -5l-0.5 -2l-1.5 -6c-1.33301 -1.33301 -2.33301 -2 -3 -2s-1 -0.333008 -1 -1s0.166992 -1.5 0.5 -2.5l0.5 -1.5v-3c0 -2.66699 -0.333008 -4.5 -1 -5.5s-1 -2.83301 -1 -5.5v-1v-9v-4v-3v-8
v-2c0 -1.33301 0.333008 -4 1 -8s1 -6.66699 1 -8v-7v-6v-15c0 -5.33301 0.333008 -10.5 1 -15.5l2 -14.5c1.33301 -9.33301 2.5 -18.166 3.5 -26.499s2.16699 -17.166 3.5 -26.499zM233.99 99.9873l1.5 -6.00098l0.5 -2l0.5 -2l1.5 -6
c1.33301 -5.33301 2.66602 -13.666 3.99902 -24.999s4 -19 8 -23v2c0 1.33301 0.666992 2 2 2c0 1.33301 0.333008 3.5 1 6.5s1 5.16699 1 6.5c0 0.666992 0.333008 2.16699 1 4.5s1 3.83301 1 4.5c1.33301 5.33301 1.83301 10.833 1.5 16.5s-0.5 11.167 -0.5 16.5v5v15v4
c0 1.33301 -1 2.5 -3 3.5s-3.66699 2.16699 -5 3.5l-4.5 0.5c-3 0.333008 -5.16699 0.5 -6.5 0.5h-1c-1.33301 0 -2.16602 -1 -2.49902 -3s-0.5 -3.66699 -0.5 -5v-3v-15v-1zM25.9902 195.986c0.666992 -0.666992 0.999023 -1.32617 0.999023 -1.99316
c0.666992 -5.33301 1.33398 -9.33301 2.00098 -12s1.66699 -6.33398 3 -11.001c1.33301 -3.33301 2.83301 -6.33301 4.5 -9l5.5 -9c0 -0.666992 0.166992 -1.5 0.5 -2.5l0.5 -1.5c2 -3.33301 5 -7.83301 9 -13.5s8.5 -11.167 13.5 -16.5s10.333 -9.83301 16 -13.5
s11.167 -5.5 16.5 -5.5h20h1c10.667 0 20.5 0.166992 29.5 0.5s18.167 1.83301 27.5 4.5c2 0 3 0.333008 3 1c0 1.33301 -0.166992 2.16602 -0.5 2.49902l-0.5 0.5c-6.66699 0.666992 -13 1.33398 -19 2.00098s-12.667 1.33398 -20 2.00098c-10 3.33301 -17.667 8 -23 14
c-1.33301 -1.33301 -3.66602 0 -6.99902 4s-6.66602 8.83301 -9.99902 14.5s-6.33301 11 -9 16s-4.33398 8.16699 -5.00098 9.5l-5 11v4v1v5c0 19.333 5.66699 37.333 17 54s22 31.667 32 45c1.33301 0 2 0.333008 2 1c2.66699 4 5.5 7.33301 8.5 10
s6.16699 5.33398 9.5 8.00098c2.66699 3.33301 4.16699 5.66602 4.5 6.99902s2.5 3.66602 6.5 6.99902c1.33301 1.33301 4.33301 4 9 8s7.66699 6 9 6c1.33301 0.666992 3.5 2.16699 6.5 4.5s4.83301 4.16602 5.5 5.49902l5 6c1.33301 0 2.66602 1.16699 3.99902 3.5
s2.66602 3.83301 3.99902 4.5c-0.666992 3.33301 -0.666992 6.16602 0 8.49902s1 5.16602 1 8.49902s-1.83301 7 -5.5 11s-6.5 7 -8.5 9l-11 11l-4 6c-1.33301 2 -3.66602 3.66699 -6.99902 5l-14 16h-2h-3h-30l-3 -1.5c-2 -1 -3.66699 -2.16699 -5 -3.5
c-1.33301 0 -3.66602 -2.5 -6.99902 -7.5l-7 -10.5c-2.66699 -1.33301 -4.66699 -3.83301 -6 -7.5s-3.33301 -6.83398 -6 -9.50098c-7.33301 -8 -13.833 -16.833 -19.5 -26.5l-18.5 -30.5c-0.666992 -1.33301 -2.16699 -4.83301 -4.5 -10.5
s-4.16602 -9.16699 -5.49902 -10.5c-2.66699 -13.333 -4.33398 -26.833 -5.00098 -40.5s-2.33398 -27.834 -5.00098 -42.501v-1c0 -0.666992 -0.333008 -1.33398 -1 -2.00098v-37zM477.989 115.994c-0.666992 -3.33301 1.50098 -5.66113 6.50098 -6.99414s8.16699 -2 9.5 -2
l8 -2c1.33301 0 2.66602 -0.333008 3.99902 -1s2.33301 -1 3 -1h5h3h6c6 0 11.333 1.33301 16 4c7.33301 4.66699 13 9 17 13s8.66699 9.66699 14 17c1.33301 3.33301 2.33301 6.16602 3 8.49902s2.66699 5.16602 6 8.49902c2 2.66699 4 6.16699 6 10.5s4.66699 9.5 8 15.5
c2.66699 7.33301 4.16699 14.166 4.5 20.499s0.166016 13.5 -0.500977 21.5c0 0.666992 0.666992 1 2 1h1c2.66699 0 4 -0.333008 4 -1c0 -1.33301 1.66699 -2 5 -2c0 1.33301 -0.666992 2.66602 -2 3.99902l-10 6c-1.33301 1.33301 -2.16602 3 -2.49902 5s-1.5 3 -3.5 3
c-0.666992 0.666992 -1 2.66699 -1 6l-0.5 2l-1.5 6c0 1.33301 -0.166992 4.16602 -0.5 8.49902s-0.666016 9 -0.999023 14s-0.666016 9.66699 -0.999023 14s-0.5 7.16602 -0.5 8.49902v5v7l-1 1c-0.666992 0 -1.33398 1.5 -2.00098 4.5s-1.33398 5.5 -2.00098 7.5v9
c0 6.66699 -0.333008 10.334 -1 11.001v3l-1.5 7.5c-0.333008 1.66699 -0.5 2.83398 -0.5 3.50098c0 4 -2 7.66699 -6 11c-2 1.33301 -4.33301 2.33301 -7 3s-4.66699 1.66699 -6 3h-22h-1v1v2l10 12c0.666992 2 1.5 4 2.5 6s1.5 4.66699 1.5 8v3v2
c-1.33301 1.33301 -3.83301 3.16602 -7.5 5.49902s-6.5 2.83301 -8.5 1.5c-4.66699 3.33301 -8 6.33301 -10 9s-5.66699 6 -11 10c-3.33301 4 -8.5 6.66699 -15.5 8s-13.167 2 -18.5 2c-7.33301 0 -12.333 -1.33301 -15 -4s-6.33398 -6 -11.001 -10l-2 -2
c-0.666992 0 -1 -0.666992 -1 -2c-0.666992 -0.666992 -1 -1.66699 -1 -3l-4 -5.5c-2.66699 -3.66699 -4.66699 -5.5 -6 -5.5c-2 -2 -4.16699 -3.16699 -6.5 -3.5s-4.83301 -1.5 -7.5 -3.5c-4 -3.33301 -7.83301 -8.33301 -11.5 -15s-5.5 -13 -5.5 -19v-1
c2.66699 -5.33301 7.66699 -9.66602 15 -12.999c3.33301 -2.66699 6.16602 -5.83398 8.49902 -9.50098s4.83301 -6.5 7.5 -8.5c0.666992 -2 2 -3 4 -3c4 -3.33301 7.16699 -6.16602 9.5 -8.49902s5.5 -5.16602 9.5 -8.49902c5.33301 -4.66699 10.333 -10.334 15 -17.001
s10.334 -13 17.001 -19c1.33301 -7.33301 4.66602 -14.333 9.99902 -21s9.33301 -14.334 12 -23.001c2.66699 -5.33301 4.33398 -10.833 5.00098 -16.5s1.66699 -11.5 3 -17.5c2.66699 -4.66699 4 -10.334 4 -17.001c0 -5.33301 -0.666992 -10.333 -2 -15
s-2.66602 -10 -3.99902 -16v-10c-0.666992 -2.66699 -2.66699 -5.5 -6 -8.5s-7 -5.83301 -11 -8.5s-8.33301 -5.16699 -13 -7.5l-11 -5.5h-2zM292.99 207.999c0 -3.33301 1 -5 3 -5s3 0.333008 3 1c0 2.66699 -2 4 -6 4zM327.99 299.999c0 2.66699 1.33301 4.83301 4 6.5
s5 2.5 7 2.5h2v-3v-14v-2h-1h-1c-2.66699 0 -4 0.666992 -4 2c0 0.666992 -0.666992 1.66699 -2 3l-2 0.5c-1.33301 0.333008 -2 0.833008 -2 1.5h-1v1v2zM534.99 342.998l0.00292969 2c0 6 1.66699 9 5 9c2.66699 0 4 -3 4 -9v-1c0 -0.666992 -0.666992 -1 -2 -1
c-0.666992 0 -1.33398 0.333008 -2.00098 1s-1.66699 1 -3 1l2 -5c-0.666992 0.666992 -1.33398 1.16699 -2.00098 1.5s-1.33398 0.833008 -2.00098 1.5zM377.993 358.998c0.666992 -0.666992 1 -1.33398 1 -2.00098c2 -1.33301 3 -0.666016 3 2.00098v1v1h-2
c-1.33301 0 -2 -0.666992 -2 -2zM402.993 364.998c0 -2 0.666992 -3 2 -3s2 1 2 3c0 1.33301 -0.666992 2 -2 2s-2 -0.666992 -2 -2zM279.993 481.998c-2 0 -3 -2 -3 -6h3v6zM280.993 612.998c0 1.33301 0.666992 2 2 2h4v-3h-3h-3v1z" />
    <glyph glyph-name="FL00BFh" unicode="&#xbf;" horiz-adv-x="359" 
d="M119 0c-30 0 -53 7.5 -69 22.5s-24 37.5 -24 67.5v232c0 30 8 52.5 24 67.5s39 22.5 69 22.5h50v100h128v-140c0 -30 -8 -52.5 -24 -67.5s-39 -22.5 -69 -22.5h-50v-152h179v-130h-214zM297 574h-128v130h128v-130z" />
    <glyph glyph-name="FL00C0h" unicode="&#xc0;" horiz-adv-x="460" 
d="M249 870h-128l63 -130h120zM173 68l4 7.00586c2.66699 4.66699 4.33398 7.66699 5.00098 9l-1 15l7 7l0.5 1c0.333008 0.666992 0.5 1.33398 0.5 2.00098s-0.166992 1.33398 -0.5 2.00098l-0.5 1v12c0 7.33301 -0.333008 11.333 -1 12l-3 -6v-3
c0 -1.33301 -0.333008 -4 -1 -8s-1.5 -8.16699 -2.5 -12.5s-2.16699 -8.33301 -3.5 -12s-2.33301 -5.5 -3 -5.5l2 28c0.666992 0.666992 1.16699 2.5 1.5 5.5s0.5 4.83301 0.5 5.5v2h-1v45l4 19c4 0.666992 6 4.33398 6 11.001v4l-1 3l-17 -33
c-1.33301 -1.33301 -2 -2.66602 -2 -3.99902l2 -15c0 -4.66699 -1 -7 -3 -7l-2 1l-2 6h-2l6 -16c0 -3.33301 -1 -5 -3 -5h-1c-2 0 -4.66699 3.33301 -8 10s-5 11.667 -5 15c0 1.33301 0.333008 3.16602 1 5.49902s1 4.83301 1 7.5l-4 7c0.666992 4.66699 2 9.16699 4 13.5
s3 9.16602 3 14.499c0 0.666992 -0.166992 1.16699 -0.5 1.5l-0.5 0.5c-0.666992 -1.33301 -1.16699 -3 -1.5 -5s-1.16602 -3.33301 -2.49902 -4l-6 -1.5l-2 -0.5h1c-2 0 -3.33301 -1.33301 -4 -4l-30 -21h-3c-2 0 -3.66699 0.666992 -5 2s-2.66602 2 -3.99902 2
c-2 0 -3.83301 -1.16699 -5.5 -3.5s-2.83398 -4.83301 -3.50098 -7.5l-4 -22h-1l2 25h-13c2 1.33301 4.33301 2.16602 7 2.49902s4.66699 0.833008 6 1.5v1l-7 5h3c4.66699 0 8.33398 1.16699 11.001 3.5s4.83398 4.83301 6.50098 7.5l4.5 7.5c1.33301 2.33301 3 3.5 5 3.5
l9 -1c3.33301 0 6.5 0.666992 9.5 2s5.83301 2.66602 8.5 3.99902l15 14l7 9c2 2 4.83301 4.16699 8.5 6.5s5.5 4.5 5.5 6.5l-1 1l-4 -1l-25 -27c-5.33301 -4 -9.33301 -6 -12 -6l24 24c3.33301 3.33301 6.16602 7 8.49902 11s5.5 7.66699 9.5 11v5l7 20
c-0.666992 0 -2 0.166992 -4 0.5l-3 0.5c-0.666992 0 -1 0.666992 -1 2v2c0 9.33301 2.5 17.666 7.5 24.999s11.167 13.333 18.5 18c1.33301 1.33301 2.66602 3.66602 3.99902 6.99902c2 2 4.66699 3 8 3c4 0 6 0.666992 6 2l-7 31c0 9.33301 2.83301 17.5 8.5 24.5
s13.5 10.5 23.5 10.5c7.33301 0 13 -2.33301 17 -7s6.66699 -10.334 8 -17.001l5 -31c0 -0.666992 -0.333008 -1.5 -1 -2.5l-1 -1.5v-1c0 -2.66699 2.16699 -4.83398 6.5 -6.50098s7.83301 -2.5 10.5 -2.5s5.66699 2.66699 9 8c1.33301 3.33301 3 9 5 17
s3.66699 12.667 5 14c2.66699 7.33301 4.33398 14.666 5.00098 21.999s1 15 1 23h1c1.33301 0 2.33301 -1.66699 3 -5s1.5 -6.83301 2.5 -10.5s2.5 -7.16699 4.5 -10.5s5.33301 -5 10 -5c2 0 4.16699 0.5 6.5 1.5s4.83301 1.5 7.5 1.5c0 -2 -1.5 -4.5 -4.5 -7.5
s-6.5 -6 -10.5 -9s-7.66699 -6 -11 -9s-5.33301 -5.5 -6 -7.5c-0.666992 0 -1.33398 -1.66699 -2.00098 -5s-1.66699 -5.66602 -3 -6.99902l-6 -16c4.66699 -5.33301 8.83398 -9.16602 12.501 -11.499s6.5 -7.16602 8.5 -14.499l-1 -28l0.5 -1
c0.333008 -0.666992 0.5 -1.33398 0.5 -2.00098h-5v-3c0.666992 -0.666992 1 -1.66699 1 -3v-3l1.5 -2c1 -1.33301 1.5 -2.33301 1.5 -3l1.5 -7.5l0.5 -2.5l2 -9v-11c2 -2 3.16699 -3.5 3.5 -4.5s0.5 -2.5 0.5 -4.5v-3c0 -1.33301 -0.333008 -2.33301 -1 -3l-6 -27
c-2 -1.33301 -3 -3.33301 -3 -6c0 -2 -1.33301 -3.33301 -4 -4v-13c-2.66699 -2.66699 -4.33398 -5.83398 -5.00098 -9.50098s-2.66699 -6.83398 -6 -9.50098h-5l-3 -3l-6 -1c-0.666992 -2 -1.5 -6.5 -2.5 -13.5s-1.5 -11.5 -1.5 -13.5v-18l-4 -20l-4 -51
c-3.33301 -5.33301 -5.83301 -10.333 -7.5 -15s-2.5 -10.334 -2.5 -17.001h178l-148 704h-133l-148 -704h190l-8 24c-0.666992 3.33301 -2.16699 4.66602 -4.5 3.99902s-4.16602 2.33301 -5.49902 9l-5 35c2.66699 0.666992 4.5 2.83398 5.5 6.50098s1.5 7.16699 1.5 10.5
c0 4 -0.666992 6 -2 6c-0.666992 0 -1.33398 -1 -2.00098 -3l1 -6l-7 -13c-0.666992 -0.666992 -1.83398 -1.66699 -3.50098 -3s-2.83398 -2 -3.50098 -2zM238 98.0059c-0.666992 -2 -1.66699 -4.83301 -3 -8.5s-2 -6.5 -2 -8.5c0.666992 -3.33301 1.16699 -6.33301 1.5 -9
s0.5 -5 0.5 -7l-1 -9c0.666992 -0.666992 1 -2 1 -4v-37c0 -9.33301 0.333008 -14.333 1 -15h3c-0.666992 0.666992 -1 5 -1 13v20c1.33301 1.33301 2 3.33301 2 6l-2 7c0 2.66699 0.333008 5.16699 1 7.5s1 4.5 1 6.5v35zM289 245.006v-14c0 -7.33301 2.33301 -11 7 -11
c0 4.66699 -0.166992 9.5 -0.5 14.5s-1.5 9.5 -3.5 13.5zM133 203.006c-2 -1.33301 -4.66699 -2.66602 -8 -3.99902l-10 -4c-3.33301 -1.33301 -6.33301 -3 -9 -5s-4 -4 -4 -6c3.33301 0 5.83301 1.16699 7.5 3.5s3.83398 4.16602 6.50098 5.49902l2 1
c3.33301 1.33301 6.16602 2.33301 8.49902 3s4.5 2.66699 6.5 6zM289 203.006l1 -3c1.33301 -1.33301 2 -3.33301 2 -6h2l1 12l-2 2zM160 229.006c-2.66699 -2 -5.49902 -4.5 -8.49902 -7.5s-5.5 -6.5 -7.5 -10.5c2 2.66699 4.66699 5.5 8 8.5s6.66602 4.83301 9.99902 5.5
v2c0 1.33301 -0.666992 2 -2 2z" />
    <glyph glyph-name="FL00C1h" unicode="&#xc1;" horiz-adv-x="461" 
d="M157 740h120l63 130h-128zM173 68l4 7.00586c2.66699 4.66699 4.33398 7.66699 5.00098 9l-1 15l7 7l0.5 1c0.333008 0.666992 0.5 1.33398 0.5 2.00098s-0.166992 1.33398 -0.5 2.00098l-0.5 1v12c0 7.33301 -0.333008 11.333 -1 12l-3 -6v-3
c0 -1.33301 -0.333008 -4 -1 -8s-1.5 -8.16699 -2.5 -12.5s-2.16699 -8.33301 -3.5 -12s-2.33301 -5.5 -3 -5.5l2 28c0.666992 0.666992 1.16699 2.5 1.5 5.5s0.5 4.83301 0.5 5.5v2h-1v45l4 19c4 0.666992 6 4.33398 6 11.001v4l-1 3l-17 -33
c-1.33301 -1.33301 -2 -2.66602 -2 -3.99902l2 -15c0 -4.66699 -1 -7 -3 -7l-2 1l-2 6h-2l6 -16c0 -3.33301 -1 -5 -3 -5h-1c-2 0 -4.66699 3.33301 -8 10s-5 11.667 -5 15c0 1.33301 0.333008 3.16602 1 5.49902s1 4.83301 1 7.5l-4 7c0.666992 4.66699 2 9.16699 4 13.5
s3 9.16602 3 14.499c0 0.666992 -0.166992 1.16699 -0.5 1.5l-0.5 0.5c-0.666992 -1.33301 -1.16699 -3 -1.5 -5s-1.16602 -3.33301 -2.49902 -4l-6 -1.5l-2 -0.5h1c-2 0 -3.33301 -1.33301 -4 -4l-30 -21h-3c-2 0 -3.66699 0.666992 -5 2s-2.66602 2 -3.99902 2
c-2 0 -3.83301 -1.16699 -5.5 -3.5s-2.83398 -4.83301 -3.50098 -7.5l-4 -22h-1l2 25h-13c2 1.33301 4.33301 2.16602 7 2.49902s4.66699 0.833008 6 1.5v1l-7 5h3c4.66699 0 8.33398 1.16699 11.001 3.5s4.83398 4.83301 6.50098 7.5l4.5 7.5c1.33301 2.33301 3 3.5 5 3.5
l9 -1c3.33301 0 6.5 0.666992 9.5 2s5.83301 2.66602 8.5 3.99902l15 14l7 9c2 2 4.83301 4.16699 8.5 6.5s5.5 4.5 5.5 6.5l-1 1l-4 -1l-25 -27c-5.33301 -4 -9.33301 -6 -12 -6l24 24c3.33301 3.33301 6.16602 7 8.49902 11s5.5 7.66699 9.5 11v5l7 20
c-0.666992 0 -2 0.166992 -4 0.5l-3 0.5c-0.666992 0 -1 0.666992 -1 2v2c0 9.33301 2.5 17.666 7.5 24.999s11.167 13.333 18.5 18c1.33301 1.33301 2.66602 3.66602 3.99902 6.99902c2 2 4.66699 3 8 3c4 0 6 0.666992 6 2l-7 31c0 9.33301 2.83301 17.5 8.5 24.5
s13.5 10.5 23.5 10.5c7.33301 0 13 -2.33301 17 -7s6.66699 -10.334 8 -17.001l5 -31c0 -0.666992 -0.333008 -1.5 -1 -2.5l-1 -1.5v-1c0 -2.66699 2.16699 -4.83398 6.5 -6.50098s7.83301 -2.5 10.5 -2.5s5.66699 2.66699 9 8c1.33301 3.33301 3 9 5 17
s3.66699 12.667 5 14c2.66699 7.33301 4.33398 14.666 5.00098 21.999s1 15 1 23h1c1.33301 0 2.33301 -1.66699 3 -5s1.5 -6.83301 2.5 -10.5s2.5 -7.16699 4.5 -10.5s5.33301 -5 10 -5c2 0 4.16699 0.5 6.5 1.5s4.83301 1.5 7.5 1.5c0 -2 -1.5 -4.5 -4.5 -7.5
s-6.5 -6 -10.5 -9s-7.66699 -6 -11 -9s-5.33301 -5.5 -6 -7.5c-0.666992 0 -1.33398 -1.66699 -2.00098 -5s-1.66699 -5.66602 -3 -6.99902l-6 -16c4.66699 -5.33301 8.83398 -9.16602 12.501 -11.499s6.5 -7.16602 8.5 -14.499l-1 -28l0.5 -1
c0.333008 -0.666992 0.5 -1.33398 0.5 -2.00098h-5v-3c0.666992 -0.666992 1 -1.66699 1 -3v-3l1.5 -2c1 -1.33301 1.5 -2.33301 1.5 -3l1.5 -7.5l0.5 -2.5l2 -9v-11c2 -2 3.16699 -3.5 3.5 -4.5s0.5 -2.5 0.5 -4.5v-3c0 -1.33301 -0.333008 -2.33301 -1 -3l-6 -27
c-2 -1.33301 -3 -3.33301 -3 -6c0 -2 -1.33301 -3.33301 -4 -4v-13c-2.66699 -2.66699 -4.33398 -5.83398 -5.00098 -9.50098s-2.66699 -6.83398 -6 -9.50098h-5l-3 -3l-6 -1c-0.666992 -2 -1.5 -6.5 -2.5 -13.5s-1.5 -11.5 -1.5 -13.5v-18l-4 -20l-4 -51
c-3.33301 -5.33301 -5.83301 -10.333 -7.5 -15s-2.5 -10.334 -2.5 -17.001h178l-148 704h-133l-148 -704h190l-8 24c-0.666992 3.33301 -2.16699 4.66602 -4.5 3.99902s-4.16602 2.33301 -5.49902 9l-5 35c2.66699 0.666992 4.5 2.83398 5.5 6.50098s1.5 7.16699 1.5 10.5
c0 4 -0.666992 6 -2 6c-0.666992 0 -1.33398 -1 -2.00098 -3l1 -6l-7 -13c-0.666992 -0.666992 -1.83398 -1.66699 -3.50098 -3s-2.83398 -2 -3.50098 -2zM238 98.0059c-0.666992 -2 -1.66699 -4.83301 -3 -8.5s-2 -6.5 -2 -8.5c0.666992 -3.33301 1.16699 -6.33301 1.5 -9
s0.5 -5 0.5 -7l-1 -9c0.666992 -0.666992 1 -2 1 -4v-37c0 -9.33301 0.333008 -14.333 1 -15h3c-0.666992 0.666992 -1 5 -1 13v20c1.33301 1.33301 2 3.33301 2 6l-2 7c0 2.66699 0.333008 5.16699 1 7.5s1 4.5 1 6.5v35zM289 245.006v-14c0 -7.33301 2.33301 -11 7 -11
c0 4.66699 -0.166992 9.5 -0.5 14.5s-1.5 9.5 -3.5 13.5zM133 203.006c-2 -1.33301 -4.66699 -2.66602 -8 -3.99902l-10 -4c-3.33301 -1.33301 -6.33301 -3 -9 -5s-4 -4 -4 -6c3.33301 0 5.83301 1.16699 7.5 3.5s3.83398 4.16602 6.50098 5.49902l2 1
c3.33301 1.33301 6.16602 2.33301 8.49902 3s4.5 2.66699 6.5 6zM289 203.006l1 -3c1.33301 -1.33301 2 -3.33301 2 -6h2l1 12l-2 2zM160 229.006c-2.66699 -2 -5.49902 -4.5 -8.49902 -7.5s-5.5 -6.5 -7.5 -10.5c2 2.66699 4.66699 5.5 8 8.5s6.66602 4.83301 9.99902 5.5
v2c0 1.33301 -0.666992 2 -2 2z" />
    <glyph glyph-name="FL00C2h" unicode="&#xc2;" horiz-adv-x="461" 
d="M316 870h-171l-59 -130h120l24 51l25 -51h120zM173 68l4 7.00684c2.66699 4.66699 4.33398 7.66699 5.00098 9l-1 15l7 7l0.5 1c0.333008 0.666992 0.5 1.33398 0.5 2.00098s-0.166992 1.33398 -0.5 2.00098l-0.5 1v12c0 7.33301 -0.333008 11.333 -1 12l-3 -6v-3
c0 -1.33301 -0.333008 -4 -1 -8s-1.5 -8.16699 -2.5 -12.5s-2.16699 -8.33301 -3.5 -12s-2.33301 -5.5 -3 -5.5l2 28c0.666992 0.666992 1.16699 2.5 1.5 5.5s0.5 4.83301 0.5 5.5v2h-1v45l4 19c3.33301 0.666992 5.16602 3 5.49902 7s0.5 7 0.5 9l-1 2l-17 -33
c-1.33301 -1.33301 -2 -2.66602 -2 -3.99902l2 -15c0 -4.66699 -1 -7 -3 -7l-2 1l-2 6h-2l6 -16c0 -3.33301 -1 -5 -3 -5h-1c-2 0 -4.66699 3.33301 -8 10s-5 11.667 -5 15c0 1.33301 0.333008 3.16602 1 5.49902s1 4.83301 1 7.5c0 1.33301 -0.666992 2.5 -2 3.5
s-2 2.16699 -2 3.5c0.666992 4.66699 2 9.16699 4 13.5s3 9.16602 3 14.499c0 0.666992 -0.166992 1.16699 -0.5 1.5l-0.5 0.5c-0.666992 -1.33301 -1.16699 -3 -1.5 -5s-1.16602 -3.33301 -2.49902 -4c-3.33301 -0.666992 -5.66602 -1.16699 -6.99902 -1.5
s-1.33301 -0.5 0 -0.5c-2 0 -3.33301 -1.33301 -4 -4l-30 -21h-3c-2 0 -3.66699 0.666992 -5 2s-2.66602 2 -3.99902 2c-2 0 -3.83301 -1.16699 -5.5 -3.5s-2.83398 -4.83301 -3.50098 -7.5l-4 -22h-1l2 25h-13c2 1.33301 4.33301 2.16602 7 2.49902s4.66699 0.833008 6 1.5
v1l-7 5h3c4.66699 0 8.33398 1.16699 11.001 3.5s4.83398 4.83301 6.50098 7.5l4.5 7.5c1.33301 2.33301 3 3.5 5 3.5l9 -1c3.33301 0 6.5 0.666992 9.5 2s5.83301 2.66602 8.5 3.99902l15 14l7 9c2 2 4.83301 4.16699 8.5 6.5s5.5 4.5 5.5 6.5l-1 1l-4 -1l-24 -26
l-6.5 -4.5c-2.33301 -1.66699 -4.5 -2.5 -6.5 -2.5l24 24c3.33301 3.33301 6.16602 7 8.49902 11s5.5 7.66699 9.5 11v5l7 20c-0.666992 0 -2 0.166992 -4 0.5l-3 0.5c-0.666992 0 -1 0.666992 -1 2v2c0 9.33301 2.5 17.666 7.5 24.999s11.167 13.333 18.5 18
c1.33301 1.33301 2.66602 3.66602 3.99902 6.99902c2 2 4.66699 3 8 3c4 0 6 0.666992 6 2l-7 31c0 9.33301 2.83301 17.5 8.5 24.5s13.5 10.5 23.5 10.5c7.33301 0 13 -2.33301 17 -7s6.66699 -10.334 8 -17.001l5 -31c0 -0.666992 -0.333008 -1.5 -1 -2.5l-1 -1.5v-1
c0 -2.66699 2.16699 -4.83398 6.5 -6.50098s7.83301 -2.5 10.5 -2.5s5.66699 2.66699 9 8c1.33301 3.33301 3 9 5 17s3.66699 12.667 5 14c2.66699 7.33301 4.33398 14.666 5.00098 21.999s1 15 1 23h1c1.33301 0 2.33301 -1.66699 3 -5s1.5 -6.83301 2.5 -10.5
s2.5 -7.16699 4.5 -10.5s5.33301 -5 10 -5c2 0 4.16699 0.5 6.5 1.5s4.83301 1.5 7.5 1.5c0 -2 -1.5 -4.5 -4.5 -7.5s-6.5 -6 -10.5 -9s-7.66699 -6 -11 -9s-5.33301 -5.5 -6 -7.5c-0.666992 0 -1.33398 -1.66699 -2.00098 -5s-1.66699 -5.66602 -3 -6.99902
c-0.666992 -1.33301 -1.66699 -4 -3 -8s-2.33301 -6.66699 -3 -8c4.66699 -5.33301 8.83398 -9.16602 12.501 -11.499s6.5 -7.16602 8.5 -14.499l-1 -28l0.5 -1c0.333008 -0.666992 0.5 -1.33398 0.5 -2.00098h-5v-3c0.666992 -0.666992 1 -1.66699 1 -3v-3l1.5 -2
c1 -1.33301 1.5 -2.33301 1.5 -3l1.5 -7.5l0.5 -2.5c0 0.666992 0.166992 0.166992 0.5 -1.5l1.5 -7.5v-11c2 -2 3.16699 -3.5 3.5 -4.5s0.5 -2.5 0.5 -4.5v-3c0 -1.33301 -0.333008 -2.33301 -1 -3l-6 -27c-2 -1.33301 -3 -3.33301 -3 -6c0 -2 -1.33301 -3.33301 -4 -4v-13
c-2.66699 -2.66699 -4.33398 -5.83398 -5.00098 -9.50098s-2.66699 -6.83398 -6 -9.50098h-5l-3 -3l-6 -1c-0.666992 -2 -1.5 -6.5 -2.5 -13.5s-1.5 -11.5 -1.5 -13.5v-18l-4 -20l-4 -51c-3.33301 -5.33301 -5.83301 -10.333 -7.5 -15s-2.5 -10.334 -2.5 -17.001h178
l-148 704h-133l-148 -704h190l-8 24c-0.666992 3.33301 -2.16699 4.66602 -4.5 3.99902s-4.16602 2.33301 -5.49902 9l-5 35c2.66699 0.666992 4.5 2.83398 5.5 6.50098s1.5 7.16699 1.5 10.5c0 4 -0.666992 6 -2 6c-0.666992 0 -1.33398 -1 -2.00098 -3l1 -6l-7 -13
c-0.666992 -0.666992 -1.83398 -1.66699 -3.50098 -3s-2.83398 -2 -3.50098 -2zM238 98.0068c-0.666992 -2 -1.66699 -4.83301 -3 -8.5s-2 -6.5 -2 -8.5c0.666992 -3.33301 1.16699 -6.33301 1.5 -9s0.5 -5 0.5 -7l-1 -9c0.666992 -0.666992 1 -2 1 -4v-21v-16
c0 -9.33301 0.333008 -14.333 1 -15h3c-0.666992 0.666992 -1 5 -1 13v12v8c1.33301 1.33301 2 3.33301 2 6l-2 7c0 2.66699 0.333008 5.16699 1 7.5s1 4.5 1 6.5v35zM289 245.007v-14c0 -7.33301 2.33301 -11 7 -11c0 4.66699 -0.166992 9.5 -0.5 14.5s-1.5 9.5 -3.5 13.5z
M133 203.007c-2 -1.33301 -4.66699 -2.66602 -8 -3.99902l-10 -4c-3.33301 -1.33301 -6.33301 -3 -9 -5s-4 -4 -4 -6c3.33301 0 5.83301 1.16699 7.5 3.5s3.83398 4.16602 6.50098 5.49902l2 1c3.33301 1.33301 6.16602 2.33301 8.49902 3s4.5 2.66699 6.5 6zM289 203.007
l1 -3c1.33301 -1.33301 2 -3.33301 2 -6h2l1 12l-2 2zM160 229.007c-2.66699 -2 -5.49902 -4.5 -8.49902 -7.5s-5.5 -6.5 -7.5 -10.5c2 2.66699 4.66699 5.5 8 8.5s6.66602 4.83301 9.99902 5.5v1h1l-1 1c0 1.33301 -0.666992 2 -2 2z" />
    <glyph glyph-name="FL00C3h" unicode="&#xc3;" horiz-adv-x="461" 
d="M201 740h119l59 130h-72l-23 -51l-23 51h-120l-59 -130h72l23 51zM173 68l4 7.00684c2.66699 4.66699 4.33398 7.66699 5.00098 9l-1 15l7 7l0.5 1c0.333008 0.666992 0.5 1.33398 0.5 2.00098s-0.166992 1.33398 -0.5 2.00098l-0.5 1v12
c0 7.33301 -0.333008 11.333 -1 12l-3 -6v-3c0 -1.33301 -0.333008 -4 -1 -8s-1.5 -8.16699 -2.5 -12.5s-2.16699 -8.33301 -3.5 -12s-2.33301 -5.5 -3 -5.5l2 28c0.666992 0.666992 1.16699 2.5 1.5 5.5s0.5 4.83301 0.5 5.5v2h-1v45l4 19
c3.33301 0.666992 5.16602 2.66699 5.49902 6s0.5 6.33301 0.5 9l-1 3l-17 -33c-1.33301 -1.33301 -2 -2.66602 -2 -3.99902l2 -15c0 -4.66699 -1 -7 -3 -7l-2 1l-2 6h-2l6 -16c0 -3.33301 -1 -5 -3 -5h-1c-2 0 -4.66699 3.33301 -8 10s-5 11.667 -5 15
c0 1.33301 0.333008 3.16602 1 5.49902s1 4.83301 1 7.5l-4 7c0.666992 4.66699 2 9.16699 4 13.5s3 9.16602 3 14.499c0 0.666992 -0.166992 1.16699 -0.5 1.5l-0.5 0.5c-0.666992 -1.33301 -1.16699 -3 -1.5 -5s-1.16602 -3.33301 -2.49902 -4
c-3.33301 -0.666992 -5.66602 -1.16699 -6.99902 -1.5s-1.33301 -0.5 0 -0.5c-2 0 -3.33301 -1.33301 -4 -4l-30 -21h-3c-2 0 -3.66699 0.666992 -5 2s-2.66602 2 -3.99902 2c-2 0 -3.83301 -1.16699 -5.5 -3.5s-2.83398 -4.83301 -3.50098 -7.5l-4 -22h-1l2 25h-13
c2 1.33301 4.33301 2.16602 7 2.49902s4.66699 0.833008 6 1.5v1l-7 5h3c4.66699 0 8.33398 1.16699 11.001 3.5s4.83398 4.83301 6.50098 7.5l4.5 7.5c1.33301 2.33301 3 3.5 5 3.5l9 -1c3.33301 0 6.5 0.666992 9.5 2s5.83301 2.66602 8.5 3.99902l15 14l7 9
c2 2 4.83301 4.16699 8.5 6.5s5.5 4.5 5.5 6.5l-1 1l-4 -1l-25 -27c-5.33301 -4 -9.33301 -6 -12 -6l24 24c3.33301 3.33301 6.16602 7 8.49902 11s5.5 7.66699 9.5 11v5l7 20c-0.666992 0 -2 0.166992 -4 0.5l-3 0.5c-0.666992 0 -1 0.666992 -1 2v2
c0 9.33301 2.5 17.666 7.5 24.999s11.167 13.333 18.5 18c1.33301 1.33301 2.66602 3.66602 3.99902 6.99902c2 2 4.66699 3 8 3c4 0 6 0.666992 6 2l-7 31c0 9.33301 2.83301 17.5 8.5 24.5s13.5 10.5 23.5 10.5c7.33301 0 13 -2.33301 17 -7s6.66699 -10.334 8 -17.001
l5 -31c0 -0.666992 -0.333008 -1.5 -1 -2.5l-1 -1.5v-1c0 -2.66699 2.16699 -4.83398 6.5 -6.50098s7.83301 -2.5 10.5 -2.5s5.66699 2.66699 9 8c1.33301 3.33301 3 9 5 17s3.66699 12.667 5 14c2.66699 7.33301 4.33398 14.666 5.00098 21.999s1 15 1 23h1
c1.33301 0 2.33301 -1.66699 3 -5s1.5 -6.83301 2.5 -10.5s2.5 -7.16699 4.5 -10.5s5.33301 -5 10 -5c2 0 4.16699 0.5 6.5 1.5s4.83301 1.5 7.5 1.5c0 -2 -1.5 -4.5 -4.5 -7.5s-6.5 -6 -10.5 -9s-7.66699 -6 -11 -9s-5.33301 -5.5 -6 -7.5
c-0.666992 0 -1.33398 -1.66699 -2.00098 -5s-1.66699 -5.66602 -3 -6.99902l-6 -16c4.66699 -5.33301 8.83398 -9.16602 12.501 -11.499s6.5 -7.16602 8.5 -14.499l-1 -28l0.5 -1c0.333008 -0.666992 0.5 -1.33398 0.5 -2.00098h-5v-3c0.666992 -0.666992 1 -1.66699 1 -3
v-3l1.5 -2c1 -1.33301 1.5 -2.33301 1.5 -3l1.5 -7.5l0.5 -2.5c0 0.666992 0.166992 0.166992 0.5 -1.5l1.5 -7.5v-11c2 -2 3.16699 -3.5 3.5 -4.5s0.5 -2.5 0.5 -4.5v-3c0 -1.33301 -0.333008 -2.33301 -1 -3l-6 -27c-2 -1.33301 -3 -3.33301 -3 -6
c0 -2 -1.33301 -3.33301 -4 -4v-13c-2.66699 -2.66699 -4.33398 -5.83398 -5.00098 -9.50098s-2.66699 -6.83398 -6 -9.50098h-5l-3 -3l-6 -1c-0.666992 -2 -1.5 -6.5 -2.5 -13.5s-1.5 -11.5 -1.5 -13.5v-18l-4 -20l-4 -51c-3.33301 -5.33301 -5.83301 -10.333 -7.5 -15
s-2.5 -10.334 -2.5 -17.001h178l-148 704h-133l-148 -704h190l-8 24c-0.666992 3.33301 -2.16699 4.66602 -4.5 3.99902s-4.16602 2.33301 -5.49902 9l-5 35c2.66699 0.666992 4.5 2.83398 5.5 6.50098s1.5 7.16699 1.5 10.5c0 4 -0.666992 6 -2 6
c-0.666992 0 -1.33398 -1 -2.00098 -3l1 -6l-7 -13c-0.666992 -0.666992 -1.83398 -1.66699 -3.50098 -3s-2.83398 -2 -3.50098 -2zM238 98.0068c-0.666992 -2 -1.66699 -4.83301 -3 -8.5s-2 -6.5 -2 -8.5c0.666992 -3.33301 1.16699 -6.33301 1.5 -9s0.5 -5 0.5 -7l-1 -9
c0.666992 -0.666992 1 -2 1 -4v-37c0 -9.33301 0.333008 -14.333 1 -15h3c-0.666992 0.666992 -1 5 -1 13v20c1.33301 1.33301 2 3.33301 2 6l-2 7c0 2.66699 0.333008 5.16699 1 7.5s1 4.5 1 6.5v35zM289 245.007v-14c0 -7.33301 2.33301 -11 7 -11
c0 4.66699 -0.166992 9.5 -0.5 14.5s-1.5 9.5 -3.5 13.5zM133 203.007c-2 -1.33301 -4.66699 -2.66602 -8 -3.99902l-10 -4c-3.33301 -1.33301 -6.33301 -3 -9 -5s-4 -4 -4 -6c3.33301 0 5.83301 1.16699 7.5 3.5s3.83398 4.16602 6.50098 5.49902l2 1
c3.33301 1.33301 6.16602 2.33301 8.49902 3s4.5 2.66699 6.5 6zM289 203.007l1 -3c1.33301 -1.33301 2 -3.33301 2 -6h2l1 12l-2 2zM160 229.007c-2.66699 -2 -5.49902 -4.5 -8.49902 -7.5s-5.5 -6.5 -7.5 -10.5c2 2.66699 4.66699 5.5 8 8.5s6.66602 4.83301 9.99902 5.5
v2c0 1.33301 -0.666992 2 -2 2z" />
    <glyph glyph-name="FL00C4h" unicode="&#xc4;" horiz-adv-x="461" 
d="M373 870h-128v-130h128v130zM216 870h-128v-130h128v130zM173 68l4 7.00684c2.66699 4.66699 4.33398 7.66699 5.00098 9l-1 15l7 7l0.5 1c0.333008 0.666992 0.5 1.33398 0.5 2.00098s-0.166992 1.33398 -0.5 2.00098l-0.5 1v12c0 7.33301 -0.333008 11.333 -1 12l-3 -6
v-3c0 -1.33301 -0.333008 -4 -1 -8s-1.5 -8.16699 -2.5 -12.5s-2.16699 -8.33301 -3.5 -12s-2.33301 -5.5 -3 -5.5l2 28c0.666992 0.666992 1.16699 2.5 1.5 5.5s0.5 4.83301 0.5 5.5v2h-1v45l4 19c3.33301 0.666992 5.16602 3 5.49902 7s0.5 7 0.5 9l-1 2l-17 -33
c-1.33301 -1.33301 -2 -2.66602 -2 -3.99902l2 -15c0 -4.66699 -1 -7 -3 -7l-2 1l-2 6h-2l6 -16c0 -3.33301 -1 -5 -3 -5h-1c-2 0 -4.66699 3.33301 -8 10s-5 11.667 -5 15c0 1.33301 0.333008 3.16602 1 5.49902s1 4.83301 1 7.5c0 1.33301 -0.666992 2.5 -2 3.5
s-2 2.16699 -2 3.5c0.666992 4.66699 2 9.16699 4 13.5s3 9.16602 3 14.499c0 0.666992 -0.166992 1.16699 -0.5 1.5l-0.5 0.5c-0.666992 -1.33301 -1.16699 -3 -1.5 -5s-1.16602 -3.33301 -2.49902 -4c-3.33301 -0.666992 -5.66602 -1.16699 -6.99902 -1.5
s-1.33301 -0.5 0 -0.5c-2 0 -3.33301 -1.33301 -4 -4l-30 -21h-3c-2 0 -3.66699 0.666992 -5 2s-2.66602 2 -3.99902 2c-2 0 -3.83301 -1.16699 -5.5 -3.5s-2.83398 -4.83301 -3.50098 -7.5l-4 -22h-1l2 25h-13c2 1.33301 4.33301 2.16602 7 2.49902s4.66699 0.833008 6 1.5
v1l-7 5h3c4.66699 0 8.33398 1.16699 11.001 3.5s4.83398 4.83301 6.50098 7.5l4.5 7.5c1.33301 2.33301 3 3.5 5 3.5l9 -1c3.33301 0 6.5 0.666992 9.5 2s5.83301 2.66602 8.5 3.99902l15 14l7 9c2 2 4.83301 4.16699 8.5 6.5s5.5 4.5 5.5 6.5l-1 1l-4 -1l-24 -26
l-6.5 -4.5c-2.33301 -1.66699 -4.5 -2.5 -6.5 -2.5l24 24c3.33301 3.33301 6.16602 7 8.49902 11s5.5 7.66699 9.5 11v5l7 20c-0.666992 0 -2 0.166992 -4 0.5l-3 0.5c-0.666992 0 -1 0.666992 -1 2v2c0 9.33301 2.5 17.666 7.5 24.999s11.167 13.333 18.5 18
c1.33301 1.33301 2.66602 3.66602 3.99902 6.99902c2 2 4.66699 3 8 3c4 0 6 0.666992 6 2l-7 31c0 9.33301 2.83301 17.5 8.5 24.5s13.5 10.5 23.5 10.5c7.33301 0 13 -2.33301 17 -7s6.66699 -10.334 8 -17.001l5 -31c0 -0.666992 -0.333008 -1.5 -1 -2.5l-1 -1.5v-1
c0 -2.66699 2.16699 -4.83398 6.5 -6.50098s7.83301 -2.5 10.5 -2.5s5.66699 2.66699 9 8c1.33301 3.33301 3 9 5 17s3.66699 12.667 5 14c2.66699 7.33301 4.33398 14.666 5.00098 21.999s1 15 1 23h1c1.33301 0 2.33301 -1.66699 3 -5s1.5 -6.83301 2.5 -10.5
s2.5 -7.16699 4.5 -10.5s5.33301 -5 10 -5c2 0 4.16699 0.5 6.5 1.5s4.83301 1.5 7.5 1.5c0 -2 -1.5 -4.5 -4.5 -7.5s-6.5 -6 -10.5 -9s-7.66699 -6 -11 -9s-5.33301 -5.5 -6 -7.5c-0.666992 0 -1.33398 -1.66699 -2.00098 -5s-1.66699 -5.66602 -3 -6.99902
c-0.666992 -1.33301 -1.66699 -4 -3 -8s-2.33301 -6.66699 -3 -8c4.66699 -5.33301 8.83398 -9.16602 12.501 -11.499s6.5 -7.16602 8.5 -14.499l-1 -28l0.5 -1c0.333008 -0.666992 0.5 -1.33398 0.5 -2.00098h-5v-3c0.666992 -0.666992 1 -1.66699 1 -3v-3l1.5 -2
c1 -1.33301 1.5 -2.33301 1.5 -3l1.5 -7.5l0.5 -2.5c0 0.666992 0.166992 0.166992 0.5 -1.5l1.5 -7.5v-11c2 -2 3.16699 -3.5 3.5 -4.5s0.5 -2.5 0.5 -4.5v-3c0 -1.33301 -0.333008 -2.33301 -1 -3l-6 -27c-2 -1.33301 -3 -3.33301 -3 -6c0 -2 -1.33301 -3.33301 -4 -4v-13
c-2.66699 -2.66699 -4.33398 -5.83398 -5.00098 -9.50098s-2.66699 -6.83398 -6 -9.50098h-5l-3 -3l-6 -1c-0.666992 -2 -1.5 -6.5 -2.5 -13.5s-1.5 -11.5 -1.5 -13.5v-18l-4 -20l-4 -51c-3.33301 -5.33301 -5.83301 -10.333 -7.5 -15s-2.5 -10.334 -2.5 -17.001h178
l-148 704h-133l-148 -704h190l-8 24c-0.666992 3.33301 -2.16699 4.66602 -4.5 3.99902s-4.16602 2.33301 -5.49902 9l-5 35c2.66699 0.666992 4.5 2.83398 5.5 6.50098s1.5 7.16699 1.5 10.5c0 4 -0.666992 6 -2 6c-0.666992 0 -1.33398 -1 -2.00098 -3l1 -6l-7 -13
c-0.666992 -0.666992 -1.83398 -1.66699 -3.50098 -3s-2.83398 -2 -3.50098 -2zM238 98.0068c-0.666992 -2 -1.66699 -4.83301 -3 -8.5s-2 -6.5 -2 -8.5c0.666992 -3.33301 1.16699 -6.33301 1.5 -9s0.5 -5 0.5 -7l-1 -9c0.666992 -0.666992 1 -2 1 -4v-21v-16
c0 -9.33301 0.333008 -14.333 1 -15h3c-0.666992 0.666992 -1 5 -1 13v12v8c1.33301 1.33301 2 3.33301 2 6l-2 7c0 2.66699 0.333008 5.16699 1 7.5s1 4.5 1 6.5v35zM289 245.007v-14c0 -7.33301 2.33301 -11 7 -11c0 4.66699 -0.166992 9.5 -0.5 14.5s-1.5 9.5 -3.5 13.5z
M133 203.007c-2 -1.33301 -4.66699 -2.66602 -8 -3.99902l-10 -4c-3.33301 -1.33301 -6.33301 -3 -9 -5s-4 -4 -4 -6c3.33301 0 5.83301 1.16699 7.5 3.5s3.83398 4.16602 6.50098 5.49902l2 1c3.33301 1.33301 6.16602 2.33301 8.49902 3s4.5 2.66699 6.5 6zM289 203.007
l1 -3c1.33301 -1.33301 2 -3.33301 2 -6h2l1 12l-2 2zM160 229.007c-2.66699 -2 -5.49902 -4.5 -8.49902 -7.5s-5.5 -6.5 -7.5 -10.5c2 2.66699 4.66699 5.5 8 8.5s6.66602 4.83301 9.99902 5.5v1h1l-1 1c0 1.33301 -0.666992 2 -2 2z" />
    <glyph glyph-name="FL00C5h" unicode="&#xc5;" horiz-adv-x="461" 
d="M166 740h128v130h-128v-130zM213 826h35v-42h-35v42zM173 68l4 7.00684c2.66699 4.66699 4.33398 7.66699 5.00098 9l-1 15l7 7l0.5 1c0.333008 0.666992 0.5 1.33398 0.5 2.00098s-0.166992 1.33398 -0.5 2.00098l-0.5 1v12c0 7.33301 -0.333008 11.333 -1 12l-3 -6v-3
c0 -1.33301 -0.333008 -4 -1 -8s-1.5 -8.16699 -2.5 -12.5s-2.16699 -8.33301 -3.5 -12s-2.33301 -5.5 -3 -5.5l2 28c0.666992 0.666992 1.16699 2.5 1.5 5.5s0.5 4.83301 0.5 5.5v2h-1v45l4 19c3.33301 0.666992 5.16602 2.66699 5.49902 6s0.5 6.33301 0.5 9l-1 3l-17 -33
c-1.33301 -1.33301 -2 -2.66602 -2 -3.99902l2 -15c0 -4.66699 -1 -7 -3 -7l-2 1l-2 6h-2l6 -16c0 -3.33301 -1 -5 -3 -5h-1c-2 0 -4.66699 3.33301 -8 10s-5 11.667 -5 15c0 1.33301 0.333008 3.16602 1 5.49902s1 4.83301 1 7.5l-4 7c0.666992 4.66699 2 9.16699 4 13.5
s3 9.16602 3 14.499c0 0.666992 -0.166992 1.16699 -0.5 1.5l-0.5 0.5c-0.666992 -1.33301 -1.16699 -3 -1.5 -5s-1.16602 -3.33301 -2.49902 -4c-3.33301 -0.666992 -5.66602 -1.16699 -6.99902 -1.5s-1.33301 -0.5 0 -0.5c-2 0 -3.33301 -1.33301 -4 -4l-30 -21h-3
c-2 0 -3.66699 0.666992 -5 2s-2.66602 2 -3.99902 2c-2 0 -3.83301 -1.16699 -5.5 -3.5s-2.83398 -4.83301 -3.50098 -7.5l-4 -22h-1l2 25h-13c2 1.33301 4.33301 2.16602 7 2.49902s4.66699 0.833008 6 1.5v1l-7 5h3c4.66699 0 8.33398 1.16699 11.001 3.5
s4.83398 4.83301 6.50098 7.5l4.5 7.5c1.33301 2.33301 3 3.5 5 3.5l9 -1c3.33301 0 6.5 0.666992 9.5 2s5.83301 2.66602 8.5 3.99902l15 14l7 9c2 2 4.83301 4.16699 8.5 6.5s5.5 4.5 5.5 6.5l-1 1l-4 -1l-24 -26l-1 -1c-5.33301 -4 -9.33301 -6 -12 -6l24 24
c3.33301 3.33301 6.16602 7 8.49902 11s5.5 7.66699 9.5 11v5l7 20c-0.666992 0 -2 0.166992 -4 0.5l-3 0.5c-0.666992 0 -1 0.666992 -1 2v2c0 9.33301 2.5 17.666 7.5 24.999s11.167 13.333 18.5 18c1.33301 1.33301 2.66602 3.66602 3.99902 6.99902c2 2 4.66699 3 8 3
c4 0 6 0.666992 6 2l-7 31c0 9.33301 2.83301 17.5 8.5 24.5s13.5 10.5 23.5 10.5c7.33301 0 13 -2.33301 17 -7s6.66699 -10.334 8 -17.001l5 -31c0 -0.666992 -0.333008 -1.5 -1 -2.5l-1 -1.5v-1c0 -2.66699 2.16699 -4.83398 6.5 -6.50098s7.83301 -2.5 10.5 -2.5
s5.66699 2.66699 9 8c1.33301 3.33301 3 9 5 17s3.66699 12.667 5 14c2.66699 7.33301 4.33398 14.666 5.00098 21.999s1 15 1 23h1c1.33301 0 2.33301 -1.66699 3 -5s1.5 -6.83301 2.5 -10.5s2.5 -7.16699 4.5 -10.5s5.33301 -5 10 -5c2 0 4.16699 0.5 6.5 1.5
s4.83301 1.5 7.5 1.5c0 -2 -1.5 -4.5 -4.5 -7.5s-6.5 -6 -10.5 -9s-7.66699 -6 -11 -9s-5.33301 -5.5 -6 -7.5c-0.666992 0 -1.33398 -1.66699 -2.00098 -5s-1.66699 -5.66602 -3 -6.99902l-6 -16c4.66699 -5.33301 8.83398 -9.16602 12.501 -11.499
s6.5 -7.16602 8.5 -14.499l-1 -28l0.5 -1c0.333008 -0.666992 0.5 -1.33398 0.5 -2.00098h-5v-3c0.666992 -0.666992 1 -1.66699 1 -3v-3l1.5 -2c1 -1.33301 1.5 -2.33301 1.5 -3l1.5 -7.5l0.5 -2.5c0 0.666992 0.166992 0.166992 0.5 -1.5l1.5 -7.5v-11
c2 -2 3.16699 -3.5 3.5 -4.5s0.5 -2.5 0.5 -4.5v-3c0 -1.33301 -0.333008 -2.33301 -1 -3l-6 -27c-2 -1.33301 -3 -3.33301 -3 -6c0 -2 -1.33301 -3.33301 -4 -4v-13c-2.66699 -2.66699 -4.33398 -5.83398 -5.00098 -9.50098s-2.66699 -6.83398 -6 -9.50098h-5l-3 -3l-6 -1
c-0.666992 -2 -1.5 -6.5 -2.5 -13.5s-1.5 -11.5 -1.5 -13.5v-18l-4 -20l-4 -51c-3.33301 -5.33301 -5.83301 -10.333 -7.5 -15s-2.5 -10.334 -2.5 -17.001h178l-148 704h-133l-148 -704h190l-8 24c-0.666992 3.33301 -2.16699 4.66602 -4.5 3.99902
s-4.16602 2.33301 -5.49902 9l-5 35c2.66699 0.666992 4.5 2.83398 5.5 6.50098s1.5 7.16699 1.5 10.5c0 4 -0.666992 6 -2 6c-0.666992 0 -1.33398 -1 -2.00098 -3l1 -6l-7 -13c-0.666992 -0.666992 -1.83398 -1.66699 -3.50098 -3s-2.83398 -2 -3.50098 -2zM238 98.0068
c-0.666992 -2 -1.66699 -4.83301 -3 -8.5s-2 -6.5 -2 -8.5c0.666992 -3.33301 1.16699 -6.33301 1.5 -9s0.5 -5 0.5 -7l-1 -9c0.666992 -0.666992 1 -2 1 -4v-37c0 -9.33301 0.333008 -14.333 1 -15h3c-0.666992 0.666992 -1 5 -1 13v20c1.33301 1.33301 2 3.33301 2 6l-2 7
c0 2.66699 0.333008 5.16699 1 7.5s1 4.5 1 6.5v35zM289 245.007v-14c0 -7.33301 2.33301 -11 7 -11c0 4.66699 -0.166992 9.5 -0.5 14.5s-1.5 9.5 -3.5 13.5zM133 203.007c-2 -1.33301 -4.66699 -2.66602 -8 -3.99902l-10 -4c-3.33301 -1.33301 -6.33301 -3 -9 -5
s-4 -4 -4 -6c3.33301 0 5.83301 1.16699 7.5 3.5s3.83398 4.16602 6.50098 5.49902l2 1c3.33301 1.33301 6.16602 2.33301 8.49902 3s4.5 2.66699 6.5 6zM289 203.007l1 -3c1.33301 -1.33301 2 -3.33301 2 -6h2l1 12l-2 2zM160 229.007
c-2.66699 -2 -5.49902 -4.5 -8.49902 -7.5s-5.5 -6.5 -7.5 -10.5c2 2.66699 4.66699 5.5 8 8.5s6.66602 4.83301 9.99902 5.5v2c0 1.33301 -0.666992 2 -2 2z" />
    <glyph glyph-name="FL00E6h" unicode="&#xc6;" horiz-adv-x="702" 
d="M173 68c0.666992 0 1.83398 0.660156 3.50098 1.99316s2.83398 2.33301 3.50098 3l7 13l-1 6c0.666992 2 1.33398 3 2.00098 3c1.33301 0 2 -2 2 -6c0 -3.33301 -0.5 -6.83301 -1.5 -10.5s-2.83301 -5.83398 -5.5 -6.50098l5 -35
c1.33301 -6.66699 3.16602 -9.66699 5.49902 -9s3.83301 -0.666016 4.5 -3.99902l8 -24h-190l148 704h133l74 -352v352h305v-130h-177v-152h147v-130h-147v-162h177v-130h-409c0 6.66699 0.833008 12.334 2.5 17.001s4.16699 9.66699 7.5 15l4 51l4 20v18
c0 2 0.5 6.5 1.5 13.5s1.83301 11.5 2.5 13.5l6 1l3 3h5c3.33301 2.66699 5.33301 5.83398 6 9.50098s2.33398 6.83398 5.00098 9.50098v13c2.66699 0.666992 4 2 4 4c0 2.66699 1 4.66699 3 6l6 27c0.666992 0.666992 1 1.66699 1 3v3c0 2 -0.166992 3.5 -0.5 4.5
s-1.5 2.5 -3.5 4.5v11l-1.5 7.5c-0.333008 1.66699 -0.5 2.16699 -0.5 1.5l-0.5 2.5l-1.5 7.5c0 0.666992 -0.5 1.66699 -1.5 3l-1.5 2v3c0 1.33301 -0.333008 2.33301 -1 3v3h5c0 0.666992 -0.166992 1.33398 -0.5 2.00098l-0.5 1l1 28
c-2 7.33301 -4.83301 12.166 -8.5 14.499s-7.83398 6.16602 -12.501 11.499c0.666992 1.33301 1.66699 4 3 8s2.33301 6.66699 3 8c1.33301 1.33301 2.33301 3.66602 3 6.99902s1.33398 5 2.00098 5c0.666992 2 2.66699 4.5 6 7.5s7 6 11 9s7.5 6 10.5 9s4.5 5.5 4.5 7.5
c-2.66699 0 -5.16699 -0.5 -7.5 -1.5s-4.5 -1.5 -6.5 -1.5c-4.66699 0 -8 1.66699 -10 5s-3.5 6.83301 -4.5 10.5s-1.83301 7.16699 -2.5 10.5s-1.66699 5 -3 5h-1c0 -8 -0.333008 -15.667 -1 -23s-2.33398 -14.666 -5.00098 -21.999c-1.33301 -1.33301 -3 -6 -5 -14
s-3.66699 -13.667 -5 -17c-3.33301 -5.33301 -6.33301 -8 -9 -8s-6.16699 0.833008 -10.5 2.5s-6.5 3.83398 -6.5 6.50098v1l1 1.5c0.666992 1 1 1.83301 1 2.5l-5 31c-1.33301 6.66699 -4 12.334 -8 17.001s-9.66699 7 -17 7c-10 0 -17.833 -3.5 -23.5 -10.5
s-8.5 -15.167 -8.5 -24.5l7 -31c0 -1.33301 -2 -2 -6 -2c-3.33301 0 -6 -1 -8 -3c-1.33301 -3.33301 -2.66602 -5.66602 -3.99902 -6.99902c-7.33301 -4.66699 -13.5 -10.667 -18.5 -18s-7.5 -15.666 -7.5 -24.999v-2c0 -1.33301 0.333008 -2 1 -2l3 -0.5
c2 -0.333008 3.33301 -0.5 4 -0.5l-7 -20v-5c-4 -3.33301 -7.16699 -7 -9.5 -11s-5.16602 -7.66699 -8.49902 -11l-24 -24c2 0 4.16699 0.833008 6.5 2.5l6.5 4.5l24 26l4 1l1 -1c0 -2 -1.83301 -4.16699 -5.5 -6.5s-6.5 -4.5 -8.5 -6.5l-7 -9l-15 -14
c-2.66699 -1.33301 -5.5 -2.66602 -8.5 -3.99902s-6.16699 -2 -9.5 -2l-9 1c-2 0 -3.66699 -1.16699 -5 -3.5l-4.5 -7.5c-1.66699 -2.66699 -3.83398 -5.16699 -6.50098 -7.5s-6.33398 -3.5 -11.001 -3.5h-3l7 -5v-1c-1.33301 -0.666992 -3.33301 -1.16699 -6 -1.5
s-5 -1.16602 -7 -2.49902h13l-2 -25h1l4 22c0.666992 2.66699 1.83398 5.16699 3.50098 7.5s3.5 3.5 5.5 3.5c1.33301 0 2.66602 -0.666992 3.99902 -2s3 -2 5 -2h3l30 21c0.666992 2.66699 2 4 4 4c-1.33301 0 -1.33301 0.166992 0 0.5s3.66602 0.833008 6.99902 1.5
c1.33301 0.666992 2.16602 2 2.49902 4s0.833008 3.66699 1.5 5l0.5 -0.5c0.333008 -0.333008 0.5 -0.833008 0.5 -1.5c0 -5.33301 -1 -10.166 -3 -14.499s-3.33301 -8.83301 -4 -13.5c0 -1.33301 0.666992 -2.5 2 -3.5s2 -2.16699 2 -3.5
c0 -2.66699 -0.333008 -5.16699 -1 -7.5s-1 -4.16602 -1 -5.49902c0 -3.33301 1.66699 -8.33301 5 -15s6 -10 8 -10h1c2 0 3 1.66699 3 5l-6 16h2l2 -6l2 -1c2 0 3 2.33301 3 7l-2 15c0 1.33301 0.666992 2.66602 2 3.99902l17 33l1 -2c0 -2 -0.166992 -5 -0.5 -9
s-2.16602 -6.33301 -5.49902 -7l-4 -19v-45h1v-2c0 -0.666992 -0.166992 -2.5 -0.5 -5.5s-0.833008 -4.83301 -1.5 -5.5l-2 -28c0.666992 0 1.66699 1.83301 3 5.5s2.5 7.66699 3.5 12s1.83301 8.5 2.5 12.5s1 6.66699 1 8v3l3 6c0.666992 -0.666992 1 -4.66699 1 -12v-12
l0.5 -1c0.333008 -0.666992 0.5 -1.33398 0.5 -2.00098s-0.166992 -1.33398 -0.5 -2.00098l-0.5 -1l-7 -7l1 -15c-0.666992 -1.33301 -2.33398 -4.33301 -5.00098 -9zM238 97.9932l2 -3v-35c0 -2 -0.333008 -4.16699 -1 -6.5s-1 -4.83301 -1 -7.5l2 -7
c0 -2.66699 -0.666992 -4.66699 -2 -6v-20c0 -8 0.333008 -12.333 1 -13h-3c-0.666992 0.666992 -1 5.66699 -1 15v37c0 2 -0.333008 3.33301 -1 4l1 9c0 2 -0.166992 4.33301 -0.5 7s-0.833008 5.66699 -1.5 9c0 2 0.666992 4.83301 2 8.5s2.33301 6.5 3 8.5zM289 244.993
l3 3c2 -4 3.16699 -8.5 3.5 -13.5s0.5 -9.83301 0.5 -14.5c-4.66699 0 -7 3.66699 -7 11v14zM133 202.993c-2 -3.33301 -4.16699 -5.33301 -6.5 -6s-5.16602 -1.66699 -8.49902 -3l-2 -1c-2.66699 -1.33301 -4.83398 -3.16602 -6.50098 -5.49902s-4.16699 -3.5 -7.5 -3.5
c0 2 1.33301 4 4 6s5.66699 3.66699 9 5l10 4c3.33301 1.33301 6 2.66602 8 3.99902zM289 202.993l4 5l2 -2l-1 -12h-2c0 2.66699 -0.666992 4.66699 -2 6zM160 228.993c1.33301 0 1.99902 -0.666992 1.99902 -2l1 -1h-1v-1c-3.33301 -0.666992 -6.66602 -2.5 -9.99902 -5.5
s-6 -5.83301 -8 -8.5c2 4 4.5 7.5 7.5 10.5s5.83301 5.5 8.5 7.5z" />
    <glyph glyph-name="FL08D9h" unicode="&#xc7;" horiz-adv-x="357" 
d="M120 -43h37.999v43h-39c-30 0 -53 7.5 -69 22.5s-24 37.5 -24 67.5v530c0 30 8.33301 51.5 25 64.5s39.334 19.5 68.001 19.5h212v-130h-177v-444h177v-130h-86v-127h-125v84z" />
    <glyph glyph-name="FL00C8h" unicode="&#xc8;" horiz-adv-x="357" 
d="M26 704v-704h305v130h-177v162h147v130h-147v152h177v130h-305zM197 870h-128l63 -130h120z" />
    <glyph glyph-name="FL00C9h" unicode="&#xc9;" horiz-adv-x="357" 
d="M288 870h-128l-55 -130h120zM26 704v-704h305v130h-177v162h147v130h-147v152h177v130h-305z" />
    <glyph glyph-name="FL00CAh" unicode="&#xca;" horiz-adv-x="357" 
d="M93 870h171l59 -130h-120l-25 51l-24 -51h-120zM26 0v704h305v-130h-177v-152h147v-130h-147v-162h177v-130h-305z" />
    <glyph glyph-name="FL00CBh" unicode="&#xcb;" horiz-adv-x="357" 
d="M36 870h128v-130h-128v130zM193 870h128v-130h-128v130zM26 0v704h305v-130h-177v-152h147v-130h-147v-162h177v-130h-305z" />
    <glyph glyph-name="FL00CCh" unicode="&#xcc;" horiz-adv-x="180" 
d="M-19 870h128l55 -130h-120zM26 704h128v-704h-128v704z" />
    <glyph glyph-name="FL00CDh" unicode="&#xcd;" horiz-adv-x="180" 
d="M72 870h128l-63 -130h-120zM26 704h128v-704h-128v704z" />
    <glyph glyph-name="FL00CEh" unicode="&#xce;" horiz-adv-x="180" 
d="M5 870h171l59 -130h-120l-25 51l-24 -51h-120zM26 704h128v-704h-128v704z" />
    <glyph glyph-name="FL00CFh" unicode="&#xcf;" horiz-adv-x="180" 
d="M-52 870h128v-130h-128v130zM105 870h128v-130h-128v130zM26 704h128v-704h-128v704z" />
    <glyph glyph-name="FL07A3h" unicode="&#xd0;" horiz-adv-x="454" 
d="M26 422v-130h43v-292h266c30 0 53 7.5 69 22.5s24 37.5 24 67.5v524c0 30 -8 52.5 -24 67.5s-39 22.5 -69 22.5h-266v-282h-43zM197 574h103v-444h-103v162h52v130h-52v152z" />
    <glyph glyph-name="FL00D1h" unicode="&#xd1;" horiz-adv-x="408" 
d="M292 740h-119l-24 51l-23 -51h-72l59 130h120l23 -51l23 51h72zM382 0h-104l-125 307v-307h-127v704h104l125 -340v340h127v-704z" />
    <glyph glyph-name="FL00D2h" unicode="&#xd2;" 
d="M94 870h128l55 -130h-120zM292 0h-173c-30 0 -53 7.5 -69 22.5s-24 37.5 -24 67.5v524c0 30 8 52.5 24 67.5s39 22.5 69 22.5h173c30 0 53 -7.5 69 -22.5s24 -37.5 24 -67.5v-524c0 -30 -8 -52.5 -24 -67.5s-39 -22.5 -69 -22.5zM162 165
c0 -1.33301 0.492188 -4.50293 1.49219 -9.50293s1.83301 -8.83301 2.5 -11.5c2.66699 -4 4.33398 -9.33301 5.00098 -16v-4c0 -2.66699 0.333008 -4.33398 1 -5.00098l3 -8h39v3c0.666992 7.33301 1.33398 13 2.00098 17s1.66699 9 3 15c0 2.66699 0.333008 4 1 4
c0.666992 2 1.5 3.83301 2.5 5.5s1.83301 3.83398 2.5 6.50098l1 2.5c0.666992 1.66699 1.33398 2.5 2.00098 2.5h2c3.33301 2 5 4.33301 5 7l2 10v1c1.33301 0 2.5 -0.5 3.5 -1.5l1.5 -1.5c0 -2.66699 -0.666992 -4.66699 -2 -6s-2 -2.66602 -2 -3.99902l3 3l4 -3
c1.33301 0 3.33301 2.33301 6 7c0 -2.66699 1 -4 3 -4c1.33301 0 2 0.333008 2 1v-1h5l5 -7c2 -2 3 -5.66699 3 -11c1.33301 0 2 -1 2 -3h2h1v1c-1.33301 0 -2 0.666992 -2 2v5l4 7c0.666992 0 1 -0.666992 1 -2c0 -0.666992 0.666992 -1 2 -1l5 3
c0.666992 0 1 -0.666992 1 -2h4c1.33301 0 2 0.333008 2 1v1v3v1c0.666992 0 1 0.666992 1 2c-1.33301 1.33301 -2.33301 1.83301 -3 1.5s-2 0.5 -4 2.5l1 2c0.666992 0 0.833984 0.166992 0.500977 0.5l-0.5 0.5c2.66699 0 3.83398 0.5 3.50098 1.5s0.5 1.83301 2.5 2.5
c0 0.666992 0.333008 0.666992 1 0l1 -1v-1c0.666992 0.666992 1.16699 1.5 1.5 2.5s1.16602 1.5 2.49902 1.5s2.16602 -0.5 2.49902 -1.5l0.5 -1.5l1 0.5c0.666992 0.333008 1 0.833008 1 1.5s-0.333008 1.16699 -1 1.5s-1 1.16602 -1 2.49902
c-0.666992 0.666992 -1.33398 2.33398 -2.00098 5.00098s-1 4.33398 -1 5.00098c1.33301 1.33301 2 3.66602 2 6.99902s-1 6.5 -3 9.5s-3.33301 5.83301 -4 8.5v1l4 -3l-1 11c0 1.33301 0.166992 2.33301 0.5 3s0.5 1.33398 0.5 2.00098v2l-3 6
c-1.33301 4.66699 -3 8.66699 -5 12s-3 5.66602 -3 6.99902c0 4.66699 -2 7.66699 -6 9l-8.5 14c-2.33301 4 -4.83301 8.66699 -7.5 14c-1.33301 8.66699 -2.5 14.5 -3.5 17.5s-1.5 3.5 -1.5 1.5c-5.33301 11.333 -9.33301 22.333 -12 33s-6 22.334 -10 35.001v4
c0 1.33301 1.33301 2 4 2h1c0 -1.33301 1.33301 -3.33301 4 -6c0.666992 -0.666992 1 -2.66699 1 -6c0 -4.66699 2 -9 6 -13l16 -32l0.5 -0.5c0.333008 -0.333008 0.5 -0.833008 0.5 -1.5l-1 -1v-6c0 -1.33301 -0.166992 -4.66602 -0.5 -9.99902s-1.16602 -9 -2.49902 -11
v-1c0 -2.66699 1.33301 -4 4 -4c-0.666992 0 0 1 2 3l2 2l-3 -12l1 -7c1.33301 2 2.33301 3.83301 3 5.5s1.66699 3.16699 3 4.5c2 3.33301 3.83301 6.16602 5.5 8.49902s4.16699 4.83301 7.5 7.5v4c0 2.66699 -0.5 5.16699 -1.5 7.5s-1.5 5.16602 -1.5 8.49902
c0 1.33301 0.166992 2.16602 0.5 2.49902s0.5 0.833008 0.5 1.5l-1 6c0 8 -1 16.167 -3 24.5s-3.66699 16.5 -5 24.5c0 0.666992 -0.333008 1 -1 1c0 0.666992 -0.333008 1 -1 1s-1.16699 -0.333008 -1.5 -1s-1.16602 -1 -2.49902 -1s-2 0.666992 -2 2v4l16 2
c0.666992 0.666992 3 1 7 1h3c2.66699 -1.33301 4.33398 -2.83301 5.00098 -4.5s2 -2.83398 4 -3.50098l5 -2c3.33301 -1.33301 5.33301 -3.5 6 -6.5s1 -6.16699 1 -9.5c0 -5.33301 -1.5 -9 -4.5 -11s-4.5 -3.66699 -4.5 -5v-1h1c2 0.666992 3.83301 1.5 5.5 2.5
s3.16699 1.83301 4.5 2.5c2.66699 2.66699 4 6.33398 4 11.001l1 10c0.666992 0.666992 1 3.33398 1 8.00098c0 1.33301 -0.333008 2.33301 -1 3s-1 1.66699 -1 3v9l-4 2l-2 2l-2 2c-5.33301 2.66699 -9.33301 6.66699 -12 12c-2 2 -4.66699 4.5 -8 7.5s-7 5.83301 -11 8.5
c-1.33301 0.666992 -4.33301 2.33398 -9 5.00098s-7.66699 4.66699 -9 6l-2 1c0 7.33301 -1.33301 16.166 -4 26.499s-7.66699 17.5 -15 21.5l-1 0.5c-0.666992 0.333008 -1.33398 0.833008 -2.00098 1.5c1.33301 8 3.33301 15.5 6 22.5s7 12.5 13 16.5
c1.33301 1.33301 4.5 3.5 9.5 6.5s8.16699 5.16699 9.5 6.5l4 4c1.33301 1.33301 2 3 2 5c0 0.666992 -1 1 -3 1s-4 -0.166992 -6 -0.5s-3.66699 -0.5 -5 -0.5c-9.33301 0 -14.333 5 -15 15v15c0 4 -1 6 -3 6c-1.33301 0 -2.16602 -1.5 -2.49902 -4.5l-0.5 -4.5v-5
c0 -1.33301 -0.333008 -2.33301 -1 -3c-0.666992 -1.33301 -1.33398 -4 -2.00098 -8s-1 -6.66699 -1 -8c-1.33301 -9.33301 -3.5 -19.333 -6.5 -30s-7.16699 -20.667 -12.5 -30h-1c-1.33301 0 -2 0.666992 -2 2c0 2 -0.666992 3.66699 -2 5
c-0.666992 0.666992 -2 1.16699 -4 1.5s-3 1.16602 -3 2.49902v27c0.666992 0.666992 1 1.66699 1 3l-1 12c-0.666992 1.33301 -1.16699 1.83301 -1.5 1.5s-0.833008 -0.166016 -1.5 0.500977c-1.33301 5.33301 -3.5 10.333 -6.5 15s-7.16699 8 -12.5 10h-5
c-1.33301 1.33301 -2.66602 2 -3.99902 2l-5 -1l-3 -2c-4 -1.33301 -7 -2.66602 -9 -3.99902s-4 -5.33301 -6 -12c-0.666992 -0.666992 -1 -2 -1 -4c0 -0.666992 -0.333008 -1.33398 -1 -2.00098c0 -0.666992 -0.333008 -1 -1 -1
c-2.66699 -0.666992 -4 -2.33398 -4 -5.00098v-10v-13c0 -8 0.333008 -12.333 1 -13l1 -3c-0.666992 -0.666992 -1.66699 -1 -3 -1s-2.66602 -0.666992 -3.99902 -2c-0.666992 -0.666992 -1.33398 -1.5 -2.00098 -2.5s-1.33398 -1.5 -2.00098 -1.5h-4h-1v-1l-3 -2
c-2.66699 -1.33301 -4.83398 -2.33301 -6.50098 -3s-3.16699 -1.66699 -4.5 -3l-12 -13l-6 -4.5c-1.33301 -1 -2 -3.5 -2 -7.5c-0.666992 -0.666992 -1 -4.66699 -1 -12v-14c0 -2 0.333008 -3.66699 1 -5s1 -3.33301 1 -6v-2c-0.666992 -4 -1.16699 -7.83301 -1.5 -11.5
s-0.5 -7.16699 -0.5 -10.5s-0.666992 -4.5 -2 -3.5s-2 -3.16699 -2 -12.5c-1.33301 -4 -3.33301 -6.16699 -6 -6.5s-4 -3.5 -4 -9.5v-9c0.666992 -1.33301 1.33398 -2.16602 2.00098 -2.49902s1 -1.16602 1 -2.49902l3 -18c0.666992 -1.33301 1.66699 -2.5 3 -3.5
s2.33301 -2.5 3 -4.5c1.33301 -5.33301 2 -7.66602 2 -6.99902v-5v-2l1 1c1.33301 -1.33301 2 -2.66602 2 -3.99902c0 -2 0.333008 -3.33301 1 -4c1.33301 -0.666992 2.83301 -1.83398 4.5 -3.50098s3.16699 -2.5 4.5 -2.5c2 0 3 0.333008 3 1
c2 -1.33301 4 -3.16602 6 -5.49902s3 -5.16602 3 -8.49902l2 -23v-17l-1 -5c-0.666992 0 -1.66699 -2.16699 -3 -6.5s-2.33301 -7.5 -3 -9.5c-2 -3.33301 -4.16699 -6.16602 -6.5 -8.49902s-4.16602 -5.5 -5.49902 -9.5l-0.5 -0.5
c-0.333008 -0.333008 -0.5 -0.833008 -0.5 -1.5l-12 -38c0 -0.666992 -0.166992 -1.16699 -0.5 -1.5s-0.5 -0.833008 -0.5 -1.5l-4 -12c-0.666992 -0.666992 -1 -1.33398 -1 -2.00098v-1v-1c0 -1.33301 1 -2 3 -2l2 2l19 56c0 2.66699 1 4 3 4c3.33301 0 5 -1.33301 5 -4
c-1.33301 -3.33301 -2.66602 -7 -3.99902 -11s-2.66602 -7.66699 -3.99902 -11c-0.666992 -1.33301 -1.5 -2.83301 -2.5 -4.5s-1.5 -3.83398 -1.5 -6.50098l-9 -27l1 -2c0.666992 0 1 0.333008 1 1c0 1.33301 0.333008 2.33301 1 3l23 53c0.666992 0.666992 1 3 1 7v17l1 11
l3 1c0 1.33301 0.666992 2.33301 2 3l2 1v4c0.666992 0 1 -0.666992 1 -2v-7c0.666992 -8 4 -14.333 10 -19l2 -13l-12 -8v-14v-5c0 -2 0.333008 -3.33301 1 -4l2 -3v-4l0.5 -1c0.333008 -0.666992 0.5 -1.33398 0.5 -2.00098l1 -3c0 -1.33301 0.333008 -3.5 1 -6.5
s1.33398 -3.83301 2.00098 -2.5l2 -3l3 -2c2 0 3.66699 -0.666992 5 -2zM127.992 362.997l1.00195 28.9961c0.666992 2 1.16699 3.83301 1.5 5.5s1.16602 3.5 2.49902 5.5c1.33301 -1.33301 2 -2.33301 2 -3v-2c0.666992 -3.33301 1.16699 -7.16602 1.5 -11.499
s2.16602 -8.16602 5.49902 -11.499c0 -4.66699 -1.16699 -8 -3.5 -10s-3.5 -4 -3.5 -6v-3h-1c-0.666992 0 -1 -0.666992 -1 -2s0.333008 -3 1 -5s0.666992 -2.66699 0 -2v-7h-1v-4c-2.66699 2.66699 -4 6.33398 -4 11.001v1c0 1.33301 0.333008 2 1 2v9
c0 0.666992 -0.333008 1 -1 1c0 0.666992 -0.166992 1.33398 -0.5 2.00098zM270.994 240.993c0 0.666992 0.166016 1.16699 0.499023 1.5l0.5 0.5c0 1.33301 0.333008 3.16602 1 5.49902s1.33398 4.16602 2.00098 5.49902h1c2 -3.33301 3.33301 -7.16602 4 -11.499
s1 -8.16602 1 -11.499v-7h-1c-2.66699 0 -4 1.33301 -4 4h-2c-1.33301 1.33301 -2 4 -2 8zM265.993 257.993v3l5 1v-2c0 -2.66699 -0.666992 -4.66699 -2 -6c-2 0.666992 -3 2 -3 4z" />
    <glyph glyph-name="FL00D3h" unicode="&#xd3;" 
d="M189 870h128l-63 -130h-120zM292 0h-173c-30 0 -53 7.5 -69 22.5s-24 37.5 -24 67.5v524c0 30 8 52.5 24 67.5s39 22.5 69 22.5h173c30 0 53 -7.5 69 -22.5s24 -37.5 24 -67.5v-524c0 -30 -8 -52.5 -24 -67.5s-39 -22.5 -69 -22.5zM162 165
c0 -1.33301 0.492188 -4.50293 1.49219 -9.50293s1.83301 -8.83301 2.5 -11.5c2.66699 -4 4.33398 -9.33301 5.00098 -16v-4c0 -2.66699 0.333008 -4.33398 1 -5.00098l3 -8h39v3c0.666992 7.33301 1.33398 13 2.00098 17s1.66699 9 3 15c0 2.66699 0.333008 4 1 4
c0.666992 2 1.5 3.83301 2.5 5.5s1.83301 3.83398 2.5 6.50098l1 2.5c0.666992 1.66699 1.33398 2.5 2.00098 2.5h2c3.33301 2 5 4.33301 5 7l2 10v1c1.33301 0 2.5 -0.5 3.5 -1.5l1.5 -1.5c0 -2.66699 -0.666992 -4.66699 -2 -6s-2 -2.66602 -2 -3.99902l3 3l4 -3
c1.33301 0 3.33301 2.33301 6 7c0 -2.66699 1 -4 3 -4c1.33301 0 2 0.333008 2 1v-1h5l5 -7c2 -2 3 -5.66699 3 -11c1.33301 0 2 -1 2 -3h2h1v1c-1.33301 0 -2 0.666992 -2 2v5l4 7c0.666992 0 1 -0.666992 1 -2c0 -0.666992 0.666992 -1 2 -1l5 3
c0.666992 0 1 -0.666992 1 -2h4c1.33301 0 2 0.333008 2 1v1v3v1c0.666992 0 1 0.666992 1 2c-1.33301 1.33301 -2.33301 1.83301 -3 1.5s-2 0.5 -4 2.5l1 2c0.666992 0 0.833984 0.166992 0.500977 0.5l-0.5 0.5c2.66699 0 3.83398 0.5 3.50098 1.5s0.5 1.83301 2.5 2.5
c0 0.666992 0.333008 0.666992 1 0l1 -1v-1c0.666992 0.666992 1.16699 1.5 1.5 2.5s1.16602 1.5 2.49902 1.5s2.16602 -0.5 2.49902 -1.5l0.5 -1.5l1 0.5c0.666992 0.333008 1 0.833008 1 1.5s-0.333008 1.16699 -1 1.5s-1 1.16602 -1 2.49902
c-0.666992 0.666992 -1.33398 2.33398 -2.00098 5.00098s-1 4.33398 -1 5.00098c1.33301 1.33301 2 3.66602 2 6.99902s-1 6.5 -3 9.5s-3.33301 5.83301 -4 8.5v1l4 -3l-1 11c0 1.33301 0.166992 2.33301 0.5 3s0.5 1.33398 0.5 2.00098v2l-3 6
c-1.33301 4.66699 -3 8.66699 -5 12s-3 5.66602 -3 6.99902c0 4.66699 -2 7.66699 -6 9l-8.5 14c-2.33301 4 -4.83301 8.66699 -7.5 14c-1.33301 8.66699 -2.5 14.5 -3.5 17.5s-1.5 3.5 -1.5 1.5c-5.33301 11.333 -9.33301 22.333 -12 33s-6 22.334 -10 35.001v4
c0 1.33301 1.33301 2 4 2h1c0 -1.33301 1.33301 -3.33301 4 -6c0.666992 -0.666992 1 -2.66699 1 -6c0 -4.66699 2 -9 6 -13l16 -32l0.5 -0.5c0.333008 -0.333008 0.5 -0.833008 0.5 -1.5l-1 -1v-6c0 -1.33301 -0.166992 -4.66602 -0.5 -9.99902s-1.16602 -9 -2.49902 -11
v-1c0 -2.66699 1.33301 -4 4 -4c-0.666992 0 0 1 2 3l2 2l-3 -12l1 -7c1.33301 2 2.33301 3.83301 3 5.5s1.66699 3.16699 3 4.5c2 3.33301 3.83301 6.16602 5.5 8.49902s4.16699 4.83301 7.5 7.5v4c0 2.66699 -0.5 5.16699 -1.5 7.5s-1.5 5.16602 -1.5 8.49902
c0 1.33301 0.166992 2.16602 0.5 2.49902s0.5 0.833008 0.5 1.5l-1 6c0 8 -1 16.167 -3 24.5s-3.66699 16.5 -5 24.5c0 0.666992 -0.333008 1 -1 1c0 0.666992 -0.333008 1 -1 1s-1.16699 -0.333008 -1.5 -1s-1.16602 -1 -2.49902 -1s-2 0.666992 -2 2v4l16 2
c0.666992 0.666992 3 1 7 1h3c2.66699 -1.33301 4.33398 -2.83301 5.00098 -4.5s2 -2.83398 4 -3.50098l5 -2c3.33301 -1.33301 5.33301 -3.5 6 -6.5s1 -6.16699 1 -9.5c0 -5.33301 -1.5 -9 -4.5 -11s-4.5 -3.66699 -4.5 -5v-1h1c2 0.666992 3.83301 1.5 5.5 2.5
s3.16699 1.83301 4.5 2.5c2.66699 2.66699 4 6.33398 4 11.001l1 10c0.666992 0.666992 1 3.33398 1 8.00098c0 1.33301 -0.333008 2.33301 -1 3s-1 1.66699 -1 3v9l-4 2l-2 2l-2 2c-5.33301 2.66699 -9.33301 6.66699 -12 12c-2 2 -4.66699 4.5 -8 7.5s-7 5.83301 -11 8.5
c-1.33301 0.666992 -4.33301 2.33398 -9 5.00098s-7.66699 4.66699 -9 6l-2 1c0 7.33301 -1.33301 16.166 -4 26.499s-7.66699 17.5 -15 21.5l-1 0.5c-0.666992 0.333008 -1.33398 0.833008 -2.00098 1.5c1.33301 8 3.33301 15.5 6 22.5s7 12.5 13 16.5
c1.33301 1.33301 4.5 3.5 9.5 6.5s8.16699 5.16699 9.5 6.5l4 4c1.33301 1.33301 2 3 2 5c0 0.666992 -1 1 -3 1s-4 -0.166992 -6 -0.5s-3.66699 -0.5 -5 -0.5c-9.33301 0 -14.333 5 -15 15v15c0 4 -1 6 -3 6c-1.33301 0 -2.16602 -1.5 -2.49902 -4.5l-0.5 -4.5v-5
c0 -1.33301 -0.333008 -2.33301 -1 -3c-0.666992 -1.33301 -1.33398 -4 -2.00098 -8s-1 -6.66699 -1 -8c-1.33301 -9.33301 -3.5 -19.333 -6.5 -30s-7.16699 -20.667 -12.5 -30h-1c-1.33301 0 -2 0.666992 -2 2c0 2 -0.666992 3.66699 -2 5
c-0.666992 0.666992 -2 1.16699 -4 1.5s-3 1.16602 -3 2.49902v27c0.666992 0.666992 1 1.66699 1 3l-1 12c-0.666992 1.33301 -1.16699 1.83301 -1.5 1.5s-0.833008 -0.166016 -1.5 0.500977c-1.33301 5.33301 -3.5 10.333 -6.5 15s-7.16699 8 -12.5 10h-5
c-1.33301 1.33301 -2.66602 2 -3.99902 2l-5 -1l-3 -2c-4 -1.33301 -7 -2.66602 -9 -3.99902s-4 -5.33301 -6 -12c-0.666992 -0.666992 -1 -2 -1 -4c0 -0.666992 -0.333008 -1.33398 -1 -2.00098c0 -0.666992 -0.333008 -1 -1 -1
c-2.66699 -0.666992 -4 -2.33398 -4 -5.00098v-10v-13c0 -8 0.333008 -12.333 1 -13l1 -3c-0.666992 -0.666992 -1.66699 -1 -3 -1s-2.66602 -0.666992 -3.99902 -2c-0.666992 -0.666992 -1.33398 -1.5 -2.00098 -2.5s-1.33398 -1.5 -2.00098 -1.5h-4h-1v-1l-3 -2
c-2.66699 -1.33301 -4.83398 -2.33301 -6.50098 -3s-3.16699 -1.66699 -4.5 -3l-12 -13l-6 -4.5c-1.33301 -1 -2 -3.5 -2 -7.5c-0.666992 -0.666992 -1 -4.66699 -1 -12v-14c0 -2 0.333008 -3.66699 1 -5s1 -3.33301 1 -6v-2c-0.666992 -4 -1.16699 -7.83301 -1.5 -11.5
s-0.5 -7.16699 -0.5 -10.5s-0.666992 -4.5 -2 -3.5s-2 -3.16699 -2 -12.5c-1.33301 -4 -3.33301 -6.16699 -6 -6.5s-4 -3.5 -4 -9.5v-9c0.666992 -1.33301 1.33398 -2.16602 2.00098 -2.49902s1 -1.16602 1 -2.49902l3 -18c0.666992 -1.33301 1.66699 -2.5 3 -3.5
s2.33301 -2.5 3 -4.5c1.33301 -5.33301 2 -7.66602 2 -6.99902v-5v-2l1 1c1.33301 -1.33301 2 -2.66602 2 -3.99902c0 -2 0.333008 -3.33301 1 -4c1.33301 -0.666992 2.83301 -1.83398 4.5 -3.50098s3.16699 -2.5 4.5 -2.5c2 0 3 0.333008 3 1
c2 -1.33301 4 -3.16602 6 -5.49902s3 -5.16602 3 -8.49902l2 -23v-17l-1 -5c-0.666992 0 -1.66699 -2.16699 -3 -6.5s-2.33301 -7.5 -3 -9.5c-2 -3.33301 -4.16699 -6.16602 -6.5 -8.49902s-4.16602 -5.5 -5.49902 -9.5l-0.5 -0.5
c-0.333008 -0.333008 -0.5 -0.833008 -0.5 -1.5l-12 -38c0 -0.666992 -0.166992 -1.16699 -0.5 -1.5s-0.5 -0.833008 -0.5 -1.5l-4 -12c-0.666992 -0.666992 -1 -1.33398 -1 -2.00098v-1v-1c0 -1.33301 1 -2 3 -2l2 2l19 56c0 2.66699 1 4 3 4c3.33301 0 5 -1.33301 5 -4
c-1.33301 -3.33301 -2.66602 -7 -3.99902 -11s-2.66602 -7.66699 -3.99902 -11c-0.666992 -1.33301 -1.5 -2.83301 -2.5 -4.5s-1.5 -3.83398 -1.5 -6.50098l-9 -27l1 -2c0.666992 0 1 0.333008 1 1c0 1.33301 0.333008 2.33301 1 3l23 53c0.666992 0.666992 1 3 1 7v17l1 11
l3 1c0 1.33301 0.666992 2.33301 2 3l2 1v4c0.666992 0 1 -0.666992 1 -2v-7c0.666992 -8 4 -14.333 10 -19l2 -13l-12 -8v-14v-5c0 -2 0.333008 -3.33301 1 -4l2 -3v-4l0.5 -1c0.333008 -0.666992 0.5 -1.33398 0.5 -2.00098l1 -3c0 -1.33301 0.333008 -3.5 1 -6.5
s1.33398 -3.83301 2.00098 -2.5l2 -3l3 -2c2 0 3.66699 -0.666992 5 -2zM127.992 362.997l1.00195 28.9961c0.666992 2 1.16699 3.83301 1.5 5.5s1.16602 3.5 2.49902 5.5c1.33301 -1.33301 2 -2.33301 2 -3v-2c0.666992 -3.33301 1.16699 -7.16602 1.5 -11.499
s2.16602 -8.16602 5.49902 -11.499c0 -4.66699 -1.16699 -8 -3.5 -10s-3.5 -4 -3.5 -6v-3h-1c-0.666992 0 -1 -0.666992 -1 -2s0.333008 -3 1 -5s0.666992 -2.66699 0 -2v-7h-1v-4c-2.66699 2.66699 -4 6.33398 -4 11.001v1c0 1.33301 0.333008 2 1 2v9
c0 0.666992 -0.333008 1 -1 1c0 0.666992 -0.166992 1.33398 -0.5 2.00098zM270.994 240.993c0 0.666992 0.166016 1.16699 0.499023 1.5l0.5 0.5c0 1.33301 0.333008 3.16602 1 5.49902s1.33398 4.16602 2.00098 5.49902h1c2 -3.33301 3.33301 -7.16602 4 -11.499
s1 -8.16602 1 -11.499v-7h-1c-2.66699 0 -4 1.33301 -4 4h-2c-1.33301 1.33301 -2 4 -2 8zM265.993 257.993v3l5 1v-2c0 -2.66699 -0.666992 -4.66699 -2 -6c-2 0.666992 -3 2 -3 4z" />
    <glyph glyph-name="FL00D4h" unicode="&#xd4;" 
d="M120 870h171l59 -130h-120l-25 51l-24 -51h-120zM292 0h-173c-30 0 -53 7.5 -69 22.5s-24 37.5 -24 67.5v524c0 30 8 52.5 24 67.5s39 22.5 69 22.5h173c30 0 53 -7.5 69 -22.5s24 -37.5 24 -67.5v-524c0 -30 -8 -52.5 -24 -67.5s-39 -22.5 -69 -22.5zM162 165
c0 -1.33301 0.492188 -4.50293 1.49219 -9.50293s1.83301 -8.83301 2.5 -11.5c2.66699 -4 4.33398 -9.33301 5.00098 -16v-4c0 -2.66699 0.333008 -4.33398 1 -5.00098l3 -8h39v3c0.666992 7.33301 1.33398 13 2.00098 17s1.66699 9 3 15c0 2.66699 0.333008 4 1 4
c0.666992 2 1.5 3.83301 2.5 5.5s1.83301 3.83398 2.5 6.50098l1 2.5c0.666992 1.66699 1.33398 2.5 2.00098 2.5h2c3.33301 2 5 4.33301 5 7l2 10v1c1.33301 0 2.5 -0.5 3.5 -1.5l1.5 -1.5c0 -2.66699 -0.666992 -4.66699 -2 -6s-2 -2.66602 -2 -3.99902l3 3l4 -3
c1.33301 0 3.33301 2.33301 6 7c0 -2.66699 1 -4 3 -4c1.33301 0 2 0.333008 2 1v-1h5l5 -7c2 -2 3 -5.66699 3 -11c1.33301 0 2 -1 2 -3h2h1v1c-1.33301 0 -2 0.666992 -2 2v5l4 7c0.666992 0 1 -0.666992 1 -2c0 -0.666992 0.666992 -1 2 -1l5 3
c0.666992 0 1 -0.666992 1 -2h4c1.33301 0 2 0.333008 2 1v1v3v1c0.666992 0 1 0.666992 1 2c-1.33301 1.33301 -2.33301 1.83301 -3 1.5s-2 0.5 -4 2.5l1 2c0.666992 0 0.833984 0.166992 0.500977 0.5l-0.5 0.5c2.66699 0 3.83398 0.5 3.50098 1.5s0.5 1.83301 2.5 2.5
c0 0.666992 0.333008 0.666992 1 0l1 -1v-1c0.666992 0.666992 1.16699 1.5 1.5 2.5s1.16602 1.5 2.49902 1.5s2.16602 -0.5 2.49902 -1.5l0.5 -1.5l1 0.5c0.666992 0.333008 1 0.833008 1 1.5s-0.333008 1.16699 -1 1.5s-1 1.16602 -1 2.49902
c-0.666992 0.666992 -1.33398 2.33398 -2.00098 5.00098s-1 4.33398 -1 5.00098c1.33301 1.33301 2 3.66602 2 6.99902s-1 6.5 -3 9.5s-3.33301 5.83301 -4 8.5v1l4 -3l-1 11c0 1.33301 0.166992 2.33301 0.5 3s0.5 1.33398 0.5 2.00098v2l-3 6
c-1.33301 4.66699 -3 8.66699 -5 12s-3 5.66602 -3 6.99902c0 4.66699 -2 7.66699 -6 9l-8.5 14c-2.33301 4 -4.83301 8.66699 -7.5 14c-1.33301 8.66699 -2.5 14.5 -3.5 17.5s-1.5 3.5 -1.5 1.5c-5.33301 11.333 -9.33301 22.333 -12 33s-6 22.334 -10 35.001v4
c0 1.33301 1.33301 2 4 2h1c0 -1.33301 1.33301 -3.33301 4 -6c0.666992 -0.666992 1 -2.66699 1 -6c0 -4.66699 2 -9 6 -13l16 -32l0.5 -0.5c0.333008 -0.333008 0.5 -0.833008 0.5 -1.5l-1 -1v-6c0 -1.33301 -0.166992 -4.66602 -0.5 -9.99902s-1.16602 -9 -2.49902 -11
v-1c0 -2.66699 1.33301 -4 4 -4c-0.666992 0 0 1 2 3l2 2l-3 -12l1 -7c1.33301 2 2.33301 3.83301 3 5.5s1.66699 3.16699 3 4.5c2 3.33301 3.83301 6.16602 5.5 8.49902s4.16699 4.83301 7.5 7.5v4c0 2.66699 -0.5 5.16699 -1.5 7.5s-1.5 5.16602 -1.5 8.49902
c0 1.33301 0.166992 2.16602 0.5 2.49902s0.5 0.833008 0.5 1.5l-1 6c0 8 -1 16.167 -3 24.5s-3.66699 16.5 -5 24.5c0 0.666992 -0.333008 1 -1 1c0 0.666992 -0.333008 1 -1 1s-1.16699 -0.333008 -1.5 -1s-1.16602 -1 -2.49902 -1s-2 0.666992 -2 2v4l16 2
c0.666992 0.666992 3 1 7 1h3c2.66699 -1.33301 4.33398 -2.83301 5.00098 -4.5s2 -2.83398 4 -3.50098l5 -2c3.33301 -1.33301 5.33301 -3.5 6 -6.5s1 -6.16699 1 -9.5c0 -5.33301 -1.5 -9 -4.5 -11s-4.5 -3.66699 -4.5 -5v-1h1c2 0.666992 3.83301 1.5 5.5 2.5
s3.16699 1.83301 4.5 2.5c2.66699 2.66699 4 6.33398 4 11.001l1 10c0.666992 0.666992 1 3.33398 1 8.00098c0 1.33301 -0.333008 2.33301 -1 3s-1 1.66699 -1 3v9l-4 2l-2 2l-2 2c-5.33301 2.66699 -9.33301 6.66699 -12 12c-2 2 -4.66699 4.5 -8 7.5s-7 5.83301 -11 8.5
c-1.33301 0.666992 -4.33301 2.33398 -9 5.00098s-7.66699 4.66699 -9 6l-2 1c0 7.33301 -1.33301 16.166 -4 26.499s-7.66699 17.5 -15 21.5l-1 0.5c-0.666992 0.333008 -1.33398 0.833008 -2.00098 1.5c1.33301 8 3.33301 15.5 6 22.5s7 12.5 13 16.5
c1.33301 1.33301 4.5 3.5 9.5 6.5s8.16699 5.16699 9.5 6.5l4 4c1.33301 1.33301 2 3 2 5c0 0.666992 -1 1 -3 1s-4 -0.166992 -6 -0.5s-3.66699 -0.5 -5 -0.5c-9.33301 0 -14.333 5 -15 15v15c0 4 -1 6 -3 6c-1.33301 0 -2.16602 -1.5 -2.49902 -4.5l-0.5 -4.5v-5
c0 -1.33301 -0.333008 -2.33301 -1 -3c-0.666992 -1.33301 -1.33398 -4 -2.00098 -8s-1 -6.66699 -1 -8c-1.33301 -9.33301 -3.5 -19.333 -6.5 -30s-7.16699 -20.667 -12.5 -30h-1c-1.33301 0 -2 0.666992 -2 2c0 2 -0.666992 3.66699 -2 5
c-0.666992 0.666992 -2 1.16699 -4 1.5s-3 1.16602 -3 2.49902v27c0.666992 0.666992 1 1.66699 1 3l-1 12c-0.666992 1.33301 -1.16699 1.83301 -1.5 1.5s-0.833008 -0.166016 -1.5 0.500977c-1.33301 5.33301 -3.5 10.333 -6.5 15s-7.16699 8 -12.5 10h-5
c-1.33301 1.33301 -2.66602 2 -3.99902 2l-5 -1l-3 -2c-4 -1.33301 -7 -2.66602 -9 -3.99902s-4 -5.33301 -6 -12c-0.666992 -0.666992 -1 -2 -1 -4c0 -0.666992 -0.333008 -1.33398 -1 -2.00098c0 -0.666992 -0.333008 -1 -1 -1
c-2.66699 -0.666992 -4 -2.33398 -4 -5.00098v-10v-13c0 -8 0.333008 -12.333 1 -13l1 -3c-0.666992 -0.666992 -1.66699 -1 -3 -1s-2.66602 -0.666992 -3.99902 -2c-0.666992 -0.666992 -1.33398 -1.5 -2.00098 -2.5s-1.33398 -1.5 -2.00098 -1.5h-4h-1v-1l-3 -2
c-2.66699 -1.33301 -4.83398 -2.33301 -6.50098 -3s-3.16699 -1.66699 -4.5 -3l-12 -13l-6 -4.5c-1.33301 -1 -2 -3.5 -2 -7.5c-0.666992 -0.666992 -1 -4.66699 -1 -12v-14c0 -2 0.333008 -3.66699 1 -5s1 -3.33301 1 -6v-2c-0.666992 -4 -1.16699 -7.83301 -1.5 -11.5
s-0.5 -7.16699 -0.5 -10.5s-0.666992 -4.5 -2 -3.5s-2 -3.16699 -2 -12.5c-1.33301 -4 -3.33301 -6.16699 -6 -6.5s-4 -3.5 -4 -9.5v-9c0.666992 -1.33301 1.33398 -2.16602 2.00098 -2.49902s1 -1.16602 1 -2.49902l3 -18c0.666992 -1.33301 1.66699 -2.5 3 -3.5
s2.33301 -2.5 3 -4.5c1.33301 -5.33301 2 -7.66602 2 -6.99902v-5v-2l1 1c1.33301 -1.33301 2 -2.66602 2 -3.99902c0 -2 0.333008 -3.33301 1 -4c1.33301 -0.666992 2.83301 -1.83398 4.5 -3.50098s3.16699 -2.5 4.5 -2.5c2 0 3 0.333008 3 1
c2 -1.33301 4 -3.16602 6 -5.49902s3 -5.16602 3 -8.49902l2 -23v-17l-1 -5c-0.666992 0 -1.66699 -2.16699 -3 -6.5s-2.33301 -7.5 -3 -9.5c-2 -3.33301 -4.16699 -6.16602 -6.5 -8.49902s-4.16602 -5.5 -5.49902 -9.5l-0.5 -0.5
c-0.333008 -0.333008 -0.5 -0.833008 -0.5 -1.5l-12 -38c0 -0.666992 -0.166992 -1.16699 -0.5 -1.5s-0.5 -0.833008 -0.5 -1.5l-4 -12c-0.666992 -0.666992 -1 -1.33398 -1 -2.00098v-1v-1c0 -1.33301 1 -2 3 -2l2 2l19 56c0 2.66699 1 4 3 4c3.33301 0 5 -1.33301 5 -4
c-1.33301 -3.33301 -2.66602 -7 -3.99902 -11s-2.66602 -7.66699 -3.99902 -11c-0.666992 -1.33301 -1.5 -2.83301 -2.5 -4.5s-1.5 -3.83398 -1.5 -6.50098l-9 -27l1 -2c0.666992 0 1 0.333008 1 1c0 1.33301 0.333008 2.33301 1 3l23 53c0.666992 0.666992 1 3 1 7v17l1 11
l3 1c0 1.33301 0.666992 2.33301 2 3l2 1v4c0.666992 0 1 -0.666992 1 -2v-7c0.666992 -8 4 -14.333 10 -19l2 -13l-12 -8v-14v-5c0 -2 0.333008 -3.33301 1 -4l2 -3v-4l0.5 -1c0.333008 -0.666992 0.5 -1.33398 0.5 -2.00098l1 -3c0 -1.33301 0.333008 -3.5 1 -6.5
s1.33398 -3.83301 2.00098 -2.5l2 -3l3 -2c2 0 3.66699 -0.666992 5 -2zM127.992 362.997l1.00195 28.9961c0.666992 2 1.16699 3.83301 1.5 5.5s1.16602 3.5 2.49902 5.5c1.33301 -1.33301 2 -2.33301 2 -3v-2c0.666992 -3.33301 1.16699 -7.16602 1.5 -11.499
s2.16602 -8.16602 5.49902 -11.499c0 -4.66699 -1.16699 -8 -3.5 -10s-3.5 -4 -3.5 -6v-3h-1c-0.666992 0 -1 -0.666992 -1 -2s0.333008 -3 1 -5s0.666992 -2.66699 0 -2v-7h-1v-4c-2.66699 2.66699 -4 6.33398 -4 11.001v1c0 1.33301 0.333008 2 1 2v9
c0 0.666992 -0.333008 1 -1 1c0 0.666992 -0.166992 1.33398 -0.5 2.00098zM270.994 240.993c0 0.666992 0.166016 1.16699 0.499023 1.5l0.5 0.5c0 1.33301 0.333008 3.16602 1 5.49902s1.33398 4.16602 2.00098 5.49902h1c2 -3.33301 3.33301 -7.16602 4 -11.499
s1 -8.16602 1 -11.499v-7h-1c-2.66699 0 -4 1.33301 -4 4h-2c-1.33301 1.33301 -2 4 -2 8zM265.993 257.993v3l5 1v-2c0 -2.66699 -0.666992 -4.66699 -2 -6c-2 0.666992 -3 2 -3 4z" />
    <glyph glyph-name="FL00D5h" unicode="&#xd5;" 
d="M295 740h-119l-24 51l-23 -51h-72l59 130h120l23 -51l23 51h72zM292 0h-173c-30 0 -53 7.5 -69 22.5s-24 37.5 -24 67.5v524c0 30 8 52.5 24 67.5s39 22.5 69 22.5h173c30 0 53 -7.5 69 -22.5s24 -37.5 24 -67.5v-524c0 -30 -8 -52.5 -24 -67.5s-39 -22.5 -69 -22.5z
M162 165c0 -1.33301 0.492188 -4.50293 1.49219 -9.50293s1.83301 -8.83301 2.5 -11.5c2.66699 -4 4.33398 -9.33301 5.00098 -16v-4c0 -2.66699 0.333008 -4.33398 1 -5.00098l3 -8h39v3c0.666992 7.33301 1.33398 13 2.00098 17s1.66699 9 3 15c0 2.66699 0.333008 4 1 4
c0.666992 2 1.5 3.83301 2.5 5.5s1.83301 3.83398 2.5 6.50098l1 2.5c0.666992 1.66699 1.33398 2.5 2.00098 2.5h2c3.33301 2 5 4.33301 5 7l2 10v1c1.33301 0 2.5 -0.5 3.5 -1.5l1.5 -1.5c0 -2.66699 -0.666992 -4.66699 -2 -6s-2 -2.66602 -2 -3.99902l3 3l4 -3
c1.33301 0 3.33301 2.33301 6 7c0 -2.66699 1 -4 3 -4c1.33301 0 2 0.333008 2 1v-1h5l5 -7c2 -2 3 -5.66699 3 -11c1.33301 0 2 -1 2 -3h2h1v1c-1.33301 0 -2 0.666992 -2 2v5l4 7c0.666992 0 1 -0.666992 1 -2c0 -0.666992 0.666992 -1 2 -1l5 3
c0.666992 0 1 -0.666992 1 -2h4c1.33301 0 2 0.333008 2 1v1v3v1c0.666992 0 1 0.666992 1 2c-1.33301 1.33301 -2.33301 1.83301 -3 1.5s-2 0.5 -4 2.5l1 2c0.666992 0 0.833984 0.166992 0.500977 0.5l-0.5 0.5c2.66699 0 3.83398 0.5 3.50098 1.5s0.5 1.83301 2.5 2.5
c0 0.666992 0.333008 0.666992 1 0l1 -1v-1c0.666992 0.666992 1.16699 1.5 1.5 2.5s1.16602 1.5 2.49902 1.5s2.16602 -0.5 2.49902 -1.5l0.5 -1.5l1 0.5c0.666992 0.333008 1 0.833008 1 1.5s-0.333008 1.16699 -1 1.5s-1 1.16602 -1 2.49902
c-0.666992 0.666992 -1.33398 2.33398 -2.00098 5.00098s-1 4.33398 -1 5.00098c1.33301 1.33301 2 3.66602 2 6.99902s-1 6.5 -3 9.5s-3.33301 5.83301 -4 8.5v1l4 -3l-1 11c0 1.33301 0.166992 2.33301 0.5 3s0.5 1.33398 0.5 2.00098v2l-3 6
c-1.33301 4.66699 -3 8.66699 -5 12s-3 5.66602 -3 6.99902c0 4.66699 -2 7.66699 -6 9l-8.5 14c-2.33301 4 -4.83301 8.66699 -7.5 14c-1.33301 8.66699 -2.5 14.5 -3.5 17.5s-1.5 3.5 -1.5 1.5c-5.33301 11.333 -9.33301 22.333 -12 33s-6 22.334 -10 35.001v4
c0 1.33301 1.33301 2 4 2h1c0 -1.33301 1.33301 -3.33301 4 -6c0.666992 -0.666992 1 -2.66699 1 -6c0 -4.66699 2 -9 6 -13l16 -32l0.5 -0.5c0.333008 -0.333008 0.5 -0.833008 0.5 -1.5l-1 -1v-6c0 -1.33301 -0.166992 -4.66602 -0.5 -9.99902s-1.16602 -9 -2.49902 -11
v-1c0 -2.66699 1.33301 -4 4 -4c-0.666992 0 0 1 2 3l2 2l-3 -12l1 -7c1.33301 2 2.33301 3.83301 3 5.5s1.66699 3.16699 3 4.5c2 3.33301 3.83301 6.16602 5.5 8.49902s4.16699 4.83301 7.5 7.5v4c0 2.66699 -0.5 5.16699 -1.5 7.5s-1.5 5.16602 -1.5 8.49902
c0 1.33301 0.166992 2.16602 0.5 2.49902s0.5 0.833008 0.5 1.5l-1 6c0 8 -1 16.167 -3 24.5s-3.66699 16.5 -5 24.5c0 0.666992 -0.333008 1 -1 1c0 0.666992 -0.333008 1 -1 1s-1.16699 -0.333008 -1.5 -1s-1.16602 -1 -2.49902 -1s-2 0.666992 -2 2v4l16 2
c0.666992 0.666992 3 1 7 1h3c2.66699 -1.33301 4.33398 -2.83301 5.00098 -4.5s2 -2.83398 4 -3.50098l5 -2c3.33301 -1.33301 5.33301 -3.5 6 -6.5s1 -6.16699 1 -9.5c0 -5.33301 -1.5 -9 -4.5 -11s-4.5 -3.66699 -4.5 -5v-1h1c2 0.666992 3.83301 1.5 5.5 2.5
s3.16699 1.83301 4.5 2.5c2.66699 2.66699 4 6.33398 4 11.001l1 10c0.666992 0.666992 1 3.33398 1 8.00098c0 1.33301 -0.333008 2.33301 -1 3s-1 1.66699 -1 3v9l-4 2l-2 2l-2 2c-5.33301 2.66699 -9.33301 6.66699 -12 12c-2 2 -4.66699 4.5 -8 7.5s-7 5.83301 -11 8.5
c-1.33301 0.666992 -4.33301 2.33398 -9 5.00098s-7.66699 4.66699 -9 6l-2 1c0 7.33301 -1.33301 16.166 -4 26.499s-7.66699 17.5 -15 21.5l-1 0.5c-0.666992 0.333008 -1.33398 0.833008 -2.00098 1.5c1.33301 8 3.33301 15.5 6 22.5s7 12.5 13 16.5
c1.33301 1.33301 4.5 3.5 9.5 6.5s8.16699 5.16699 9.5 6.5l4 4c1.33301 1.33301 2 3 2 5c0 0.666992 -1 1 -3 1s-4 -0.166992 -6 -0.5s-3.66699 -0.5 -5 -0.5c-9.33301 0 -14.333 5 -15 15v15c0 4 -1 6 -3 6c-1.33301 0 -2.16602 -1.5 -2.49902 -4.5l-0.5 -4.5v-5
c0 -1.33301 -0.333008 -2.33301 -1 -3c-0.666992 -1.33301 -1.33398 -4 -2.00098 -8s-1 -6.66699 -1 -8c-1.33301 -9.33301 -3.5 -19.333 -6.5 -30s-7.16699 -20.667 -12.5 -30h-1c-1.33301 0 -2 0.666992 -2 2c0 2 -0.666992 3.66699 -2 5
c-0.666992 0.666992 -2 1.16699 -4 1.5s-3 1.16602 -3 2.49902v27c0.666992 0.666992 1 1.66699 1 3l-1 12c-0.666992 1.33301 -1.16699 1.83301 -1.5 1.5s-0.833008 -0.166016 -1.5 0.500977c-1.33301 5.33301 -3.5 10.333 -6.5 15s-7.16699 8 -12.5 10h-5
c-1.33301 1.33301 -2.66602 2 -3.99902 2l-5 -1l-3 -2c-4 -1.33301 -7 -2.66602 -9 -3.99902s-4 -5.33301 -6 -12c-0.666992 -0.666992 -1 -2 -1 -4c0 -0.666992 -0.333008 -1.33398 -1 -2.00098c0 -0.666992 -0.333008 -1 -1 -1
c-2.66699 -0.666992 -4 -2.33398 -4 -5.00098v-10v-13c0 -8 0.333008 -12.333 1 -13l1 -3c-0.666992 -0.666992 -1.66699 -1 -3 -1s-2.66602 -0.666992 -3.99902 -2c-0.666992 -0.666992 -1.33398 -1.5 -2.00098 -2.5s-1.33398 -1.5 -2.00098 -1.5h-4h-1v-1l-3 -2
c-2.66699 -1.33301 -4.83398 -2.33301 -6.50098 -3s-3.16699 -1.66699 -4.5 -3l-12 -13l-6 -4.5c-1.33301 -1 -2 -3.5 -2 -7.5c-0.666992 -0.666992 -1 -4.66699 -1 -12v-14c0 -2 0.333008 -3.66699 1 -5s1 -3.33301 1 -6v-2c-0.666992 -4 -1.16699 -7.83301 -1.5 -11.5
s-0.5 -7.16699 -0.5 -10.5s-0.666992 -4.5 -2 -3.5s-2 -3.16699 -2 -12.5c-1.33301 -4 -3.33301 -6.16699 -6 -6.5s-4 -3.5 -4 -9.5v-9c0.666992 -1.33301 1.33398 -2.16602 2.00098 -2.49902s1 -1.16602 1 -2.49902l3 -18c0.666992 -1.33301 1.66699 -2.5 3 -3.5
s2.33301 -2.5 3 -4.5c1.33301 -5.33301 2 -7.66602 2 -6.99902v-5v-2l1 1c1.33301 -1.33301 2 -2.66602 2 -3.99902c0 -2 0.333008 -3.33301 1 -4c1.33301 -0.666992 2.83301 -1.83398 4.5 -3.50098s3.16699 -2.5 4.5 -2.5c2 0 3 0.333008 3 1
c2 -1.33301 4 -3.16602 6 -5.49902s3 -5.16602 3 -8.49902l2 -23v-17l-1 -5c-0.666992 0 -1.66699 -2.16699 -3 -6.5s-2.33301 -7.5 -3 -9.5c-2 -3.33301 -4.16699 -6.16602 -6.5 -8.49902s-4.16602 -5.5 -5.49902 -9.5l-0.5 -0.5
c-0.333008 -0.333008 -0.5 -0.833008 -0.5 -1.5l-12 -38c0 -0.666992 -0.166992 -1.16699 -0.5 -1.5s-0.5 -0.833008 -0.5 -1.5l-4 -12c-0.666992 -0.666992 -1 -1.33398 -1 -2.00098v-1v-1c0 -1.33301 1 -2 3 -2l2 2l19 56c0 2.66699 1 4 3 4c3.33301 0 5 -1.33301 5 -4
c-1.33301 -3.33301 -2.66602 -7 -3.99902 -11s-2.66602 -7.66699 -3.99902 -11c-0.666992 -1.33301 -1.5 -2.83301 -2.5 -4.5s-1.5 -3.83398 -1.5 -6.50098l-9 -27l1 -2c0.666992 0 1 0.333008 1 1c0 1.33301 0.333008 2.33301 1 3l23 53c0.666992 0.666992 1 3 1 7v17l1 11
l3 1c0 1.33301 0.666992 2.33301 2 3l2 1v4c0.666992 0 1 -0.666992 1 -2v-7c0.666992 -8 4 -14.333 10 -19l2 -13l-12 -8v-14v-5c0 -2 0.333008 -3.33301 1 -4l2 -3v-4l0.5 -1c0.333008 -0.666992 0.5 -1.33398 0.5 -2.00098l1 -3c0 -1.33301 0.333008 -3.5 1 -6.5
s1.33398 -3.83301 2.00098 -2.5l2 -3l3 -2c2 0 3.66699 -0.666992 5 -2zM127.992 362.997l1.00195 28.9961c0.666992 2 1.16699 3.83301 1.5 5.5s1.16602 3.5 2.49902 5.5c1.33301 -1.33301 2 -2.33301 2 -3v-2c0.666992 -3.33301 1.16699 -7.16602 1.5 -11.499
s2.16602 -8.16602 5.49902 -11.499c0 -4.66699 -1.16699 -8 -3.5 -10s-3.5 -4 -3.5 -6v-3h-1c-0.666992 0 -1 -0.666992 -1 -2s0.333008 -3 1 -5s0.666992 -2.66699 0 -2v-7h-1v-4c-2.66699 2.66699 -4 6.33398 -4 11.001v1c0 1.33301 0.333008 2 1 2v9
c0 0.666992 -0.333008 1 -1 1c0 0.666992 -0.166992 1.33398 -0.5 2.00098zM270.994 240.993c0 0.666992 0.166016 1.16699 0.499023 1.5l0.5 0.5c0 1.33301 0.333008 3.16602 1 5.49902s1.33398 4.16602 2.00098 5.49902h1c2 -3.33301 3.33301 -7.16602 4 -11.499
s1 -8.16602 1 -11.499v-7h-1c-2.66699 0 -4 1.33301 -4 4h-2c-1.33301 1.33301 -2 4 -2 8zM265.993 257.993v3l5 1v-2c0 -2.66699 -0.666992 -4.66699 -2 -6c-2 0.666992 -3 2 -3 4z" />
    <glyph glyph-name="FL00D6h" unicode="&#xd6;" 
d="M63 870h128v-130h-128v130zM220 870h128v-130h-128v130zM292 0h-173c-30 0 -53 7.5 -69 22.5s-24 37.5 -24 67.5v524c0 30 8 52.5 24 67.5s39 22.5 69 22.5h173c30 0 53 -7.5 69 -22.5s24 -37.5 24 -67.5v-524c0 -30 -8 -52.5 -24 -67.5s-39 -22.5 -69 -22.5zM162 165
c0 -1.33301 0.492188 -4.50293 1.49219 -9.50293s1.83301 -8.83301 2.5 -11.5c2.66699 -4 4.33398 -9.33301 5.00098 -16v-4c0 -2.66699 0.333008 -4.33398 1 -5.00098l3 -8h39v3c0.666992 7.33301 1.33398 13 2.00098 17s1.66699 9 3 15c0 2.66699 0.333008 4 1 4
c0.666992 2 1.5 3.83301 2.5 5.5s1.83301 3.83398 2.5 6.50098l1 2.5c0.666992 1.66699 1.33398 2.5 2.00098 2.5h2c3.33301 2 5 4.33301 5 7l2 10v1c1.33301 0 2.5 -0.5 3.5 -1.5l1.5 -1.5c0 -2.66699 -0.666992 -4.66699 -2 -6s-2 -2.66602 -2 -3.99902l3 3l4 -3
c1.33301 0 3.33301 2.33301 6 7c0 -2.66699 1 -4 3 -4c1.33301 0 2 0.333008 2 1v-1h5l5 -7c2 -2 3 -5.66699 3 -11c1.33301 0 2 -1 2 -3h2h1v1c-1.33301 0 -2 0.666992 -2 2v5l4 7c0.666992 0 1 -0.666992 1 -2c0 -0.666992 0.666992 -1 2 -1l5 3
c0.666992 0 1 -0.666992 1 -2h4c1.33301 0 2 0.333008 2 1v1v3v1c0.666992 0 1 0.666992 1 2c-1.33301 1.33301 -2.33301 1.83301 -3 1.5s-2 0.5 -4 2.5l1 2c0.666992 0 0.833984 0.166992 0.500977 0.5l-0.5 0.5c2.66699 0 3.83398 0.5 3.50098 1.5s0.5 1.83301 2.5 2.5
c0 0.666992 0.333008 0.666992 1 0l1 -1v-1c0.666992 0.666992 1.16699 1.5 1.5 2.5s1.16602 1.5 2.49902 1.5s2.16602 -0.5 2.49902 -1.5l0.5 -1.5l1 0.5c0.666992 0.333008 1 0.833008 1 1.5s-0.333008 1.16699 -1 1.5s-1 1.16602 -1 2.49902
c-0.666992 0.666992 -1.33398 2.33398 -2.00098 5.00098s-1 4.33398 -1 5.00098c1.33301 1.33301 2 3.66602 2 6.99902s-1 6.5 -3 9.5s-3.33301 5.83301 -4 8.5v1l4 -3l-1 11c0 1.33301 0.166992 2.33301 0.5 3s0.5 1.33398 0.5 2.00098v2l-3 6
c-1.33301 4.66699 -3 8.66699 -5 12s-3 5.66602 -3 6.99902c0 4.66699 -2 7.66699 -6 9l-8.5 14c-2.33301 4 -4.83301 8.66699 -7.5 14c-1.33301 8.66699 -2.5 14.5 -3.5 17.5s-1.5 3.5 -1.5 1.5c-5.33301 11.333 -9.33301 22.333 -12 33s-6 22.334 -10 35.001v4
c0 1.33301 1.33301 2 4 2h1c0 -1.33301 1.33301 -3.33301 4 -6c0.666992 -0.666992 1 -2.66699 1 -6c0 -4.66699 2 -9 6 -13l16 -32l0.5 -0.5c0.333008 -0.333008 0.5 -0.833008 0.5 -1.5l-1 -1v-6c0 -1.33301 -0.166992 -4.66602 -0.5 -9.99902s-1.16602 -9 -2.49902 -11
v-1c0 -2.66699 1.33301 -4 4 -4c-0.666992 0 0 1 2 3l2 2l-3 -12l1 -7c1.33301 2 2.33301 3.83301 3 5.5s1.66699 3.16699 3 4.5c2 3.33301 3.83301 6.16602 5.5 8.49902s4.16699 4.83301 7.5 7.5v4c0 2.66699 -0.5 5.16699 -1.5 7.5s-1.5 5.16602 -1.5 8.49902
c0 1.33301 0.166992 2.16602 0.5 2.49902s0.5 0.833008 0.5 1.5l-1 6c0 8 -1 16.167 -3 24.5s-3.66699 16.5 -5 24.5c0 0.666992 -0.333008 1 -1 1c0 0.666992 -0.333008 1 -1 1s-1.16699 -0.333008 -1.5 -1s-1.16602 -1 -2.49902 -1s-2 0.666992 -2 2v4l16 2
c0.666992 0.666992 3 1 7 1h3c2.66699 -1.33301 4.33398 -2.83301 5.00098 -4.5s2 -2.83398 4 -3.50098l5 -2c3.33301 -1.33301 5.33301 -3.5 6 -6.5s1 -6.16699 1 -9.5c0 -5.33301 -1.5 -9 -4.5 -11s-4.5 -3.66699 -4.5 -5v-1h1c2 0.666992 3.83301 1.5 5.5 2.5
s3.16699 1.83301 4.5 2.5c2.66699 2.66699 4 6.33398 4 11.001l1 10c0.666992 0.666992 1 3.33398 1 8.00098c0 1.33301 -0.333008 2.33301 -1 3s-1 1.66699 -1 3v9l-4 2l-2 2l-2 2c-5.33301 2.66699 -9.33301 6.66699 -12 12c-2 2 -4.66699 4.5 -8 7.5s-7 5.83301 -11 8.5
c-1.33301 0.666992 -4.33301 2.33398 -9 5.00098s-7.66699 4.66699 -9 6l-2 1c0 7.33301 -1.33301 16.166 -4 26.499s-7.66699 17.5 -15 21.5l-1 0.5c-0.666992 0.333008 -1.33398 0.833008 -2.00098 1.5c1.33301 8 3.33301 15.5 6 22.5s7 12.5 13 16.5
c1.33301 1.33301 4.5 3.5 9.5 6.5s8.16699 5.16699 9.5 6.5l4 4c1.33301 1.33301 2 3 2 5c0 0.666992 -1 1 -3 1s-4 -0.166992 -6 -0.5s-3.66699 -0.5 -5 -0.5c-9.33301 0 -14.333 5 -15 15v15c0 4 -1 6 -3 6c-1.33301 0 -2.16602 -1.5 -2.49902 -4.5l-0.5 -4.5v-5
c0 -1.33301 -0.333008 -2.33301 -1 -3c-0.666992 -1.33301 -1.33398 -4 -2.00098 -8s-1 -6.66699 -1 -8c-1.33301 -9.33301 -3.5 -19.333 -6.5 -30s-7.16699 -20.667 -12.5 -30h-1c-1.33301 0 -2 0.666992 -2 2c0 2 -0.666992 3.66699 -2 5
c-0.666992 0.666992 -2 1.16699 -4 1.5s-3 1.16602 -3 2.49902v27c0.666992 0.666992 1 1.66699 1 3l-1 12c-0.666992 1.33301 -1.16699 1.83301 -1.5 1.5s-0.833008 -0.166016 -1.5 0.500977c-1.33301 5.33301 -3.5 10.333 -6.5 15s-7.16699 8 -12.5 10h-5
c-1.33301 1.33301 -2.66602 2 -3.99902 2l-5 -1l-3 -2c-4 -1.33301 -7 -2.66602 -9 -3.99902s-4 -5.33301 -6 -12c-0.666992 -0.666992 -1 -2 -1 -4c0 -0.666992 -0.333008 -1.33398 -1 -2.00098c0 -0.666992 -0.333008 -1 -1 -1
c-2.66699 -0.666992 -4 -2.33398 -4 -5.00098v-10v-13c0 -8 0.333008 -12.333 1 -13l1 -3c-0.666992 -0.666992 -1.66699 -1 -3 -1s-2.66602 -0.666992 -3.99902 -2c-0.666992 -0.666992 -1.33398 -1.5 -2.00098 -2.5s-1.33398 -1.5 -2.00098 -1.5h-4h-1v-1l-3 -2
c-2.66699 -1.33301 -4.83398 -2.33301 -6.50098 -3s-3.16699 -1.66699 -4.5 -3l-12 -13l-6 -4.5c-1.33301 -1 -2 -3.5 -2 -7.5c-0.666992 -0.666992 -1 -4.66699 -1 -12v-14c0 -2 0.333008 -3.66699 1 -5s1 -3.33301 1 -6v-2c-0.666992 -4 -1.16699 -7.83301 -1.5 -11.5
s-0.5 -7.16699 -0.5 -10.5s-0.666992 -4.5 -2 -3.5s-2 -3.16699 -2 -12.5c-1.33301 -4 -3.33301 -6.16699 -6 -6.5s-4 -3.5 -4 -9.5v-9c0.666992 -1.33301 1.33398 -2.16602 2.00098 -2.49902s1 -1.16602 1 -2.49902l3 -18c0.666992 -1.33301 1.66699 -2.5 3 -3.5
s2.33301 -2.5 3 -4.5c1.33301 -5.33301 2 -7.66602 2 -6.99902v-5v-2l1 1c1.33301 -1.33301 2 -2.66602 2 -3.99902c0 -2 0.333008 -3.33301 1 -4c1.33301 -0.666992 2.83301 -1.83398 4.5 -3.50098s3.16699 -2.5 4.5 -2.5c2 0 3 0.333008 3 1
c2 -1.33301 4 -3.16602 6 -5.49902s3 -5.16602 3 -8.49902l2 -23v-17l-1 -5c-0.666992 0 -1.66699 -2.16699 -3 -6.5s-2.33301 -7.5 -3 -9.5c-2 -3.33301 -4.16699 -6.16602 -6.5 -8.49902s-4.16602 -5.5 -5.49902 -9.5l-0.5 -0.5
c-0.333008 -0.333008 -0.5 -0.833008 -0.5 -1.5l-12 -38c0 -0.666992 -0.166992 -1.16699 -0.5 -1.5s-0.5 -0.833008 -0.5 -1.5l-4 -12c-0.666992 -0.666992 -1 -1.33398 -1 -2.00098v-1v-1c0 -1.33301 1 -2 3 -2l2 2l19 56c0 2.66699 1 4 3 4c3.33301 0 5 -1.33301 5 -4
c-1.33301 -3.33301 -2.66602 -7 -3.99902 -11s-2.66602 -7.66699 -3.99902 -11c-0.666992 -1.33301 -1.5 -2.83301 -2.5 -4.5s-1.5 -3.83398 -1.5 -6.50098l-9 -27l1 -2c0.666992 0 1 0.333008 1 1c0 1.33301 0.333008 2.33301 1 3l23 53c0.666992 0.666992 1 3 1 7v17l1 11
l3 1c0 1.33301 0.666992 2.33301 2 3l2 1v4c0.666992 0 1 -0.666992 1 -2v-7c0.666992 -8 4 -14.333 10 -19l2 -13l-12 -8v-14v-5c0 -2 0.333008 -3.33301 1 -4l2 -3v-4l0.5 -1c0.333008 -0.666992 0.5 -1.33398 0.5 -2.00098l1 -3c0 -1.33301 0.333008 -3.5 1 -6.5
s1.33398 -3.83301 2.00098 -2.5l2 -3l3 -2c2 0 3.66699 -0.666992 5 -2zM127.992 362.997l1.00195 28.9961c0.666992 2 1.16699 3.83301 1.5 5.5s1.16602 3.5 2.49902 5.5c1.33301 -1.33301 2 -2.33301 2 -3v-2c0.666992 -3.33301 1.16699 -7.16602 1.5 -11.499
s2.16602 -8.16602 5.49902 -11.499c0 -4.66699 -1.16699 -8 -3.5 -10s-3.5 -4 -3.5 -6v-3h-1c-0.666992 0 -1 -0.666992 -1 -2s0.333008 -3 1 -5s0.666992 -2.66699 0 -2v-7h-1v-4c-2.66699 2.66699 -4 6.33398 -4 11.001v1c0 1.33301 0.333008 2 1 2v9
c0 0.666992 -0.333008 1 -1 1c0 0.666992 -0.166992 1.33398 -0.5 2.00098zM270.994 240.993c0 0.666992 0.166016 1.16699 0.499023 1.5l0.5 0.5c0 1.33301 0.333008 3.16602 1 5.49902s1.33398 4.16602 2.00098 5.49902h1c2 -3.33301 3.33301 -7.16602 4 -11.499
s1 -8.16602 1 -11.499v-7h-1c-2.66699 0 -4 1.33301 -4 4h-2c-1.33301 1.33301 -2 4 -2 8zM265.993 257.993v3l5 1v-2c0 -2.66699 -0.666992 -4.66699 -2 -6c-2 0.666992 -3 2 -3 4z" />
    <glyph glyph-name="FL00D7h" unicode="&#xd7;" horiz-adv-x="328" 
d="M118 495l46 -46l46 46l92 -92l-46 -46l46 -46l-92 -92l-46 46l-46 -46l-92 92l46 46l-46 46z" />
    <glyph glyph-name="FL00D8h" unicode="&#xd8;" horiz-adv-x="409" 
d="M290 704h-171c-30 0 -53 -7.5 -69 -22.5s-24 -37.5 -24 -67.5v-524c0 -30 8 -52.5 24 -67.5s39 -22.5 69 -22.5h171c30 0 53 7.5 69 22.5s24 37.5 24 67.5v524c0 30 -8 52.5 -24 67.5s-39 22.5 -69 22.5zM255 130h-69l69 247v-247zM154 574h69l-69 -247v247z" />
    <glyph glyph-name="FL00D9h" unicode="&#xd9;" 
d="M222 870h-128l63 -130h120zM119 0h173c30 0 53 7.5 69 22.5s24 37.5 24 67.5v614h-128v-574h-103v574h-128v-614c0 -30 8 -52.5 24 -67.5s39 -22.5 69 -22.5z" />
    <glyph glyph-name="FL00DAh" unicode="&#xda;" 
d="M317 870h-128l-55 -130h120zM119 0h173c30 0 53 7.5 69 22.5s24 37.5 24 67.5v614h-128v-574h-103v574h-128v-614c0 -30 8 -52.5 24 -67.5s39 -22.5 69 -22.5z" />
    <glyph glyph-name="FL00DBh" unicode="&#xdb;" 
d="M291 870h-171l-59 -130h120l24 51l25 -51h120zM119 0h173c30 0 53 7.5 69 22.5s24 37.5 24 67.5v614h-128v-574h-103v574h-128v-614c0 -30 8 -52.5 24 -67.5s39 -22.5 69 -22.5z" />
    <glyph glyph-name="FL00DCh" unicode="&#xdc;" 
d="M348 870h-128v-130h128v130zM191 870h-128v-130h128v130zM119 0h173c30 0 53 7.5 69 22.5s24 37.5 24 67.5v614h-128v-574h-103v574h-128v-614c0 -30 8 -52.5 24 -67.5s39 -22.5 69 -22.5z" />
    <glyph glyph-name="FL00DDh" unicode="&#xdd;" horiz-adv-x="418" 
d="M320 870h-128l-55 -130h120zM148 704h-132l128 -351v-353h128v352l130 352h-132l-61 -180z" />
    <glyph glyph-name="FL00DEh" unicode="&#xde;" 
d="M26 704h128v-138h138c30 0 53 -7.5 69 -22.5s24 -37.5 24 -67.5v-232c0 -30 -8 -52.5 -24 -67.5s-39 -22.5 -69 -22.5h-109v130h75v152h-104v-436h-128v704z" />
    <glyph glyph-name="FL08C2h" unicode="&#xdf;" horiz-adv-x="421" 
d="M26 614c0 30 8 52.5 24 67.5s39 22.5 69 22.5h165c30 0 53 -7.5 69 -22.5s24 -37.5 24 -67.5v-181c0 -19.333 -3 -35.5 -9 -48.5s-16.667 -22.167 -32 -27.5c16.667 -6 30.667 -15.833 42 -29.5s17 -31.167 17 -52.5v-185c0 -30 -8 -52.5 -24 -67.5s-39 -22.5 -69 -22.5
h-120v130h85v161h-84v131h66v152h-95v-574h-128v614z" />
    <glyph glyph-name="FL00E0h" unicode="&#xe0;" horiz-adv-x="460" 
d="M164 704h132l148 -704h-136l-77 388l-79 -388h-136zM304 740h-120l-63 130h128z" />
    <glyph glyph-name="FL0CF4h" unicode="&#xe1;" horiz-adv-x="461" 
d="M212 870h128l-63 -130h-120zM445 0h-136l-79 388l-77 -388h-136l148 704h132z" />
    <glyph glyph-name="FL00E2h" unicode="&#xe2;" horiz-adv-x="461" 
d="M145 870h171l59 -130h-120l-25 51l-24 -51h-120zM445 0h-136l-79 388l-77 -388h-136l148 704h132z" />
    <glyph glyph-name="FL00E3h" unicode="&#xe3;" horiz-adv-x="461" 
d="M320 740h-119l-24 51l-23 -51h-72l59 130h120l23 -51l23 51h72zM445 0h-136l-79 388l-77 -388h-136l148 704h132z" />
    <glyph glyph-name="FL00E4h" unicode="&#xe4;" horiz-adv-x="461" 
d="M88 870h128v-130h-128v130zM245 870h128v-130h-128v130zM445 0h-136l-79 388l-77 -388h-136l148 704h132z" />
    <glyph glyph-name="FL00E5h" unicode="&#xe5;" horiz-adv-x="461" 
d="M297 704h-132l-148 -704h136l77 388l79 -388h136zM166 740h128v130h-128v-130zM213 826h35v-42h-35v42z" />
    <glyph glyph-name="FL00E7h" unicode="&#xe6;" horiz-adv-x="702" 
d="M371 704h305v-130h-177v-152h147v-130h-147v-162h177v-130h-368l-79 388l-77 -388h-136l148 704h132l75 -357v357z" />
    <glyph glyph-name="FL00E8h" unicode="&#xe7;" horiz-adv-x="357" 
d="M120 -43h37.999v43h-39c-30 0 -53 7.5 -69 22.5s-24 37.5 -24 67.5v530c0 30 8.33301 51.5 25 64.5s39.334 19.5 68.001 19.5h212v-130h-177v-444h177v-130h-86v-127h-125v84z" />
    <glyph glyph-name="FL07DEh" unicode="&#xe8;" horiz-adv-x="357" 
d="M26 704v-704h305v130h-177v162h147v130h-147v152h177v130h-305zM197 870h-128l63 -130h120z" />
    <glyph glyph-name="FL00E9h" unicode="&#xe9;" horiz-adv-x="357" 
d="M288 870h-128l-55 -130h120zM26 704v-704h305v130h-177v162h147v130h-147v152h177v130h-305z" />
    <glyph glyph-name="FL00EAh" unicode="&#xea;" horiz-adv-x="357" 
d="M93 870h171l59 -130h-120l-25 51l-24 -51h-120zM26 0v704h305v-130h-177v-152h147v-130h-147v-162h177v-130h-305z" />
    <glyph glyph-name="FL00EBh" unicode="&#xeb;" horiz-adv-x="357" 
d="M36 870h128v-130h-128v130zM193 870h128v-130h-128v130zM26 0v704h305v-130h-177v-152h147v-130h-147v-162h177v-130h-305z" />
    <glyph glyph-name="FL00ECh" unicode="&#xec;" horiz-adv-x="180" 
d="M-19 870h128l55 -130h-120zM26 704h128v-704h-128v704z" />
    <glyph glyph-name="FL0718h" unicode="&#xed;" horiz-adv-x="180" 
d="M72 870h128l-63 -130h-120zM26 704h128v-704h-128v704z" />
    <glyph glyph-name="FL00EEh" unicode="&#xee;" horiz-adv-x="180" 
d="M5 870h171l59 -130h-120l-25 51l-24 -51h-120zM26 704h128v-704h-128v704z" />
    <glyph glyph-name="FL00EFh" unicode="&#xef;" horiz-adv-x="180" 
d="M-52 870h128v-130h-128v130zM105 870h128v-130h-128v130zM26 704h128v-704h-128v704z" />
    <glyph glyph-name="FL00F0h" unicode="&#xf0;" horiz-adv-x="407" 
d="M223 504l0.000976562 70h31v-152h-135c-30 0 -53 -7.33301 -69 -22s-24 -37 -24 -67v-243c0 -30 8 -52.5 24 -67.5s39 -22.5 69 -22.5h169c30 0 53 7.5 69 22.5s24 37.5 24 67.5v530c0 30 -8.33301 51.5 -25 64.5s-39.334 19.5 -68.001 19.5h-65v70h-128v-70h-69v-130h69
v-70h128zM254.001 292v-162h-101v162h101z" />
    <glyph glyph-name="FL00F1h" unicode="&#xf1;" horiz-adv-x="408" 
d="M292 740h-119l-24 51l-23 -51h-72l59 130h120l23 -51l23 51h72zM382 0h-104l-125 307v-307h-127v704h104l125 -340v340h127v-704z" />
    <glyph glyph-name="FL00F2h" unicode="&#xf2;" 
d="M94 870h128l55 -130h-120zM292 0h-173c-30 0 -53 7.5 -69 22.5s-24 37.5 -24 67.5v524c0 30 8 52.5 24 67.5s39 22.5 69 22.5h173c30 0 53 -7.5 69 -22.5s24 -37.5 24 -67.5v-524c0 -30 -8 -52.5 -24 -67.5s-39 -22.5 -69 -22.5zM257 574h-103v-444h103v444z" />
    <glyph glyph-name="FL00F3h" unicode="&#xf3;" 
d="M257 574h-103v-444h103v444zM292 0h-173c-30 0 -53 7.5 -69 22.5s-24 37.5 -24 67.5v524c0 30 8 52.5 24 67.5s39 22.5 69 22.5h173c30 0 53 -7.5 69 -22.5s24 -37.5 24 -67.5v-524c0 -30 -8 -52.5 -24 -67.5s-39 -22.5 -69 -22.5zM189 870h128l-63 -130h-120z" />
    <glyph glyph-name="FL00F4h" unicode="&#xf4;" 
d="M292 0h-173c-30 0 -53 7.5 -69 22.5s-24 37.5 -24 67.5v524c0 30 8 52.5 24 67.5s39 22.5 69 22.5h173c30 0 53 -7.5 69 -22.5s24 -37.5 24 -67.5v-524c0 -30 -8 -52.5 -24 -67.5s-39 -22.5 -69 -22.5zM257 574h-103v-444h103v444zM120 870h171l59 -130h-120l-25 51
l-24 -51h-120z" />
    <glyph glyph-name="FL003Dh" unicode="&#xf5;" 
d="M295 740h-119l-24 51l-23 -51h-72l59 130h120l23 -51l23 51h72zM292 0h-173c-30 0 -53 7.5 -69 22.5s-24 37.5 -24 67.5v524c0 30 8 52.5 24 67.5s39 22.5 69 22.5h173c30 0 53 -7.5 69 -22.5s24 -37.5 24 -67.5v-524c0 -30 -8 -52.5 -24 -67.5s-39 -22.5 -69 -22.5z
M257 574h-103v-444h103v444z" />
    <glyph glyph-name="FL00F6h" unicode="&#xf6;" 
d="M63 870h128v-130h-128v130zM220 870h128v-130h-128v130zM257 574h-103v-444h103v444zM292 0h-173c-30 0 -53 7.5 -69 22.5s-24 37.5 -24 67.5v524c0 30 8 52.5 24 67.5s39 22.5 69 22.5h173c30 0 53 -7.5 69 -22.5s24 -37.5 24 -67.5v-524c0 -30 -8 -52.5 -24 -67.5
s-39 -22.5 -69 -22.5z" />
    <glyph glyph-name="FL00F7h" unicode="&#xf7;" horiz-adv-x="362" 
d="M117 260h128v-130h-128v130zM117 583h128v-130h-128v130zM26 422h310v-130h-310v130z" />
    <glyph glyph-name="FL0100h" unicode="&#xf8;" horiz-adv-x="409" 
d="M290 704h-171c-30 0 -53 -7.5 -69 -22.5s-24 -37.5 -24 -67.5v-524c0 -30 8 -52.5 24 -67.5s39 -22.5 69 -22.5h171c30 0 53 7.5 69 22.5s24 37.5 24 67.5v524c0 30 -8 52.5 -24 67.5s-39 22.5 -69 22.5zM255 130h-69l69 247v-247zM154 574h69l-69 -247v247z" />
    <glyph glyph-name="FL00F9h" unicode="&#xf9;" 
d="M222 870h-128l63 -130h120zM119 0h173c30 0 53 7.5 69 22.5s24 37.5 24 67.5v614h-128v-574h-103v574h-128v-614c0 -30 8 -52.5 24 -67.5s39 -22.5 69 -22.5z" />
    <glyph glyph-name="FL00FAh" unicode="&#xfa;" 
d="M317 870h-128l-55 -130h120zM119 0h173c30 0 53 7.5 69 22.5s24 37.5 24 67.5v614h-128v-574h-103v574h-128v-614c0 -30 8 -52.5 24 -67.5s39 -22.5 69 -22.5z" />
    <glyph glyph-name="FL00FBh" unicode="&#xfb;" 
d="M291 870h-171l-59 -130h120l24 51l25 -51h120zM119 0h173c30 0 53 7.5 69 22.5s24 37.5 24 67.5v614h-128v-574h-103v574h-128v-614c0 -30 8 -52.5 24 -67.5s39 -22.5 69 -22.5z" />
    <glyph glyph-name="FL00FCh" unicode="&#xfc;" 
d="M348 870h-128v-130h128v130zM191 870h-128v-130h128v130zM119 0h173c30 0 53 7.5 69 22.5s24 37.5 24 67.5v614h-128v-574h-103v574h-128v-614c0 -30 8 -52.5 24 -67.5s39 -22.5 69 -22.5z" />
    <glyph glyph-name="FL00FDh" unicode="&#xfd;" horiz-adv-x="418" 
d="M320 870h-128l-55 -130h120zM148 704h-132l128 -351v-353h128v352l130 352h-132l-61 -180z" />
    <glyph glyph-name="FL00FEh" unicode="&#xfe;" 
d="M26 704h128v-138h138c30 0 53 -7.5 69 -22.5s24 -37.5 24 -67.5v-232c0 -30 -8 -52.5 -24 -67.5s-39 -22.5 -69 -22.5h-109v130h75v152h-104v-436h-128v704z" />
    <glyph glyph-name="FL00FFh" unicode="&#xff;" horiz-adv-x="418" 
d="M351 870h-128v-130h128v130zM194 870h-128v-130h128v130zM148 704h-132l128 -351v-353h128v352l130 352h-132l-61 -180z" />
    <glyph glyph-name="FL0152h" unicode="&#x152;" horiz-adv-x="588" 
d="M119 704h443v-130h-177v-152h147v-130h-147v-162h177v-130h-443c-30 0 -53 7.5 -69 22.5s-24 37.5 -24 67.5v524c0 30 8 52.5 24 67.5s39 22.5 69 22.5zM154 130h103v444h-103v-444z" />
    <glyph glyph-name="FL0040h" unicode="&#x153;" horiz-adv-x="588" 
d="M119 704h443v-130h-177v-152h147v-130h-147v-162h177v-130h-443c-30 0 -53 7.5 -69 22.5s-24 37.5 -24 67.5v524c0 30 8 52.5 24 67.5s39 22.5 69 22.5zM154 130h103v444h-103v-444z" />
    <glyph glyph-name="FL0160h" unicode="&#x160;" horiz-adv-x="359" 
d="M265 740h-171l-59 130h120l25 -51l24 51h120zM325 174l4.99902 -19.499c2 -7.66699 3 -15.5 3 -23.5v-41c0 -30 -8 -52.5 -24 -67.5s-39 -22.5 -69 -22.5h-214v130h173l-165 401c-2 5.33301 -3.83301 12.166 -5.5 20.499s-2.5 15.5 -2.5 21.5v47
c0 30 8.33301 51.5 25 64.5s39.334 19.5 68.001 19.5h214v-130h-173z" />
    <glyph glyph-name="FL0161h" unicode="&#x161;" horiz-adv-x="359" 
d="M265 740h-171l-59 130h120l25 -51l24 51h120zM325 174l4.99902 -19.499c2 -7.66699 3 -15.5 3 -23.5v-41c0 -30 -8 -52.5 -24 -67.5s-39 -22.5 -69 -22.5h-214v130h173l-165 401c-2 5.33301 -3.83301 12.166 -5.5 20.499s-2.5 15.5 -2.5 21.5v47
c0 30 8.33301 51.5 25 64.5s39.334 19.5 68.001 19.5h214v-130h-173z" />
    <glyph glyph-name="FL0178h" unicode="&#x178;" horiz-adv-x="418" 
d="M351 870h-128v-130h128v130zM194 870h-128v-130h128v130zM148 704h-132l128 -351v-353h128v352l130 352h-132l-61 -180z" />
    <glyph glyph-name="FL017Dh" unicode="&#x17d;" horiz-adv-x="359" 
d="M265 740h-171l-59 130h120l25 -51l24 51h120zM198 574l-172 -0.000976562v130h307v-131c0 -6 -0.833008 -13.167 -2.5 -21.5s-3.5 -15.166 -5.5 -20.499l-164 -401h172v-130h-307v131c0 6 1 13.333 3 22l5 21z" />
    <glyph glyph-name="FL017Eh" unicode="&#x17e;" horiz-adv-x="359" 
d="M265 740h-171l-59 130h120l25 -51l24 51h120zM198 574l-172 -0.000976562v130h307v-131c0 -6 -0.833008 -13.167 -2.5 -21.5s-3.5 -15.166 -5.5 -20.499l-164 -401h172v-130h-307v131c0 6 1 13.333 3 22l5 21z" />
    <glyph glyph-name="FL0192h" unicode="&#x192;" horiz-adv-x="364" 
d="M26 0h128.001v292h154v130h-154v152h184v130h-219c-28.667 0 -51.334 -6.5 -68.001 -19.5s-25 -34.5 -25 -64.5v-620z" />
    <glyph glyph-name="FL02C6h" unicode="&#x2c6;" horiz-adv-x="341" 
d="M256 870h-171l-59 -130h120l24 51l25 -51h120z" />
    <glyph glyph-name="FL02DCh" unicode="&#x2dc;" horiz-adv-x="290" 
d="M264 740h-119l-24 51l-23 -51h-72l59 130h120l23 -51l23 51h72z" />
    <glyph glyph-name="FL2013h" unicode="&#x2013;" horiz-adv-x="235" 
d="M26 422v-130h183v130h-183z" />
    <glyph glyph-name="FL2014h" unicode="&#x2014;" horiz-adv-x="312" 
d="M26 422h260v-130h-260v130z" />
    <glyph glyph-name="FL2018h" unicode="&#x2018;" horiz-adv-x="180" 
d="M154 704v-218h-128v128c0 30 8 52.5 24 67.5s39 22.5 69 22.5h35z" />
    <glyph glyph-name="FL2019h" unicode="&#x2019;" horiz-adv-x="180" 
d="M26 486v218h128v-128c0 -30 -8 -52.5 -24 -67.5s-39 -22.5 -69 -22.5h-35z" />
    <glyph glyph-name="FL201Ah" unicode="&#x201a;" horiz-adv-x="180" 
d="M26 -88v218h128v-128c0 -30 -8 -52.5 -24 -67.5s-39 -22.5 -69 -22.5h-35z" />
    <glyph glyph-name="FL201Ch" unicode="&#x201c;" horiz-adv-x="337" 
d="M154 704v-218h-128v128c0 30 8 52.5 24 67.5s39 22.5 69 22.5h35zM311 704v-218h-128v128c0 30 8 52.5 24 67.5s39 22.5 69 22.5h35z" />
    <glyph glyph-name="FL201Dh" unicode="&#x201d;" horiz-adv-x="337" 
d="M183 486v218h128v-128c0 -30 -8 -52.5 -24 -67.5s-39 -22.5 -69 -22.5h-35zM26 486v218h128v-128c0 -30 -8 -52.5 -24 -67.5s-39 -22.5 -69 -22.5h-35z" />
    <glyph glyph-name="FL201Eh" unicode="&#x201e;" horiz-adv-x="338" 
d="M184 -88v218h128v-128c0 -30 -8 -52.5 -24 -67.5s-39 -22.5 -69 -22.5h-35zM26 -88v218h128v-128c0 -30 -8 -52.5 -24 -67.5s-39 -22.5 -69 -22.5h-35z" />
    <glyph glyph-name="FL2020h" unicode="&#x2020;" horiz-adv-x="298" 
d="M26 514v-130h59v-384h128v384h59v130h-59v190h-128v-190h-59z" />
    <glyph glyph-name="FL2021h" unicode="&#x2021;" horiz-adv-x="298" 
d="M26 514v-130h59v-54h-59v-130h59v-200h128v200h59v130h-59v54h59v130h-59v190h-128v-190h-59z" />
    <glyph glyph-name="FL2022h" unicode="&#x2022;" horiz-adv-x="409" 
d="M119 0h171c30 0 53 7.5 69 22.5s24 37.5 24 67.5v524c0 30 -8 52.5 -24 67.5s-39 22.5 -69 22.5h-171c-30 0 -53 -7.5 -69 -22.5s-24 -37.5 -24 -67.5v-524c0 -30 8 -52.5 24 -67.5s39 -22.5 69 -22.5z" />
    <glyph glyph-name="FL0890h" unicode="&#x2026;" horiz-adv-x="496" 
d="M184 130h128v-130h-128v130zM342 130h128v-130h-128v130zM26 130h128v-130h-128v130z" />
    <glyph glyph-name="FL2030h" unicode="&#x2030;" horiz-adv-x="861" 
d="M501 90v207h28v-207h-28zM473 0h84c37.333 -0 56 19.333 56 58v272c0 38 -18.667 57 -56 57h-84c-38 0 -57 -19 -57 -57v-272c0 -38.667 19 -58 57 -58zM463 704h-135l-150 -704h135zM111 407v207h28v-207h-28zM83 317h84c37.333 0 56 19.333 56 58v272
c0 38 -18.667 57 -56 57h-84c-38 0 -57 -19 -57 -57v-272c0 -38.667 19 -58 57 -58zM723 90v207h28v-207h-28zM695 0h84c37.333 -0 56 19.333 56 58v272c0 38 -18.667 57 -56 57h-84c-38 0 -57 -19 -57 -57v-272c0 -38.667 19 -58 57 -58z" />
    <glyph glyph-name="FL2039h" unicode="&#x2039;" horiz-adv-x="182" 
d="M26 271v171l130 59v-120l-51 -25l51 -24v-120z" />
    <glyph glyph-name="FL203Ah" unicode="&#x203a;" horiz-adv-x="182" 
d="M156 271v171l-130 59v-120l51 -25l-51 -24v-120z" />
    <glyph glyph-name="FL0025h" unicode="&#x20ac;" 
d="M26 504l0.000976562 -130h54v-34h-54v-130h54v-120c0 -30 8 -52.5 24 -67.5s39 -22.5 69 -22.5h212v130h-177v80h82v130h-82v34h82v130h-82v70h177v130h-212c-28.667 0 -51.334 -6.5 -68.001 -19.5s-25 -34.5 -25 -64.5v-116h-54z" />
    <glyph glyph-name="trademark" unicode="&#x2122;" horiz-adv-x="327" 
d="M70 555h30v153h44v33h-118v-33h44v-153zM156 555h27v148l32 -148h27l31 148v-148h28v186h-47l-26 -129l-27 129h-45v-186z" />
    <glyph glyph-name=".null" horiz-adv-x="0" 
 />
    <glyph glyph-name="nonmarkingreturn" horiz-adv-x="500" 
 />
    </font>
</defs>
</svg>
