<svg width="33" height="33" viewBox="0 0 33 33" fill="none" xmlns="http://www.w3.org/2000/svg">
<path d="M16.76 18.7241C18.1407 18.7241 19.26 17.6048 19.26 16.2241C19.26 14.8434 18.1407 13.7241 16.76 13.7241C15.3793 13.7241 14.26 14.8434 14.26 16.2241C14.26 17.6048 15.3793 18.7241 16.76 18.7241Z" fill="#007ACC"/>
<path d="M16.76 21.956C13.7551 22.0287 10.7578 21.6237 7.88001 20.756C6.55063 20.3346 5.31074 19.6708 4.22301 18.798C3.80794 18.4999 3.46228 18.1155 3.20975 17.6712C2.95722 17.2269 2.8038 16.7332 2.76001 16.224C2.76001 14.571 4.57601 12.951 7.61801 11.891C10.5727 10.9518 13.6599 10.4966 16.76 10.543C19.8187 10.5003 22.8646 10.9473 25.782 11.867C27.0623 12.2752 28.2601 12.9069 29.32 13.733C29.728 14.0173 30.0685 14.3877 30.3173 14.8182C30.5662 15.2487 30.7173 15.7286 30.76 16.224C30.76 17.942 28.73 19.683 25.46 20.765C22.6379 21.6044 19.7038 22.0061 16.76 21.956ZM16.76 11.739C13.7941 11.6994 10.8408 12.1321 8.01101 13.021C5.21101 13.998 3.95601 15.334 3.95601 16.221C3.95601 17.149 5.30501 18.608 8.26701 19.621C11.0201 20.4469 13.8866 20.8313 16.76 20.76C19.5764 20.8104 22.3839 20.4293 25.085 19.63C28.16 18.611 29.56 17.15 29.56 16.224C29.5096 15.9062 29.3938 15.6024 29.2199 15.3316C29.0461 15.0609 28.818 14.8291 28.55 14.651C27.6018 13.9182 26.5317 13.3583 25.389 12.997C22.598 12.1208 19.685 11.6961 16.76 11.739Z" fill="#007ACC"/>
<path d="M11.0801 28.693C10.6136 28.7037 10.1526 28.5905 9.74411 28.365C8.31211 27.539 7.81611 25.157 8.41711 21.992C9.07975 18.9631 10.2279 16.0613 11.8171 13.399C13.3078 10.7281 15.2163 8.31289 17.4701 6.24497C18.4633 5.33968 19.609 4.61752 20.8541 4.11197C21.3045 3.90091 21.7957 3.7915 22.2931 3.7915C22.7905 3.7915 23.2817 3.90091 23.7321 4.11197C25.2211 4.96997 25.7141 7.59797 25.0191 10.971C24.336 13.8355 23.2177 16.5784 21.7031 19.104C20.2648 21.7433 18.4165 24.1375 16.2271 26.197C15.1979 27.1378 14.0034 27.8799 12.7041 28.386C12.1839 28.579 11.6349 28.6828 11.0801 28.693ZM12.8531 13.993C11.3372 16.5423 10.2368 19.3167 9.59311 22.212C9.04011 25.127 9.57111 26.88 10.3431 27.326C11.1431 27.789 13.0851 27.35 15.4431 25.29C17.5331 23.3169 19.2973 21.0252 20.6701 18.5C22.121 16.0855 23.1938 13.4631 23.8511 10.724C24.5051 7.54897 23.9401 5.60497 23.1381 5.14297C22.8375 5.0278 22.5163 4.97624 22.1948 4.99156C21.8732 5.00688 21.5584 5.08874 21.2701 5.23197C20.1618 5.68932 19.1428 6.3386 18.2601 7.14997C16.1068 9.13076 14.2838 11.4429 12.8601 13.999L12.8531 13.993Z" fill="#007ACC"/>
<path d="M22.4371 28.706C21.0821 28.706 19.3611 27.886 17.5691 26.345C15.2758 24.2583 13.335 21.8144 11.8221 19.108C10.2528 16.4823 9.11372 13.6225 8.44805 10.637C8.15936 9.32347 8.10587 7.96917 8.29005 6.63698C8.33264 6.14279 8.48312 5.66395 8.73089 5.23424C8.97866 4.80453 9.31768 4.43441 9.72405 4.14998C11.2111 3.28898 13.7341 4.17398 16.3091 6.45998C18.4496 8.48216 20.2674 10.8207 21.6991 13.394C23.2674 15.9583 24.4184 18.7555 25.1091 21.681C25.4102 23.0427 25.4566 24.4484 25.2461 25.827C25.196 26.3354 25.0365 26.8269 24.7786 27.268C24.5208 27.709 24.1706 28.089 23.7521 28.382C23.3502 28.6047 22.8964 28.7165 22.4371 28.706ZM12.8571 18.506C14.3085 21.0924 16.1623 23.4313 18.3491 25.435C20.5981 27.37 22.3821 27.786 23.1491 27.335C23.9491 26.87 24.5391 24.972 23.9311 21.901C23.2649 19.1079 22.1609 16.4379 20.6601 13.99C19.2939 11.5271 17.5588 9.28784 15.5151 7.34998C13.0911 5.19798 11.1251 4.71698 10.3241 5.18098C10.0744 5.38386 9.86952 5.6363 9.72236 5.92237C9.5752 6.20843 9.48895 6.5219 9.46905 6.84298C9.31006 8.03107 9.36185 9.23788 9.62206 10.408C10.2624 13.2631 11.3548 15.9976 12.8581 18.508L12.8571 18.506Z" fill="#007ACC"/>
</svg>
